<svg width="75" height="80" viewBox="0 0 75 80" fill="none" xmlns="http://www.w3.org/2000/svg">
<path d="M62.1782 38.7194V31.6324H9.11826V64.4056L33.9675 64.4059V62.0629H31.7481C31.7481 61.0867 31.7481 55.2376 31.7481 54.2621H35.2297V51.919H31.7481V44.1196L41.8915 44.1188L41.8918 33.9754H49.6914V38.9662H52.0345V33.9754H59.8352V38.7194H62.1782ZM21.6047 44.1187H29.4047V51.919H21.6047V44.1187ZM31.7481 33.9754H39.5484V41.7757H31.7481V33.9754ZM21.6047 33.9754H29.4051V41.7757H21.6047V33.9754ZM11.4613 33.9754H19.2618V41.7757H11.4613V33.9754ZM11.4613 44.1187H19.2618V51.919H11.4613V44.1187ZM19.2617 62.0625H11.4613V54.2621H19.2618L19.2617 62.0625ZM21.6047 62.0625V54.2621H29.4047V62.0625H21.6047Z" fill="url(#paint0_linear)" fill-opacity="0.6"/>
<path d="M54.2274 48.951V64.2086H65.1856V61.8655H56.5705V48.951H54.2274Z" fill="url(#paint1_linear)" fill-opacity="0.6"/>
<path d="M2.75911 27.4476H9.11826V25.1045H2.75911V9.62973C2.75911 8.52516 3.65454 7.62973 4.75911 7.62973H7.8608V13.4547L17.2658 13.4551L17.266 7.62973H23.2502V13.4547L32.6557 13.4551V7.62973H38.6409V13.4551H48.0456L48.0464 7.62973H54.0306V13.4547L63.4356 13.4551L63.4358 7.62973H66.5375C67.6421 7.62973 68.5375 8.52516 68.5375 9.62973V25.1045H11.4613V27.4476H68.5375V42.548H70.8806V8.28664C70.8806 6.62979 69.5374 5.28664 67.8806 5.28664H63.4356V2.91777L61.2655 0H56.2008L54.0306 2.91777V5.28664H48.0456V2.91777L45.8754 0H40.8109L38.6407 2.91777V5.28664H32.6555V2.91777L30.4855 0H25.421L23.2508 2.91777V5.28664H17.2658V2.91777L15.0956 0H10.0311L7.86095 2.91777V5.28664H3.41602C1.75916 5.28664 0.416016 6.62978 0.416016 8.28664V67.5513C0.416016 69.2081 1.75916 70.5513 3.41602 70.5513H35.4983V68.2082H4.75911C3.65454 68.2082 2.75911 67.3127 2.75911 66.2082V27.4476ZM57.3781 2.34309H60.0881L61.0925 3.69365V11.1116H56.3739V3.69365L57.3781 2.34309ZM40.984 3.69365L41.9884 2.34309H44.6982L45.7027 3.69365V11.1116H40.9845L40.984 3.69365ZM26.5983 2.34309H29.3082L30.3126 3.69365L30.3123 11.1116H25.5941V3.69365L26.5983 2.34309ZM11.2084 2.34309H13.9185L14.9229 3.69365V11.1116H10.204V3.69365L11.2084 2.34309Z" fill="url(#paint2_linear)" fill-opacity="0.6"/>
<path d="M43.771 21.2546H41.4279V18.9116H43.771V21.2546ZM36.7417 21.2546H34.3987V18.9116H36.7417V21.2546ZM29.7125 21.2546H27.3694V18.9116H29.7125V21.2546Z" fill="url(#paint3_linear)" fill-opacity="0.6"/>
<path fill-rule="evenodd" clip-rule="evenodd" d="M56 77.8C65.2784 77.8 72.8 70.2784 72.8 61C72.8 51.7216 65.2784 44.2 56 44.2C46.7216 44.2 39.2 51.7216 39.2 61C39.2 70.2784 46.7216 77.8 56 77.8ZM56 80C66.4934 80 75 71.4934 75 61C75 50.5066 66.4934 42 56 42C45.5066 42 37 50.5066 37 61C37 71.4934 45.5066 80 56 80Z" fill="url(#paint4_linear)" fill-opacity="0.6"/>
<defs>
<linearGradient id="paint0_linear" x1="75" y1="8.84699e-06" x2="-10.3691" y2="13.9369" gradientUnits="userSpaceOnUse">
<stop stop-color="#5CD384"/>
<stop offset="1" stop-color="#326BD2"/>
</linearGradient>
<linearGradient id="paint1_linear" x1="75" y1="8.84699e-06" x2="-10.3691" y2="13.9369" gradientUnits="userSpaceOnUse">
<stop stop-color="#5CD384"/>
<stop offset="1" stop-color="#326BD2"/>
</linearGradient>
<linearGradient id="paint2_linear" x1="75" y1="8.84699e-06" x2="-10.3691" y2="13.9369" gradientUnits="userSpaceOnUse">
<stop stop-color="#5CD384"/>
<stop offset="1" stop-color="#326BD2"/>
</linearGradient>
<linearGradient id="paint3_linear" x1="75" y1="8.84699e-06" x2="-10.3691" y2="13.9369" gradientUnits="userSpaceOnUse">
<stop stop-color="#5CD384"/>
<stop offset="1" stop-color="#326BD2"/>
</linearGradient>
<linearGradient id="paint4_linear" x1="75" y1="8.84699e-06" x2="-10.3691" y2="13.9369" gradientUnits="userSpaceOnUse">
<stop stop-color="#5CD384"/>
<stop offset="1" stop-color="#326BD2"/>
</linearGradient>
</defs>
</svg>
