<svg width="80" height="80" viewBox="0 0 80 80" fill="none" xmlns="http://www.w3.org/2000/svg">
<path d="M20 40C8.95443 40 0 48.9544 0 60C0 71.0456 8.95443 80 20 80C31.0456 80 40 71.0456 40 60C39.9876 48.9596 31.0404 40.0124 20 40ZM14.6667 76.485V72H12V75.3613C11.0599 74.8665 10.1673 74.2858 9.33333 73.6283V72.0267C9.33659 70.2409 10.5182 68.6719 12.2331 68.1745L15.1335 67.3483L19.1999 70.3997C19.6738 70.7559 20.3262 70.7559 20.8001 70.3997L24.8665 67.3483L27.7682 68.1758C29.4824 68.6725 30.6634 70.2415 30.6667 72.0267V73.6348C29.8327 74.293 28.9401 74.873 28 75.3678V72H25.3333V76.485C21.8678 77.6159 18.1322 77.6159 14.6667 76.485ZM24.4531 52.5944L23.86 51.4056C23.6895 51.0625 23.3796 50.8099 23.0098 50.7116C22.6393 50.6126 22.2454 50.6784 21.9264 50.8906L19.9427 52.2135C18.8477 52.9447 17.5605 53.3346 16.2441 53.3333H14.6667C14.6569 50.388 17.0365 47.9922 19.9818 47.9818C22.9277 47.972 25.3236 50.3516 25.3333 53.2975C24.9505 53.2044 24.6283 52.9473 24.4531 52.5944ZM16.2441 56C18.0872 56.002 19.8887 55.4557 21.4212 54.4323L22.1517 53.9453C22.5716 54.6862 23.2201 55.2708 24 55.612V57.3333C24 59.5423 22.209 61.3333 20 61.3333C17.791 61.3333 16 59.5423 16 57.3333V56H16.2441ZM20 64C20.4479 64.0006 20.8945 63.9557 21.3333 63.8665V65.3333C21.3379 65.7129 21.5052 66.0723 21.7936 66.3203L20 67.6667L18.2064 66.3203C18.4948 66.0723 18.6621 65.7129 18.6667 65.3333V63.8665C19.1055 63.9557 19.5521 64.0006 20 64ZM33.2598 71.1413C32.9076 68.5182 31.041 66.3503 28.5 65.6107L24 64.3255V62.6322C25.6725 61.3835 26.6608 59.4206 26.6667 57.3333V56C27.403 56 28 55.403 28 54.6667V53.3333C28 48.9154 24.418 45.3333 20 45.3333C15.582 45.3333 12 48.9154 12 53.3333V54.6667C12 55.403 12.597 56 13.3333 56V57.3333C13.3392 59.4206 14.3275 61.3835 16 62.6322V64.3255L11.5013 65.6107C8.95964 66.3496 7.0931 68.5182 6.74023 71.1413C0.822266 64.112 1.41797 53.6862 8.09831 47.377C14.7786 41.0677 25.2214 41.0677 31.9017 47.377C38.582 53.6862 39.1777 64.112 33.2598 71.1413Z" fill="url(#paint0_linear)" fill-opacity="0.6"/>
<path d="M6.66667 58.6667H9.33333V61.3333H6.66667V58.6667Z" fill="url(#paint1_linear)" fill-opacity="0.6"/>
<path d="M30.6667 58.6667H33.3333V61.3333H30.6667V58.6667Z" fill="url(#paint2_linear)" fill-opacity="0.6"/>
<path d="M60 40C48.9544 40 40 48.9544 40 60C40 71.0456 48.9544 80 60 80C71.0456 80 80 71.0456 80 60C79.9876 48.9596 71.0404 40.0124 60 40ZM54.6667 76.485V72H52V75.3613C51.0599 74.8665 50.1673 74.2858 49.3333 73.6283V72.0267C49.3366 70.2409 50.5182 68.6719 52.2331 68.1745L55.1335 67.3483L59.1999 70.3997C59.6738 70.7559 60.3262 70.7559 60.8001 70.3997L64.8665 67.3483L67.7682 68.1758C69.4824 68.6725 70.6634 70.2415 70.6667 72.0267V73.6348C69.8327 74.293 68.9401 74.873 68 75.3678V72H65.3333V76.485C61.8678 77.6159 58.1322 77.6159 54.6667 76.485ZM64.4531 52.5944L63.86 51.4056C63.6895 51.0625 63.3796 50.8099 63.0098 50.7116C62.6393 50.6126 62.2454 50.6784 61.9264 50.8906L59.9427 52.2135C58.8477 52.9447 57.5605 53.3346 56.2441 53.3333H54.6667C54.6569 50.388 57.0365 47.9922 59.9818 47.9818C62.9277 47.972 65.3236 50.3516 65.3333 53.2975C64.9505 53.2044 64.6283 52.9473 64.4531 52.5944ZM56.2441 56C58.0872 56.002 59.8887 55.4557 61.4212 54.4323L62.1517 53.9453C62.5716 54.6862 63.2201 55.2708 64 55.612V57.3333C64 59.5423 62.209 61.3333 60 61.3333C57.791 61.3333 56 59.5423 56 57.3333V56H56.2441ZM60 64C60.4479 64.0006 60.8945 63.9557 61.3333 63.8665V65.3333C61.3379 65.7129 61.5052 66.0723 61.7936 66.3203L60 67.6667L58.2064 66.3203C58.4948 66.0723 58.6621 65.7129 58.6667 65.3333V63.8665C59.1055 63.9557 59.5521 64.0006 60 64ZM73.2598 71.1413C72.9076 68.5182 71.041 66.3503 68.5 65.6107L64 64.3255V62.6322C65.6725 61.3835 66.6608 59.4206 66.6667 57.3333V56C67.403 56 68 55.403 68 54.6667V53.3333C68 48.9154 64.418 45.3333 60 45.3333C55.582 45.3333 52 48.9154 52 53.3333V54.6667C52 55.403 52.597 56 53.3333 56V57.3333C53.3392 59.4206 54.3275 61.3835 56 62.6322V64.3255L51.5013 65.6107C48.9596 66.3496 47.0931 68.5182 46.7402 71.1413C40.8223 64.112 41.418 53.6862 48.0983 47.377C54.7786 41.0677 65.2214 41.0677 71.9017 47.377C78.582 53.6862 79.1777 64.112 73.2598 71.1413Z" fill="url(#paint3_linear)" fill-opacity="0.6"/>
<path d="M46.6667 58.6667H49.3333V61.3333H46.6667V58.6667Z" fill="url(#paint4_linear)" fill-opacity="0.6"/>
<path d="M70.6667 58.6667H73.3333V61.3333H70.6667V58.6667Z" fill="url(#paint5_linear)" fill-opacity="0.6"/>
<path d="M9.33333 20C9.33333 17.791 11.1243 16 13.3333 16H17.3333V30.6667C17.3333 32.8757 19.1244 34.6667 21.3333 34.6667H58.6667C60.8757 34.6667 62.6667 32.8757 62.6667 30.6667V16H66.6667C68.8757 16 70.6667 17.791 70.6667 20V40H73.3333V20C73.3288 16.3197 70.347 13.3379 66.6667 13.3333H62.6667V4C62.6667 1.79102 60.8757 0 58.6667 0H21.3333C19.1244 0 17.3333 1.79102 17.3333 4V13.3333H13.3333C9.653 13.3379 6.67122 16.3197 6.66667 20V40H9.33333V20ZM20 4C20 3.26367 20.597 2.66667 21.3333 2.66667H58.6667C59.403 2.66667 60 3.26367 60 4V30.6667C60 31.403 59.403 32 58.6667 32H21.3333C20.597 32 20 31.403 20 30.6667V4Z" fill="url(#paint6_linear)" fill-opacity="0.6"/>
<path d="M31.0573 24.3906L47.0579 8.38997L48.9434 10.2754L32.9434 26.276L31.0573 24.3906Z" fill="url(#paint7_linear)" fill-opacity="0.6"/>
<path d="M45.3333 18.6667C43.1244 18.6667 41.3333 20.4577 41.3333 22.6667C41.3333 24.8757 43.1244 26.6667 45.3333 26.6667C47.5423 26.6667 49.3333 24.8757 49.3333 22.6667C49.3333 20.4577 47.5423 18.6667 45.3333 18.6667ZM45.3333 24C44.597 24 44 23.403 44 22.6667C44 21.9303 44.597 21.3333 45.3333 21.3333C46.0697 21.3333 46.6667 21.9303 46.6667 22.6667C46.6667 23.403 46.0697 24 45.3333 24Z" fill="url(#paint8_linear)" fill-opacity="0.6"/>
<path d="M34.6667 16C36.8756 16 38.6667 14.209 38.6667 12C38.6667 9.79102 36.8756 8 34.6667 8C32.4577 8 30.6667 9.79102 30.6667 12C30.6667 14.209 32.4577 16 34.6667 16ZM34.6667 10.6667C35.403 10.6667 36 11.2637 36 12C36 12.7363 35.403 13.3333 34.6667 13.3333C33.9303 13.3333 33.3333 12.7363 33.3333 12C33.3333 11.2637 33.9303 10.6667 34.6667 10.6667Z" fill="url(#paint9_linear)" fill-opacity="0.6"/>
<defs>
<linearGradient id="paint0_linear" x1="80" y1="8.84699e-06" x2="-11.2119" y2="15.9721" gradientUnits="userSpaceOnUse">
<stop stop-color="#5CD384"/>
<stop offset="1" stop-color="#326BD2"/>
</linearGradient>
<linearGradient id="paint1_linear" x1="80" y1="8.84699e-06" x2="-11.2119" y2="15.9721" gradientUnits="userSpaceOnUse">
<stop stop-color="#5CD384"/>
<stop offset="1" stop-color="#326BD2"/>
</linearGradient>
<linearGradient id="paint2_linear" x1="80" y1="8.84699e-06" x2="-11.2119" y2="15.9721" gradientUnits="userSpaceOnUse">
<stop stop-color="#5CD384"/>
<stop offset="1" stop-color="#326BD2"/>
</linearGradient>
<linearGradient id="paint3_linear" x1="80" y1="8.84699e-06" x2="-11.2119" y2="15.9721" gradientUnits="userSpaceOnUse">
<stop stop-color="#5CD384"/>
<stop offset="1" stop-color="#326BD2"/>
</linearGradient>
<linearGradient id="paint4_linear" x1="80" y1="8.84699e-06" x2="-11.2119" y2="15.9721" gradientUnits="userSpaceOnUse">
<stop stop-color="#5CD384"/>
<stop offset="1" stop-color="#326BD2"/>
</linearGradient>
<linearGradient id="paint5_linear" x1="80" y1="8.84699e-06" x2="-11.2119" y2="15.9721" gradientUnits="userSpaceOnUse">
<stop stop-color="#5CD384"/>
<stop offset="1" stop-color="#326BD2"/>
</linearGradient>
<linearGradient id="paint6_linear" x1="80" y1="8.84699e-06" x2="-11.2119" y2="15.9721" gradientUnits="userSpaceOnUse">
<stop stop-color="#5CD384"/>
<stop offset="1" stop-color="#326BD2"/>
</linearGradient>
<linearGradient id="paint7_linear" x1="80" y1="8.84699e-06" x2="-11.2119" y2="15.9721" gradientUnits="userSpaceOnUse">
<stop stop-color="#5CD384"/>
<stop offset="1" stop-color="#326BD2"/>
</linearGradient>
<linearGradient id="paint8_linear" x1="80" y1="8.84699e-06" x2="-11.2119" y2="15.9721" gradientUnits="userSpaceOnUse">
<stop stop-color="#5CD384"/>
<stop offset="1" stop-color="#326BD2"/>
</linearGradient>
<linearGradient id="paint9_linear" x1="80" y1="8.84699e-06" x2="-11.2119" y2="15.9721" gradientUnits="userSpaceOnUse">
<stop stop-color="#5CD384"/>
<stop offset="1" stop-color="#326BD2"/>
</linearGradient>
</defs>
</svg>
