<svg width="138" height="40" viewBox="0 0 138 40" fill="none" xmlns="http://www.w3.org/2000/svg">
<path d="M28.738 19.537C28.7083 16.2423 31.4365 14.6394 31.5612 14.5647C30.0162 12.3127 27.6214 12.005 26.7798 11.9804C24.7685 11.7688 22.8175 13.1837 21.7929 13.1837C20.7479 13.1837 19.1701 12.0009 17.4697 12.0357C15.2814 12.0694 13.2343 13.336 12.1116 15.3028C9.79451 19.3132 11.5226 25.2065 13.7425 28.4481C14.853 30.0367 16.1506 31.8083 17.849 31.7459C19.5106 31.6785 20.1313 30.6879 22.1365 30.6879C24.1233 30.6879 24.7061 31.7459 26.4383 31.7061C28.2216 31.6785 29.3443 30.1113 30.416 28.5094C31.6992 26.6908 32.2146 24.8978 32.2351 24.8058C32.1942 24.7915 28.7728 23.485 28.738 19.537ZM25.4659 9.84801C26.3596 8.73067 26.971 7.21057 26.8013 5.66797C25.5078 5.72522 23.8902 6.56245 22.9586 7.65525C22.1345 8.61822 21.3982 10.1966 21.5884 11.6809C23.0414 11.7893 24.5333 10.948 25.4659 9.84801Z" fill="white"/>
<path d="M53.495 31.5176H51.1728L49.9008 27.5216H45.4794L44.2677 31.5176H42.0068L46.3884 17.9133H49.094L53.495 31.5176ZM49.5174 25.845L48.367 22.2927C48.2453 21.9298 48.0163 21.0752 47.6809 19.7299H47.64C47.505 20.3085 47.2892 21.1631 46.9937 22.2927L45.8628 25.845H49.5174ZM64.7408 26.4921C64.7408 28.1605 64.2879 29.4792 63.3809 30.4473C62.569 31.309 61.5597 31.7394 60.3562 31.7394C59.0566 31.7394 58.122 31.2763 57.5545 30.3481V35.4952H55.3744V24.9322C55.3744 23.8843 55.3468 22.8099 55.2936 21.7079H57.2109L57.3326 23.2628H57.3735C58.1005 22.0913 59.2038 21.5055 60.6844 21.5055C61.842 21.5055 62.8082 21.9625 63.5813 22.8774C64.3533 23.7944 64.7408 24.9986 64.7408 26.4921ZM62.5199 26.5719C62.5199 25.6171 62.3052 24.8299 61.8737 24.2094C61.4023 23.5644 60.7693 23.2413 59.9758 23.2413C59.438 23.2413 58.9492 23.4213 58.5126 23.776C58.0749 24.1338 57.7886 24.6009 57.6547 25.1795C57.5949 25.3959 57.5609 25.6186 57.5534 25.843V27.4796C57.5534 28.1922 57.7723 28.7943 58.2099 29.287C58.6476 29.7777 59.2161 30.0241 59.9155 30.0241C60.7366 30.0241 61.3757 29.7061 61.8328 29.0754C62.2908 28.4426 62.5199 27.6084 62.5199 26.5719ZM76.0265 26.4921C76.0265 28.1605 75.5736 29.4792 74.6666 30.4473C73.8537 31.309 72.8454 31.7394 71.6409 31.7394C70.3413 31.7394 69.4067 31.2763 68.8392 30.3481V35.4952H66.6591V24.9322C66.6591 23.8843 66.6315 22.8099 66.5783 21.7079H68.4956L68.6173 23.2628H68.6582C69.3842 22.0913 70.4875 21.5055 71.9691 21.5055C73.1256 21.5055 74.0919 21.9625 74.867 22.8774C75.638 23.7944 76.0265 24.9986 76.0265 26.4921ZM73.8046 26.5719C73.8046 25.6171 73.5888 24.8299 73.1573 24.2094C72.6859 23.5644 72.055 23.2413 71.2615 23.2413C70.7237 23.2413 70.2349 23.4213 69.7963 23.776C69.3586 24.1338 69.0733 24.6009 68.9394 25.1795C68.8729 25.4494 68.8371 25.6692 68.8371 25.843V27.4796C68.8371 28.1922 69.057 28.7943 69.4926 29.287C69.9302 29.7767 70.4987 30.0241 71.2002 30.0241C72.0223 30.0241 72.6614 29.7061 73.1174 29.0754C73.5755 28.4426 73.8046 27.6084 73.8046 26.5719ZM88.6446 27.7015C88.6446 28.8597 88.2397 29.8012 87.435 30.528C86.5495 31.3213 85.3132 31.719 83.7283 31.719C82.264 31.719 81.0901 31.4368 80.2046 30.8715L80.7087 29.0549C81.6648 29.6213 82.7149 29.9034 83.8581 29.9034C84.6803 29.9034 85.3193 29.7174 85.7754 29.3483C86.2325 28.9783 86.4636 28.4835 86.4636 27.8661C86.4636 27.313 86.2723 26.8499 85.8971 26.4727C85.5198 26.0965 84.896 25.7459 84.0197 25.4239C81.6372 24.5355 80.4449 23.2362 80.4449 21.527C80.4449 20.4107 80.8662 19.4968 81.7067 18.7822C82.5472 18.0687 83.6618 17.7119 85.0484 17.7119C86.2867 17.7119 87.3184 17.9276 88.1374 18.358L87.5904 20.1347C86.8194 19.7176 85.9492 19.5091 84.9758 19.5091C84.2068 19.5091 83.6035 19.6982 83.172 20.0744C82.809 20.4107 82.625 20.8206 82.625 21.3072C82.625 21.8439 82.8346 22.2896 83.2518 22.6392C83.6138 22.9612 84.2743 23.3119 85.2294 23.6881C86.4012 24.1604 87.2622 24.7103 87.8133 25.3421C88.3685 25.9738 88.6446 26.762 88.6446 27.7015ZM95.8709 23.3436H93.4679V28.1063C93.4679 29.3177 93.8912 29.9218 94.7399 29.9218C95.1295 29.9218 95.4527 29.8891 95.7083 29.8206L95.7686 31.4757C95.3392 31.6362 94.7737 31.7169 94.0733 31.7169C93.2123 31.7169 92.5395 31.4542 92.0538 30.9288C91.5701 30.4033 91.3267 29.5231 91.3267 28.2842V23.3395H89.8952V21.7039H91.3267V19.9077L93.4679 19.2617V21.7039H95.8709V23.3436ZM106.691 26.532C106.691 28.0398 106.26 29.2778 105.399 30.2459C104.498 31.2426 103.3 31.7394 101.806 31.7394C100.364 31.7394 99.2176 31.262 98.3628 30.3082C97.5079 29.3524 97.0805 28.1482 97.0805 26.6956C97.0805 25.1755 97.5223 23.9303 98.4027 22.9623C99.2851 21.9932 100.473 21.5086 101.967 21.5086C103.407 21.5086 104.563 21.987 105.439 22.9418C106.275 23.868 106.691 25.064 106.691 26.532ZM104.432 26.5821C104.432 25.6835 104.237 24.9127 103.848 24.2677C103.391 23.4887 102.736 23.0992 101.888 23.0992C101.015 23.0992 100.345 23.4887 99.8894 24.2677C99.4988 24.9127 99.3045 25.6968 99.3045 26.623C99.3045 27.5226 99.4988 28.2954 99.8894 28.9384C100.361 29.7174 101.018 30.1069 101.87 30.1069C102.703 30.1069 103.357 29.7092 103.829 28.919C104.23 28.2586 104.432 27.4827 104.432 26.5821ZM113.781 23.6247C113.554 23.5838 113.324 23.5636 113.093 23.5644C112.327 23.5644 111.733 23.8526 111.316 24.4333C110.954 24.9444 110.772 25.5905 110.772 26.3705V31.5176H108.592V24.7972C108.594 23.7675 108.573 22.7378 108.529 21.709H110.428L110.507 23.5858H110.568C110.799 22.9408 111.161 22.4205 111.658 22.031C112.113 21.6906 112.665 21.5063 113.234 21.5055C113.435 21.5055 113.617 21.5198 113.779 21.5454L113.781 23.6247ZM123.53 26.1487C123.536 26.48 123.509 26.811 123.451 27.1372H116.911C116.935 28.1063 117.252 28.8485 117.859 29.3596C118.411 29.8155 119.123 30.0445 119.999 30.0445C120.967 30.0445 121.85 29.8912 122.645 29.5814L122.986 31.0933C122.058 31.4982 120.962 31.6995 119.697 31.6995C118.175 31.6995 116.981 31.2518 116.112 30.3583C115.245 29.4639 114.81 28.2617 114.81 26.7559C114.81 25.2777 115.214 24.0459 116.023 23.0635C116.87 22.0146 118.014 21.4902 119.454 21.4902C120.868 21.4902 121.938 22.0146 122.665 23.0635C123.241 23.8946 123.53 24.925 123.53 26.1487ZM121.452 25.5833C121.467 24.9362 121.324 24.3791 121.028 23.9079C120.651 23.3006 120.07 22.998 119.292 22.998C118.579 22.998 117.999 23.2935 117.557 23.8864C117.194 24.3576 116.978 24.924 116.912 25.5813L121.452 25.5833Z" fill="white"/>
<path d="M44.8503 13.1042C44.2439 13.1042 43.7193 13.0745 43.2827 13.0244V6.4472C43.8934 6.35289 44.5105 6.30641 45.1284 6.30818C47.6285 6.30818 48.7799 7.53796 48.7799 9.54262C48.7799 11.855 47.4199 13.1042 44.8503 13.1042ZM45.2163 7.15154C44.8789 7.15154 44.5916 7.17199 44.3533 7.22106V12.2209C44.4821 12.2414 44.7296 12.2506 45.0773 12.2506C46.7154 12.2506 47.6479 11.3183 47.6479 9.57226C47.6479 8.01536 46.8043 7.15154 45.2163 7.15154ZM52.3679 13.1543C50.9589 13.1543 50.0457 12.1024 50.0457 10.6743C50.0457 9.18585 50.9783 8.12474 52.4477 8.12474C53.8363 8.12474 54.7698 9.12655 54.7698 10.5955C54.7698 12.1024 53.8076 13.1543 52.3679 13.1543ZM52.4088 8.90779C51.6348 8.90779 51.1388 9.63155 51.1388 10.6436C51.1388 11.6362 51.645 12.36 52.3986 12.36C53.1522 12.36 53.6584 11.5861 53.6584 10.6231C53.6584 9.64178 53.1624 8.90779 52.4088 8.90779ZM62.8049 8.2239L61.2967 13.0449H60.314L59.6893 10.9513C59.5339 10.4392 59.4046 9.91956 59.3017 9.39439H59.2813C59.2025 9.91983 59.0532 10.4463 58.8947 10.9513L58.2301 13.0449H57.2372L55.8179 8.2239H56.9192L57.4652 10.5158C57.5941 11.0617 57.7025 11.5769 57.7925 12.0635H57.8129C57.8916 11.6577 58.0205 11.1506 58.2096 10.526L58.8947 8.22492H59.768L60.4234 10.477C60.5819 11.0229 60.7108 11.5585 60.811 12.0645H60.8396C60.9091 11.5687 61.0185 11.0423 61.1668 10.477L61.7527 8.22492L62.8049 8.2239ZM68.3573 13.0449H67.2856V10.2766C67.2856 9.42403 66.9584 8.99673 66.3132 8.99673C65.6782 8.99673 65.2416 9.54262 65.2416 10.1774V13.0449H64.17V9.60191C64.17 9.17562 64.1598 8.71867 64.1301 8.22287H65.0729L65.123 8.96708H65.1526C65.441 8.45186 66.0259 8.12474 66.6813 8.12474C67.6936 8.12474 68.3583 8.89859 68.3583 10.158L68.3573 13.0449ZM71.3124 13.0449H70.2397V6.01172H71.3124V13.0449ZM75.2195 13.1543C73.8115 13.1543 72.8973 12.1024 72.8973 10.6743C72.8973 9.18585 73.8299 8.12474 75.2982 8.12474C76.6878 8.12474 77.6204 9.12655 77.6204 10.5955C77.6214 12.1024 76.6582 13.1543 75.2195 13.1543ZM75.2594 8.90779C74.4853 8.90779 73.9894 9.63155 73.9894 10.6436C73.9894 11.6362 74.4966 12.36 75.2481 12.36C76.0027 12.36 76.5079 11.5861 76.5079 10.6231C76.5089 9.64178 76.014 8.90779 75.2594 8.90779ZM81.8455 13.0449L81.7678 12.4898H81.7392C81.4119 12.9365 80.9344 13.1543 80.3291 13.1543C79.465 13.1543 78.8515 12.5491 78.8515 11.7354C78.8515 10.5455 79.8833 9.93005 81.6696 9.93005V9.84112C81.6696 9.20629 81.3332 8.88837 80.6686 8.88837C80.1931 8.88837 79.7759 9.00797 79.4088 9.24616L79.191 8.54182C79.6368 8.26376 80.1931 8.12474 80.8465 8.12474C82.1062 8.12474 82.7423 8.78921 82.7423 10.1192V11.8948C82.7423 12.3814 82.7637 12.7587 82.8118 13.0459L81.8455 13.0449ZM81.6982 10.6436C80.508 10.6436 79.9109 10.9319 79.9109 11.6158C79.9109 12.1218 80.2186 12.3692 80.6461 12.3692C81.1911 12.3692 81.6982 11.9531 81.6982 11.3878V10.6436ZM87.9459 13.0449L87.8958 12.271H87.8662C87.5584 12.8558 87.041 13.1543 86.3181 13.1543C85.1554 13.1543 84.2945 12.132 84.2945 10.6937C84.2945 9.18585 85.1871 8.12372 86.406 8.12372C87.0512 8.12372 87.5083 8.34146 87.766 8.77899H87.7874V6.01172H88.8601V11.7456C88.8601 12.2117 88.8713 12.6483 88.8999 13.0449H87.9459ZM87.7874 10.2081C87.7874 9.53342 87.3406 8.95788 86.6586 8.95788C85.864 8.95788 85.3783 9.66222 85.3783 10.6538C85.3783 11.626 85.8825 12.2915 86.6371 12.2915C87.3109 12.2915 87.7874 11.7057 87.7874 11.0116V10.2081ZM95.6609 13.1543C94.2529 13.1543 93.3398 12.1024 93.3398 10.6743C93.3398 9.18585 94.2723 8.12474 95.7407 8.12474C97.1303 8.12474 98.0629 9.12655 98.0629 10.5955C98.0639 12.1024 97.1017 13.1543 95.6609 13.1543ZM95.7008 8.90779C94.9278 8.90779 94.4318 9.63155 94.4318 10.6436C94.4318 11.6362 94.938 12.36 95.6906 12.36C96.4452 12.36 96.9504 11.5861 96.9504 10.6231C96.9524 9.64178 96.4565 8.90779 95.7008 8.90779ZM103.826 13.0449H102.753V10.2766C102.753 9.42403 102.426 8.99673 101.781 8.99673C101.146 8.99673 100.71 9.54262 100.71 10.1774V13.0449H99.6376V9.60191C99.6376 9.17562 99.6273 8.71867 99.5977 8.22287H100.54L100.591 8.96708H100.62C100.908 8.45186 101.493 8.12372 102.148 8.12372C103.16 8.12372 103.826 8.89757 103.826 10.157V13.0449ZM111.036 9.0274H109.857V11.3684C109.857 11.9644 110.063 12.2618 110.48 12.2618C110.67 12.2618 110.828 12.2414 110.956 12.2117L110.986 13.0255C110.778 13.1052 110.5 13.1451 110.154 13.1451C109.31 13.1451 108.805 12.6789 108.805 11.4583V9.0274H108.101V8.2239H108.805V7.34066L109.857 7.02274V8.22287H111.036V9.0274ZM116.709 13.0449H115.638V10.297C115.638 9.43426 115.312 8.99775 114.666 8.99775C114.11 8.99775 113.593 9.37497 113.593 10.1386V13.0449H112.522V6.01172H113.593V8.90779H113.615C113.952 8.38235 114.441 8.12372 115.065 8.12372C116.085 8.12372 116.709 8.91699 116.709 10.1774V13.0449ZM122.521 10.892H119.305C119.325 11.8049 119.93 12.3201 120.824 12.3201C121.3 12.3201 121.738 12.2404 122.124 12.0921L122.291 12.8363C121.835 13.0347 121.298 13.1338 120.673 13.1338C119.165 13.1338 118.272 12.1811 118.272 10.7039C118.272 9.22571 119.186 8.11451 120.552 8.11451C121.785 8.11451 122.558 9.0274 122.558 10.4064C122.565 10.5692 122.552 10.7322 122.521 10.892ZM121.538 10.1284C121.538 9.38417 121.163 8.85872 120.478 8.85872C119.862 8.85872 119.376 9.39439 119.306 10.1284H121.538Z" fill="white"/>
</svg>
