<svg width="109" height="24" viewBox="0 0 109 24" fill="none" xmlns="http://www.w3.org/2000/svg">
<path d="M6.59157 12.5756L3.63904 19.1462H1.48486L4.72824 12.1197C3.20313 11.3523 2.18664 9.96165 2.18664 7.3957C2.18664 3.79857 4.48587 2 7.221 2H10.0042V19.1462H8.14054V12.5756H6.59157ZM8.14054 3.55878H7.14829C5.64779 3.55878 4.19576 4.54193 4.19576 7.3957C4.19576 10.1534 5.5266 11.0409 7.14829 11.0409H8.14054V3.55878Z" fill="#FF0000"/>
<path d="M18.9861 7.05983V19.1462H17.1224V13.7269H14.3149V19.1462H12.427V7.05983H14.3149V12.1914H17.1224V7.05983H18.9861ZM28.6913 21.5204H26.9972V19.1462H21.7693V21.5204H20.0753V17.6114H20.8256C21.9386 15.0451 22.0598 11.3046 22.0598 8.09101V7.05983H27.7232V17.6114H28.6913V21.5204ZM25.8596 8.57058H23.7539V8.78672C23.7539 11.3287 23.633 15.0451 22.6165 17.6114H25.8596V8.57058ZM33.8949 19.3139C31.3779 19.3139 29.8289 17.324 29.8289 13.6072C29.8289 9.72184 30.9182 6.89209 33.5079 6.89209C35.5408 6.89209 36.8721 8.40284 36.8721 12.5032V13.5347H31.7892C31.7892 16.2688 32.5637 17.7075 34.0642 17.7075C35.1292 17.7075 35.9764 17.2279 36.4604 16.8925L36.8963 18.3304C36.1218 18.9304 35.1049 19.3139 33.8949 19.3139ZM31.8135 12H34.9357C34.9357 9.93761 34.5967 8.42686 33.5079 8.42686C32.3459 8.42686 31.9346 9.84155 31.8135 12ZM40.696 13.1269V19.1462H38.8081V7.05983H40.696V12.6473L43.6243 7.05983H45.5365L42.5112 12.7433L45.972 19.1462H43.9148L40.696 13.1269ZM46.214 13.1032C46.214 9.31395 47.6907 6.89209 50.5466 6.89209C51.6355 6.89209 52.2649 7.1799 52.7974 7.51538L52.5311 9.2903C52.0229 8.85839 51.2969 8.45087 50.5224 8.45087C49.1669 8.45087 48.1989 9.96162 48.1989 13.0071C48.1989 16.0286 48.9249 17.7555 50.4497 17.7555C51.3692 17.7555 52.0714 17.3957 52.5069 17.0122L52.9424 18.4028C52.2891 18.9541 51.5146 19.3139 50.4012 19.3139C47.7872 19.3139 46.214 17.2279 46.214 13.1032Z" fill="white"/>
<path d="M65.7801 19.1462H58.3742L58.2045 22H57.2607V18.1635H57.769C58.6162 17.4674 59.0275 15.5491 59.2695 13.1032C59.5115 10.5613 59.5842 6.77204 59.6569 2H65.7074V18.1635H66.894V22H65.9494L65.7801 19.1462ZM64.4974 2.98315H60.7461C60.6734 7.32365 60.5522 10.633 60.3587 13.1032C60.1409 15.6688 59.7535 17.3713 59.1002 18.1635H64.4974V2.98315Z" fill="white"/>
<path d="M71.9056 18.4029C73.5269 18.4029 74.3741 17.1083 74.3741 17.1083L74.7373 18.0186C74.7373 18.0186 73.8178 19.3857 71.8817 19.3857C69.2924 19.3857 68.1058 17.0595 68.1058 13.1032C68.1058 9.14623 69.6063 6.82007 71.6639 6.82007C73.7693 6.82007 75.1244 9.00251 74.7373 13.2954H69.2193C69.2678 16.6043 70.1388 18.4029 71.9056 18.4029ZM69.2431 12.4072H73.6731C73.8662 9.19427 72.8982 7.75556 71.6639 7.75556C70.3812 7.75556 69.3401 9.38602 69.2431 12.4072Z" fill="white"/>
<path d="M82.1935 13.319H78.0306V19.1462H76.8933V7.05981H78.0306V12.4071H82.1935V7.05981H83.3308V19.1462H82.1935V13.319Z" fill="white"/>
<path d="M86.0201 7.05981H87.1567V11.5444H88.0531C90.3762 11.5444 91.8767 12.7914 91.8767 15.3096C91.8767 17.8752 90.2793 19.1462 87.98 19.1462H86.0201V7.05981ZM87.1567 12.4315V18.2587H87.8831C89.6014 18.2587 90.7633 17.42 90.7633 15.3333C90.7633 13.2953 89.7468 12.4315 88.0039 12.4315H87.1567Z" fill="white"/>
<path d="M94.9516 7.99531V19.1462H93.8389V7.05981H98.9937V7.99531H94.9516Z" fill="white"/>
<path d="M106.426 10.729C106.426 10.1053 106.474 9.57773 106.523 9.07415H106.45C106.281 9.60175 106.063 10.1053 105.797 10.6329L101.828 19.1462H100.86V7.05981H101.925V15.453C101.925 16.1003 101.875 16.6279 101.828 17.1555H101.9C102.069 16.6043 102.311 16.0767 102.553 15.5491L106.523 7.05981H107.515V19.1462H106.426V10.729Z" fill="white"/>
</svg>
