<svg width="75" height="24" viewBox="0 0 75 24" fill="none" xmlns="http://www.w3.org/2000/svg">
<g clip-path="url(#clip0)">
<path d="M32.6556 23.6538H26.5839L30.3816 0.421143H36.4531L32.6556 23.6538Z" fill="#00579F"/>
<path d="M54.6665 0.989106C53.4688 0.519026 51.5693 0 49.2205 0C43.2245 0 39.0021 3.16343 38.9762 7.68618C38.9264 11.0231 41.9993 12.8764 44.2976 13.9891C46.6467 15.126 47.4452 15.8681 47.4452 16.8815C47.4213 18.4379 45.547 19.1553 43.7989 19.1553C41.3747 19.1553 40.0758 18.7854 38.1019 17.9195L37.3024 17.5483L36.4528 22.7635C37.8768 23.4054 40.5005 23.975 43.2245 24C49.5954 24 53.7431 20.8855 53.7922 16.0658C53.8165 13.4211 52.1938 11.3946 48.6956 9.73863C46.572 8.67561 45.2714 7.95883 45.2714 6.87118C45.2963 5.8824 46.3714 4.86964 48.7687 4.86964C50.7426 4.82004 52.1929 5.28946 53.2915 5.75921L53.8407 6.00591L54.6665 0.989106Z" fill="#00579F"/>
<path d="M62.7365 15.4233C63.2365 14.0886 65.1606 8.92298 65.1606 8.92298C65.1353 8.97258 65.6596 7.56366 65.9594 6.69872L66.3838 8.70059C66.3838 8.70059 67.5336 14.2617 67.7833 15.4233C66.8343 15.4233 63.9357 15.4233 62.7365 15.4233ZM70.2313 0.421143H65.5348C64.0865 0.421143 62.9861 0.840962 62.3613 2.34876L53.3424 23.6535H59.7133C59.7133 23.6535 60.7622 20.786 60.9877 20.1684C61.6866 20.1684 67.8842 20.1684 68.7833 20.1684C68.9576 20.9841 69.5078 23.6535 69.5078 23.6535H75.1297L70.2313 0.421143Z" fill="#00579F"/>
<path d="M21.5126 0.421143L15.5663 16.2636L14.9165 13.0505C13.8172 9.34313 10.3694 5.31509 6.52185 3.31225L11.9684 23.6291H18.3892L27.933 0.421143H21.5126Z" fill="#00579F"/>
<path d="M10.0446 0.421143H0.275721L0.175781 0.890565C7.79614 2.81851 12.843 7.46576 14.9165 13.0515L12.7928 2.37406C12.4432 0.890236 11.3688 0.470089 10.0446 0.421143Z" fill="#FAA61A"/>
</g>
<defs>
<clipPath id="clip0">
<rect width="75" height="24" fill="white"/>
</clipPath>
</defs>
</svg>
