<svg width="22" height="22" viewBox="0 0 22 22" fill="none" xmlns="http://www.w3.org/2000/svg">
<path d="M16.1484 0.611328H5.85164C2.96086 0.611328 0.609375 2.96313 0.609375 5.8536V16.1503C0.609375 19.0411 2.96086 21.3923 5.85164 21.3923H16.1484C19.0391 21.3923 21.3903 19.0411 21.3903 16.1503V5.8536C21.3903 2.96313 19.0391 0.611328 16.1484 0.611328ZM19.129 16.1503C19.129 17.794 17.7917 19.1313 16.1484 19.1313H5.85164C4.20828 19.1313 2.87097 17.794 2.87097 16.1503V5.8536C2.87097 4.21023 4.20828 2.87325 5.85164 2.87325H16.1484C17.7917 2.87325 19.129 4.21023 19.129 5.8536V16.1503Z" fill="white"/>
<path d="M16.524 6.75667C15.8256 6.75667 15.2573 6.1887 15.2573 5.49024C15.2573 4.79211 15.8256 4.22414 16.524 4.22414C17.2225 4.22414 17.7905 4.79211 17.7905 5.49024C17.7905 6.1887 17.2225 6.75667 16.524 6.75667Z" fill="white"/>
<path d="M10.9995 5.65001C8.04883 5.65001 5.64773 8.05078 5.64773 11.0018C5.64773 13.9528 8.04883 16.3539 10.9995 16.3539C13.9509 16.3539 16.352 13.9528 16.352 11.0018C16.352 8.0511 13.9509 5.65001 10.9995 5.65001ZM10.9995 14.093C9.29625 14.093 7.90901 12.7061 7.90901 11.0018C7.90901 9.2982 9.29625 7.91193 10.9995 7.91193C12.7038 7.91193 14.0901 9.2982 14.0901 11.0018C14.0901 12.7061 12.7038 14.093 10.9995 14.093Z" fill="white"/>
</svg>
