<svg width="56" height="46" viewBox="0 0 56 46" fill="none" xmlns="http://www.w3.org/2000/svg">
<path d="M8.60019 22.8739C9.90019 24.9739 12.0002 28.1739 14.1002 30.9739C16.0002 33.5739 15.1002 34.4739 14.3002 35.1739C13.5002 35.8739 13.0002 36.2739 12.3002 36.8739C10.7002 38.1739 9.9002 36.6739 9.9002 36.6739C9.9002 36.6739 2.40019 24.7739 1.30019 23.1739C0.900194 22.5739 0.700195 21.9739 0.700195 21.4739C0.700195 20.9739 0.900194 20.3739 1.30019 19.7739C2.40019 18.1739 9.60019 6.67394 9.60019 6.67394C9.60019 6.67394 10.6002 4.87394 12.3002 5.97394C13.0002 6.47394 13.6002 6.87394 14.3002 7.67394C15.0002 8.57394 16.0002 9.37394 14.1002 11.9739C12.1002 14.7739 9.90019 17.9739 8.60019 20.0739C8.40019 20.4739 8.2002 21.0739 8.2002 21.4739C8.3002 21.9739 8.40019 22.4739 8.60019 22.8739ZM55.2002 22.7739C55.2002 21.9739 54.9002 21.1739 54.3002 20.3739C52.8002 18.1739 41.9002 0.673937 41.9002 0.673937C41.9002 0.673937 41.0002 -1.02606 38.8002 0.973937C37.9002 1.77394 38.5002 1.27394 37.5002 2.27394C36.5002 3.37394 35.6002 5.67394 38.3002 9.37394C41.2002 13.3739 44.2002 17.8739 46.1002 20.8739C46.4002 21.3739 46.6002 22.0739 46.6002 22.6739V22.7739V22.8739C46.6002 23.4739 46.5002 24.1739 46.1002 24.6739C44.3002 27.6739 41.2002 32.2739 38.3002 36.1739C35.6002 39.8739 36.4002 42.1739 37.5002 43.2739C38.5002 44.3739 37.9002 43.7739 38.8002 44.5739C41.0002 46.5739 41.9002 44.7739 41.9002 44.7739C41.9002 44.7739 52.8002 27.3739 54.4002 25.0739C55.0002 24.3739 55.2002 23.5739 55.2002 22.7739C55.2002 22.8739 55.2002 22.8739 55.2002 22.7739Z" fill="white"/>
</svg>
