<svg width="31" height="24" viewBox="0 0 31 24" fill="none" xmlns="http://www.w3.org/2000/svg">
<g clip-path="url(#clip0)">
<path d="M30.2935 23.6632V23.7257H30.3512C30.364 23.7257 30.3749 23.7227 30.3828 23.7178C30.3901 23.713 30.3944 23.7045 30.3944 23.6942C30.3944 23.6839 30.3901 23.676 30.3828 23.6711C30.3749 23.6657 30.364 23.6632 30.3512 23.6632H30.2935ZM30.3518 23.6196C30.3816 23.6196 30.4047 23.6263 30.4211 23.6396C30.4375 23.6529 30.4454 23.6711 30.4454 23.6942C30.4454 23.7136 30.4393 23.7293 30.426 23.7421C30.4132 23.7542 30.395 23.7621 30.3707 23.7651L30.4472 23.853H30.3877L30.3166 23.7657H30.2935V23.853H30.2437V23.6196H30.3518ZM30.3366 23.9336C30.364 23.9336 30.3895 23.9282 30.4126 23.9178C30.4363 23.9075 30.4569 23.8936 30.4746 23.876C30.4922 23.8584 30.5062 23.8378 30.5165 23.8136C30.5262 23.7899 30.5317 23.7645 30.5317 23.7372C30.5317 23.7099 30.5262 23.6845 30.5165 23.6608C30.5062 23.6372 30.4922 23.616 30.4746 23.5984C30.4569 23.5808 30.4363 23.5669 30.4126 23.5566C30.3895 23.5469 30.364 23.542 30.3366 23.542C30.3093 23.542 30.2832 23.5469 30.2595 23.5566C30.2352 23.5669 30.2139 23.5808 30.1963 23.5984C30.1787 23.616 30.1647 23.6372 30.155 23.6608C30.1446 23.6845 30.1398 23.7099 30.1398 23.7372C30.1398 23.7645 30.1446 23.7899 30.155 23.8136C30.1647 23.8378 30.1787 23.8584 30.1963 23.876C30.2139 23.8936 30.2352 23.9075 30.2595 23.9178C30.2832 23.9282 30.3093 23.9336 30.3366 23.9336ZM30.3366 23.4856C30.3725 23.4856 30.4053 23.4923 30.4369 23.5056C30.4679 23.5184 30.4946 23.5366 30.5183 23.5596C30.5414 23.582 30.5596 23.6087 30.573 23.6396C30.5864 23.6699 30.593 23.7026 30.593 23.7372C30.593 23.7718 30.5864 23.8045 30.573 23.8348C30.5596 23.8651 30.5414 23.8918 30.5183 23.9148C30.4946 23.9372 30.4679 23.9554 30.4369 23.9688C30.4053 23.9821 30.3725 23.9888 30.3366 23.9888C30.3002 23.9888 30.2668 23.9821 30.2352 23.9688C30.2036 23.9554 30.1762 23.9372 30.1531 23.9148C30.1301 23.8918 30.1118 23.8651 30.0985 23.8348C30.0851 23.8045 30.0784 23.7718 30.0784 23.7372C30.0784 23.7026 30.0851 23.6699 30.0985 23.6396C30.1118 23.6087 30.1301 23.582 30.1531 23.5596C30.1762 23.5366 30.2036 23.5184 30.2352 23.5056C30.2668 23.4923 30.3002 23.4856 30.3366 23.4856ZM6.6647 22.5867C6.6647 22.1417 6.95694 21.7762 7.4345 21.7762C7.89079 21.7762 8.19884 22.1259 8.19884 22.5867C8.19884 23.0474 7.89079 23.3971 7.4345 23.3971C6.95694 23.3971 6.6647 23.0316 6.6647 22.5867ZM8.71893 22.5867V21.3209H8.16724V21.6283C7.99226 21.4003 7.72675 21.2573 7.36584 21.2573C6.65437 21.2573 6.09661 21.8138 6.09661 22.5867C6.09661 23.3602 6.65437 23.916 7.36584 23.916C7.72675 23.916 7.99226 23.773 8.16724 23.545V23.8524H8.71893V22.5867ZM27.3619 22.5867C27.3619 22.1417 27.6542 21.7762 28.1317 21.7762C28.5886 21.7762 28.8961 22.1259 28.8961 22.5867C28.8961 23.0474 28.5886 23.3971 28.1317 23.3971C27.6542 23.3971 27.3619 23.0316 27.3619 22.5867ZM29.4168 22.5867V20.3043H28.8645V21.6283C28.6895 21.4003 28.424 21.2573 28.0631 21.2573C27.3516 21.2573 26.7938 21.8138 26.7938 22.5867C26.7938 23.3602 27.3516 23.916 28.0631 23.916C28.424 23.916 28.6895 23.773 28.8645 23.545V23.8524H29.4168V22.5867ZM15.567 21.7501C15.9224 21.7501 16.1508 21.9726 16.2092 22.3642H14.8926C14.9515 21.9986 15.1739 21.7501 15.567 21.7501ZM15.5779 21.2573C14.8342 21.2573 14.3141 21.7974 14.3141 22.5867C14.3141 23.3917 14.8555 23.916 15.615 23.916C15.9971 23.916 16.3471 23.8209 16.6551 23.5614L16.3848 23.1534C16.1721 23.3226 15.9011 23.4183 15.6466 23.4183C15.2911 23.4183 14.9673 23.2541 14.8877 22.7982H16.7718C16.7773 22.7297 16.7827 22.6606 16.7827 22.5867C16.7773 21.7974 16.2888 21.2573 15.5779 21.2573ZM22.2394 22.5867C22.2394 22.1417 22.5317 21.7762 23.0092 21.7762C23.4655 21.7762 23.7736 22.1259 23.7736 22.5867C23.7736 23.0474 23.4655 23.3971 23.0092 23.3971C22.5317 23.3971 22.2394 23.0316 22.2394 22.5867ZM24.2936 22.5867V21.3209H23.742V21.6283C23.5664 21.4003 23.3015 21.2573 22.9406 21.2573C22.2291 21.2573 21.6713 21.8138 21.6713 22.5867C21.6713 23.3602 22.2291 23.916 22.9406 23.916C23.3015 23.916 23.5664 23.773 23.742 23.545V23.8524H24.2936V22.5867ZM19.1237 22.5867C19.1237 23.3547 19.6596 23.916 20.4774 23.916C20.8596 23.916 21.1142 23.8312 21.39 23.6141L21.1251 23.1692C20.9179 23.3177 20.7004 23.3971 20.461 23.3971C20.0205 23.3917 19.6967 23.074 19.6967 22.5867C19.6967 22.0993 20.0205 21.7816 20.461 21.7762C20.7004 21.7762 20.9179 21.8556 21.1251 22.0041L21.39 21.5592C21.1142 21.3421 20.8596 21.2573 20.4774 21.2573C19.6596 21.2573 19.1237 21.8186 19.1237 22.5867ZM26.2367 21.2573C25.9183 21.2573 25.7111 21.4058 25.5677 21.6283V21.3209H25.0209V23.8524H25.5732V22.4333C25.5732 22.0144 25.7537 21.7816 26.1146 21.7816C26.2264 21.7816 26.343 21.7974 26.4597 21.8453L26.6298 21.3264C26.5077 21.2785 26.3485 21.2573 26.2367 21.2573ZM11.4476 21.5222C11.1821 21.3476 10.8163 21.2573 10.4129 21.2573C9.77004 21.2573 9.35628 21.5646 9.35628 22.0678C9.35628 22.4806 9.66432 22.7352 10.2318 22.8146L10.4925 22.8516C10.795 22.894 10.9378 22.9734 10.9378 23.1165C10.9378 23.3123 10.7361 23.4238 10.3594 23.4238C9.97723 23.4238 9.70138 23.302 9.51546 23.1589L9.25542 23.5875C9.55799 23.8099 9.94016 23.916 10.3539 23.916C11.0867 23.916 11.5114 23.5717 11.5114 23.0898C11.5114 22.6448 11.1772 22.4121 10.6249 22.3327L10.3649 22.2951C10.1261 22.2636 9.93469 22.2163 9.93469 22.0465C9.93469 21.861 10.1151 21.7501 10.4177 21.7501C10.7416 21.7501 11.0551 21.872 11.2088 21.9671L11.4476 21.5222ZM18.566 21.2573C18.2476 21.2573 18.0404 21.4058 17.8976 21.6283V21.3209H17.3508V23.8524H17.9025V22.4333C17.9025 22.0144 18.083 21.7816 18.4439 21.7816C18.5557 21.7816 18.6723 21.7974 18.789 21.8453L18.9591 21.3264C18.837 21.2785 18.6778 21.2573 18.566 21.2573ZM13.8578 21.3209H12.9556V20.5529H12.3978V21.3209H11.8832V21.8241H12.3978V22.9789C12.3978 23.5663 12.6263 23.916 13.2788 23.916C13.5182 23.916 13.794 23.8421 13.969 23.7202L13.8098 23.2486C13.6452 23.3438 13.4647 23.3917 13.3213 23.3917C13.0455 23.3917 12.9556 23.2219 12.9556 22.9679V21.8241H13.8578V21.3209ZM5.60872 23.8524V22.2636C5.60872 21.6652 5.22655 21.2627 4.61047 21.2573C4.28663 21.2518 3.95246 21.3525 3.71854 21.7077C3.54356 21.427 3.26771 21.2573 2.88008 21.2573C2.6091 21.2573 2.34419 21.3367 2.13701 21.6331V21.3209H1.58472V23.8524H2.14187V22.449C2.14187 22.0096 2.38611 21.7762 2.76342 21.7762C3.12979 21.7762 3.31511 22.0144 3.31511 22.4436V23.8524H3.87286V22.449C3.87286 22.0096 4.12744 21.7762 4.49381 21.7762C4.87051 21.7762 5.05096 22.0144 5.05096 22.4436V23.8524H5.60872Z" fill="white"/>
<path d="M30.6339 15.4336V15.0638H30.5373L30.4255 15.3178L30.3143 15.0638H30.2171V15.4336H30.2858V15.1547L30.3903 15.3954H30.4613L30.5658 15.1541V15.4336H30.6339ZM30.0209 15.4336V15.1269H30.1448V15.0644H29.8289V15.1269H29.9528V15.4336H30.0209Z" fill="#F79410"/>
<path d="M19.6487 17.024H11.2874V2.03174H19.6487V17.024Z" fill="#FF5F00"/>
<path d="M11.8231 9.52676C11.8231 6.48551 13.2503 3.77645 15.4728 2.03062C13.8475 0.753986 11.7963 -0.0079937 9.56714 -0.0079937C4.28969 -0.0079937 0.0117188 4.26079 0.0117188 9.52676C0.0117188 14.7927 4.28969 19.0615 9.56714 19.0615C11.7963 19.0615 13.8475 18.2995 15.4728 17.0229C13.2503 15.2771 11.8231 12.568 11.8231 9.52676Z" fill="#EB001B"/>
<path d="M30.9256 9.52676C30.9256 14.7927 26.6476 19.0615 21.3702 19.0615C19.1409 19.0615 17.0898 18.2995 15.4639 17.0229C17.687 15.2771 19.1142 12.568 19.1142 9.52676C19.1142 6.48551 17.687 3.77645 15.4639 2.03062C17.0898 0.753986 19.1409 -0.0079937 21.3702 -0.0079937C26.6476 -0.0079937 30.9256 4.26079 30.9256 9.52676Z" fill="#F79E1B"/>
</g>
<defs>
<clipPath id="clip0">
<rect width="31" height="24" fill="white"/>
</clipPath>
</defs>
</svg>
