<svg width="101" height="24" viewBox="0 0 101 24" fill="none" xmlns="http://www.w3.org/2000/svg">
<path d="M88.3362 0.46167C90.1371 0.46167 91.8506 0.870149 93.3881 1.60085C93.6293 1.70855 93.872 1.83745 94.1123 1.96647L93.058 2.89102L91.4775 1.27874L88.7541 3.64314L87.1503 1.94471L82.1423 6.35162L85.3486 9.81256L84.0969 10.8871L87.2602 14.348L86.0084 15.4222L90.5333 20.3449L93.2115 17.9372L95.5408 20.5175C95.0791 20.8614 94.574 21.2061 94.0255 21.5065C92.3559 22.4307 90.4227 22.9671 88.3584 22.9671C82.0101 22.9671 76.8492 17.9166 76.8492 11.7047C76.8268 5.53488 81.9885 0.46167 88.3362 0.46167ZM86.2272 11.0164L88.9729 8.60865L91.4334 11.2956L88.6872 13.7031L86.2272 11.0164ZM88.1826 15.6597L90.9059 13.2306L93.3881 15.9174L90.6424 18.3252L88.1826 15.6597ZM84.2736 6.4379L87.0184 4.0302L89.4784 6.71713L86.7326 9.12472L84.2736 6.4379ZM89.3024 5.14772L91.3453 3.34214L93.1907 5.34136L91.1479 7.16826L89.3024 5.14772ZM92.9489 13.4237L94.9911 11.618L96.8365 13.6381L94.7935 15.4449L92.9489 13.4237ZM94.7497 17.4869L96.7927 15.6809L98.6366 17.68L96.5944 19.5067L94.7497 17.4869ZM95.5845 8.20017L96.9461 6.99626L98.1757 8.32952L96.8144 9.53298L95.5845 8.20017ZM93.8273 4.22338L95.1891 2.99838L96.4196 4.3524L95.0568 5.5562L93.8273 4.22338ZM97.3195 12.1773L98.6811 10.9735L99.933 12.3063L98.5498 13.5098L97.3195 12.1773ZM91.1916 9.18924L93.2346 7.38354L95.0792 9.38232L93.0371 11.1883L91.1916 9.18924Z" fill="#036CB5"/>
<mask id="mask0" mask-type="alpha" maskUnits="userSpaceOnUse" x="0" y="5" width="13" height="11">
<path d="M0.77002 5.1377V15.528H12.7752V5.1377H0.77002Z" fill="#036CB5"/>
</mask>
<g mask="url(#mask0)">
<path d="M6.79483 8.21437H6.69123L4.74622 15.528H3.15644L0.77002 5.1377H2.4195L4.06937 12.8906H4.1724L6.08697 5.1377H7.39836L9.4459 12.8906H9.549L11.0517 5.1377H12.7752L10.3882 15.528H8.79722L6.79483 8.21437Z" fill="#036CB5"/>
</g>
<path d="M14.868 11.1045H18.2405C18.1674 9.56618 17.4157 8.95123 16.6206 8.95123C15.7221 8.95123 15.0293 9.63985 14.868 11.1045ZM19.4188 13.8604V14.9743C18.7561 15.3553 17.8727 15.6486 16.8116 15.6486C14.3376 15.6486 13.3213 14.1245 13.3213 11.8093C13.3213 9.58081 14.4552 7.96875 16.6648 7.96875C18.5055 7.96875 19.6404 9.15659 19.6404 11.5448V12.0871H14.8385C14.8385 13.8451 15.5598 14.622 17.0775 14.622C17.8727 14.622 18.6092 14.3431 19.4188 13.8604Z" fill="#036CB5"/>
<path d="M23.0664 14.4735C23.5379 14.6787 24.0538 14.709 24.4227 14.709C25.5124 14.709 26.3364 14.0339 26.3364 11.6605C26.3364 9.79931 25.6589 9.19842 24.6724 9.19842C24.0828 9.19842 23.6558 9.36014 23.0664 9.68191V14.4735H23.0664ZM23.0819 8.59776C23.5227 8.36406 24.2738 8.05523 25.0696 8.05523C26.8963 8.05523 27.8833 9.3155 27.8833 11.6605C27.8833 14.4011 26.5574 15.7347 24.4227 15.7347C23.6414 15.7347 22.4336 15.4855 21.5493 15.0155V4.78748L23.0819 4.42163V8.59776H23.0819Z" fill="#036CB5"/>
<path d="M34.513 13.3232H34.5868L37.7383 5.1311H39.5658V15.5222H37.975V7.98902H37.8422L34.8369 15.5222H33.895L30.889 8.16514H30.757V15.5222H29.4312V5.1311H31.214L34.513 13.3232Z" fill="#036CB5"/>
<path d="M46.0651 11.8088C46.0651 9.83058 45.2555 8.99565 44.2539 8.99565C43.2821 8.99565 42.4418 9.83059 42.4418 11.8088C42.4418 13.8167 43.2087 14.622 44.2539 14.622C45.2992 14.622 46.0651 13.8168 46.0651 11.8088ZM40.8958 11.8088C40.8958 9.24331 42.3102 7.96875 44.2539 7.96875C46.1989 7.96875 47.6125 9.2433 47.6125 11.8088C47.6125 14.3143 46.2722 15.6486 44.2539 15.6486C42.2361 15.6486 40.8958 14.3143 40.8958 11.8088Z" fill="#036CB5"/>
<path d="M48.7776 9.05402C49.4404 8.6577 50.8403 7.96875 52.5338 7.96875C54.3012 7.96875 54.9629 8.6577 54.9629 10.1667V15.4725H53.4321V10.5042C53.4321 9.34676 52.8586 9.14162 52.1064 9.14162C51.5179 9.14162 50.7658 9.40579 50.3095 9.66952V15.4725H48.7776V9.05402H48.7776Z" fill="#036CB5"/>
<path d="M58.2054 11.1045H61.5782C61.5057 9.56618 60.7537 8.95123 59.9582 8.95123C59.0595 8.95123 58.3681 9.63985 58.2054 11.1045ZM62.7563 13.8604V14.9743C62.0939 15.3553 61.21 15.6486 60.1493 15.6486C57.6762 15.6486 56.6592 14.1245 56.6592 11.8093C56.6592 9.58081 57.7927 7.96875 60.0024 7.96875C61.8443 7.96875 62.9789 9.15659 62.9789 11.5448V12.0871H58.1765C58.1765 13.8451 58.8983 14.622 60.4155 14.622C61.21 14.622 61.9477 14.3431 62.7563 13.8604Z" fill="#036CB5"/>
<path d="M69.0969 7.96875H70.6734L68.0071 15.2952C67.2696 17.3178 66.3721 18.373 64.6785 18.373V17.1721C65.6807 17.1721 66.2984 16.3804 66.6527 15.2952L63.8245 7.96875H65.445L67.3303 13.3616H67.4187L69.0969 7.96875Z" fill="#036CB5"/>
<path d="M16.6802 22.2819V21.6491C17.2264 21.9236 17.7462 22.0615 18.2387 22.0615C18.6488 22.0615 18.9631 21.987 19.1826 21.8367C19.4022 21.6874 19.5122 21.4855 19.5122 21.2302C19.5122 20.9751 19.4219 20.7837 19.2413 20.6564C19.0611 20.5292 18.7242 20.3718 18.2315 20.1853C18.0605 20.1216 17.9512 20.0802 17.9019 20.0605C17.8534 20.0413 17.7582 20.0016 17.6165 19.943C17.4752 19.8845 17.3825 19.8399 17.3388 19.8107C17.2947 19.7805 17.2206 19.7362 17.1155 19.6781C17.0107 19.6186 16.94 19.5663 16.9032 19.5205C16.867 19.4734 16.8167 19.4139 16.7532 19.343C16.6899 19.2722 16.6471 19.2019 16.625 19.1302C16.6032 19.0593 16.5822 18.9771 16.5629 18.8837C16.5436 18.7902 16.5337 18.69 16.5337 18.582C16.5337 18.1651 16.6888 17.83 16.9983 17.5747C17.3084 17.3202 17.7362 17.1926 18.2828 17.1926C18.7656 17.1926 19.2465 17.2807 19.7241 17.4574V18.1262C19.2608 17.9003 18.7973 17.7885 18.3338 17.7885C18.007 17.7885 17.7631 17.856 17.6021 17.9932C17.4411 18.1303 17.3605 18.3118 17.3605 18.5377C17.3605 18.7781 17.4411 18.9604 17.6021 19.0857C17.763 19.2115 18.0511 19.35 18.4658 19.5015C19.1778 19.7615 19.6683 19.9967 19.9363 20.2079C20.2049 20.4181 20.339 20.7328 20.339 21.149C20.339 21.5858 20.1548 21.9428 19.7865 22.2199C19.4181 22.4969 18.9122 22.6355 18.268 22.6355C17.678 22.6355 17.1485 22.5172 16.6802 22.2819ZM24.1259 22.5241H23.4309L23.3795 22.0975C22.9596 22.4412 22.5403 22.613 22.1208 22.613C21.7697 22.613 21.4976 22.5189 21.3051 22.3296C21.112 22.1408 21.0158 21.9024 21.0158 21.6124C21.0158 21.4601 21.0438 21.3147 21.1 21.1749C21.1562 21.0349 21.2489 20.8993 21.378 20.767C21.5073 20.6344 21.7024 20.528 21.9633 20.4468C22.2242 20.3654 22.5379 20.3252 22.9039 20.3252H23.3577V20.1267C23.3577 19.7982 23.2967 19.5745 23.1747 19.4538C23.0524 19.3336 22.8476 19.2735 22.5599 19.2735C22.2087 19.2735 21.7768 19.4175 21.2648 19.7076V19.1193C21.7917 18.8791 22.3086 18.758 22.8159 18.758C23.3084 18.758 23.6503 18.8592 23.8403 19.0606C24.0308 19.2612 24.1259 19.5656 24.1259 19.9717V22.5241ZM23.365 20.8398H22.9769C22.1767 20.8398 21.7768 21.0779 21.7768 21.5537C21.7768 21.721 21.8303 21.8411 21.9378 21.9175C22.0453 21.9937 22.1795 22.0314 22.3406 22.0314C22.545 22.0314 22.7428 21.9823 22.9331 21.8839C23.1233 21.7865 23.2674 21.6738 23.365 21.5462V20.8398H23.365ZM25.315 23.9956V19.2961C25.5298 19.1338 25.7831 19.0033 26.0761 18.9054C26.369 18.8081 26.6563 18.758 26.9397 18.758C27.954 18.758 28.4617 19.3738 28.4617 20.605C28.4617 21.2424 28.33 21.7303 28.0664 22.0681C27.803 22.4068 27.4253 22.5752 26.9321 22.5752C26.5905 22.5752 26.3052 22.4894 26.0761 22.3188V23.9956H25.315ZM26.0687 19.5453V21.7748C26.1663 21.8675 26.2893 21.9366 26.4382 21.9835C26.5871 22.03 26.7177 22.0532 26.8298 22.0532C27.0979 22.0532 27.3092 21.9497 27.4629 21.7413C27.6165 21.5325 27.693 21.1538 27.693 20.605C27.693 20.1588 27.6142 19.8318 27.4556 19.627C27.2971 19.4203 27.0907 19.3179 26.837 19.3179C26.5496 19.3179 26.2935 19.3934 26.0687 19.5453ZM30.207 18.7959V22.5241H29.446V18.9793L30.207 18.7959ZM29.3288 17.7141C29.3288 17.5817 29.3787 17.4656 29.4786 17.3645C29.579 17.2641 29.6948 17.2136 29.8261 17.2136C29.9581 17.2136 30.074 17.2641 30.1742 17.3645C30.2742 17.4656 30.3241 17.5817 30.3241 17.7141C30.3241 17.8464 30.2742 17.9633 30.1742 18.0642C30.074 18.1637 29.9581 18.2142 29.8261 18.2142C29.6949 18.2142 29.579 18.1637 29.4786 18.0642C29.3787 17.9633 29.3288 17.8464 29.3288 17.7141ZM33.0572 22.0975C33.4087 22.0975 33.7961 21.97 34.2207 21.7155V22.2744C33.8306 22.5003 33.3987 22.613 32.9255 22.613C32.3303 22.613 31.8927 22.4437 31.6121 22.1052C31.3315 21.7666 31.1913 21.2937 31.1913 20.6857C31.1913 20.1068 31.3353 19.6405 31.6228 19.2886C31.9109 18.9356 32.3204 18.758 32.8521 18.758C33.3208 18.758 33.6838 18.9105 33.943 19.2148C34.2014 19.5193 34.3303 19.9648 34.3303 20.5531V20.8257H31.945C31.945 21.2623 32.0353 21.5838 32.2156 21.7885C32.3962 21.9953 32.6767 22.0975 33.0572 22.0975ZM32.8301 19.2517C32.6012 19.2517 32.4082 19.3425 32.2521 19.5232C32.0963 19.7049 31.9985 19.9751 31.9595 20.332H33.6352C33.6155 19.9696 33.5304 19.6994 33.3791 19.5205C33.2281 19.3411 33.0451 19.2517 32.8301 19.2517ZM35.2998 22.5241V19.303C35.8999 18.9398 36.5219 18.758 37.1662 18.758C37.6004 18.758 37.9099 18.847 38.0953 19.0236C38.2807 19.2003 38.3734 19.4796 38.3734 19.8617V22.5241H37.6125V20.031C37.6125 19.7615 37.5563 19.5798 37.4442 19.4871C37.3319 19.3934 37.1686 19.3472 36.9538 19.3472C36.6612 19.3472 36.3635 19.4358 36.0612 19.6121V22.5241H35.2998V22.5241ZM40.2869 18.9356H41.4432L41.2602 19.4358H40.2869V21.377C40.2869 21.8675 40.4968 22.1126 40.9162 22.1126C41.0772 22.1126 41.2406 22.0786 41.407 22.0097V22.48C41.1775 22.5685 40.9042 22.613 40.5871 22.613C40.2212 22.613 39.9529 22.5086 39.782 22.2995C39.6114 22.0921 39.5259 21.8184 39.5259 21.4792V18.4497L40.2869 17.8974V18.9356H40.2869ZM42.9328 18.7959V22.5241H42.1715V18.9793L42.9328 18.7959ZM42.0546 17.7141C42.0546 17.5817 42.1047 17.4656 42.2041 17.3645C42.3041 17.2641 42.4199 17.2136 42.552 17.2136C42.6835 17.2136 42.7997 17.2641 42.8994 17.3645C42.9996 17.4656 43.0496 17.5817 43.0496 17.7141C43.0496 17.8464 42.9996 17.9633 42.8994 18.0642C42.7997 18.1637 42.6836 18.2142 42.552 18.2142C42.4199 18.2142 42.3041 18.1637 42.2041 18.0642C42.1047 17.9633 42.0546 17.8464 42.0546 17.7141ZM48.1135 19.0529V19.6405C47.7475 19.3956 47.3767 19.2735 47.0014 19.2735C46.8111 19.2735 46.655 19.3103 46.5327 19.384C46.4109 19.457 46.3499 19.5752 46.3499 19.7362C46.3499 19.8891 46.4168 20.01 46.551 20.1007C46.6852 20.1916 46.8963 20.2836 47.1843 20.3761C47.3453 20.4301 47.4658 20.4721 47.5462 20.5013C47.6269 20.5315 47.7327 20.5806 47.8647 20.6488C47.9963 20.7177 48.0953 20.7857 48.161 20.8549C48.2269 20.9238 48.2866 21.014 48.3404 21.1271C48.3941 21.2398 48.4206 21.3645 48.4206 21.5019C48.4206 21.8405 48.2853 22.11 48.0149 22.3112C47.7441 22.5122 47.3816 22.6131 46.9282 22.6131C46.4206 22.6131 45.9984 22.5051 45.662 22.2887V21.7155C46.0912 21.97 46.484 22.0976 46.8404 22.0976C47.3767 22.0976 47.6451 21.9216 47.6451 21.5681C47.6451 21.4998 47.6292 21.4355 47.5976 21.377C47.5658 21.3182 47.5293 21.2704 47.4879 21.2335C47.4463 21.1968 47.3791 21.1552 47.2864 21.1079C47.1936 21.0623 47.1158 21.0281 47.0523 21.0057C46.989 20.9838 46.889 20.9482 46.7525 20.8993C46.5523 20.8257 46.3938 20.7622 46.2766 20.7079C46.1593 20.6536 46.0426 20.5839 45.9254 20.4984C45.8081 20.4126 45.7226 20.3102 45.6694 20.1929C45.6158 20.0756 45.5889 19.9354 45.5889 19.7738C45.5889 19.5678 45.6376 19.3917 45.7351 19.245C45.8327 19.0969 45.9598 18.9915 46.1156 18.928C46.2717 18.8641 46.4144 18.8197 46.5437 18.7959C46.6731 18.7705 46.8011 18.758 46.9282 18.758C47.343 18.758 47.7379 18.8564 48.1135 19.0529ZM52.1564 22.5241H51.4614L51.4099 22.0975C50.9901 22.4412 50.5709 22.613 50.1515 22.613C49.8003 22.613 49.5283 22.5189 49.3356 22.3296C49.1426 22.1408 49.0465 21.9024 49.0465 21.6124C49.0465 21.4601 49.0745 21.3147 49.1307 21.1749C49.1867 21.0349 49.2795 20.8993 49.4088 20.767C49.5384 20.6344 49.733 20.528 49.994 20.4468C50.2551 20.3654 50.5688 20.3252 50.9341 20.3252H51.3883V20.1267C51.3883 19.7982 51.327 19.5745 51.2057 19.4538C51.0829 19.3336 50.8782 19.2735 50.5908 19.2735C50.2393 19.2735 49.8075 19.4175 49.2954 19.7076V19.1193C49.8224 18.8791 50.3392 18.758 50.8465 18.758C51.3395 18.758 51.6805 18.8592 51.8709 19.0606C52.0611 19.2612 52.1564 19.5656 52.1564 19.9717V22.5241H52.1564ZM51.396 20.8398H51.0077C50.2076 20.8398 49.8075 21.0779 49.8075 21.5537C49.8075 21.721 49.8612 21.8411 49.9684 21.9175C50.0759 21.9937 50.2097 22.0314 50.371 22.0314C50.5757 22.0314 50.7728 21.9823 50.9638 21.8839C51.154 21.7865 51.2982 21.6738 51.396 21.5462V20.8398H51.396ZM54.0704 18.9356H55.2265L55.0431 19.4358H54.0704V21.377C54.0704 21.8675 54.28 22.1126 54.699 22.1126C54.8602 22.1126 55.0231 22.0786 55.1897 22.0097V22.48C54.9603 22.5685 54.6875 22.613 54.3695 22.613C54.0042 22.613 53.736 22.5086 53.5652 22.2995C53.3943 22.0921 53.3086 21.8184 53.3086 21.4792V18.4497L54.0704 17.8974V18.9356H54.0704Z" fill="#B6B6B6"/>
</svg>
