<svg width="22" height="12" viewBox="0 0 22 12" fill="none" xmlns="http://www.w3.org/2000/svg">
<path d="M4.551 8.20833C5.35332 9.29544 6.27523 10.2568 7.46621 10.9369C8.81492 11.7078 10.267 11.9403 11.7984 11.8694C12.5139 11.8351 12.7291 11.6485 12.7621 10.9357C12.7842 10.4473 12.8407 9.96014 13.0812 9.52122C13.3175 9.09081 13.676 9.00936 14.0897 9.27715C14.2956 9.41245 14.469 9.58179 14.6332 9.76297C15.0363 10.2029 15.4265 10.6586 15.844 11.0841C16.369 11.6186 16.9917 11.9336 17.7729 11.8694L20.7997 11.8707C21.2868 11.8377 21.5402 11.2406 21.2605 10.6952C21.0636 10.3145 20.8051 9.97586 20.5319 9.64725C19.9134 8.90421 19.1845 8.27096 18.4953 7.59879C17.8742 6.99235 17.8348 6.64029 18.3337 5.94054C18.8799 5.17611 19.4654 4.44209 20.0157 3.68178C20.5291 2.97146 21.0559 2.26219 21.3247 1.4127C21.4969 0.870431 21.3446 0.631513 20.7907 0.535636C20.6948 0.519914 20.5951 0.519914 20.4979 0.519914L17.2044 0.515791C16.7987 0.509347 16.5755 0.686667 16.4322 1.0462C16.2379 1.53229 16.0384 2.01811 15.8069 2.48564C15.2845 3.5493 14.7 4.5774 13.8806 5.44673C13.6995 5.63822 13.4984 5.88126 13.1966 5.78152C12.8198 5.64363 12.7082 5.02147 12.7147 4.81142L12.7118 1.00961C12.6386 0.467595 12.5175 0.224553 11.9781 0.119141H8.55719C8.10177 0.119141 7.87188 0.296718 7.62755 0.581513C7.48837 0.747234 7.44482 0.85342 7.73399 0.908575C8.301 1.01605 8.62291 1.38383 8.70693 1.95265C8.84224 2.8627 8.83296 3.77636 8.75435 4.68899C8.73193 4.95549 8.68605 5.22095 8.58064 5.47044C8.41543 5.86296 8.14739 5.94183 7.79688 5.70034C7.48064 5.48229 7.25744 5.17508 7.03786 4.86657C6.21724 3.70678 5.56337 2.45703 5.02884 1.14363C4.87523 0.763987 4.60873 0.534347 4.20693 0.527646C3.2193 0.511925 2.23064 0.509605 1.24172 0.528935C0.648167 0.539502 0.470847 0.82842 0.713888 1.36811C1.7894 3.76193 2.98708 6.08874 4.551 8.20833Z" fill="white"/>
</svg>
