<svg width="72" height="72" viewBox="0 0 72 72" fill="none" xmlns="http://www.w3.org/2000/svg">
<path d="M17.0667 22.9833V25.35H19.4333V22.9833H17.0667Z" fill="url(#paint0_linear)" fill-opacity="0.6"/>
<path fill-rule="evenodd" clip-rule="evenodd" d="M18.25 11.15V8.78333C18.9035 8.78333 19.4333 8.25349 19.4333 7.6V6.41667C19.4293 3.15037 16.783 0.504045 13.5167 0.5H11.15C7.8837 0.504045 5.23738 3.15037 5.23333 6.41667V7.6C5.23333 8.25349 5.76318 8.78333 6.41667 8.78333V11.15C6.41667 14.4175 9.06588 17.0667 12.3333 17.0667L8.78333 17.0667C4.21063 17.0719 0.5052 20.7773 0.5 25.35V26.5333C0.5 27.8403 1.55968 28.9 2.86667 28.9H21.8C23.107 28.9 24.1667 27.8403 24.1667 26.5333V25.35C24.1615 20.7773 20.456 17.0719 15.8833 17.0667L12.3333 17.0667C15.6008 17.0667 18.25 14.4175 18.25 11.15ZM11.15 2.86667H13.5167C15.4771 2.86667 17.0667 4.45619 17.0667 6.41667H12.6124L10.4954 5.35756C10.04 5.12991 9.48998 5.22004 9.13001 5.58001L8.29336 6.41667H7.6C7.6 4.45619 9.18953 2.86667 11.15 2.86667ZM12.3333 14.7C10.3729 14.7 8.78333 13.1105 8.78333 11.15V8.78333C9.09708 8.78333 9.39811 8.65853 9.61999 8.43665L10.1995 7.85654L11.8046 8.65911C11.9687 8.74115 12.1496 8.78333 12.3333 8.78333H15.8833V11.15C15.8833 13.1105 14.2938 14.7 12.3333 14.7ZM21.8 26.5333V25.35C21.7908 22.3807 19.5778 19.88 16.631 19.509L13.6207 26.5333H21.8ZM12.3333 23.5288L14.0893 19.4333H10.5774L12.3333 23.5288ZM8.03566 19.509C5.08888 19.88 2.87591 22.3807 2.86667 25.35V26.5333H11.046L8.03566 19.509Z" fill="url(#paint1_linear)" fill-opacity="0.6"/>
<path d="M64.4 22.9833H66.7667V25.35H64.4V22.9833Z" fill="url(#paint2_linear)" fill-opacity="0.6"/>
<path fill-rule="evenodd" clip-rule="evenodd" d="M59.6667 17.0667L63.2167 17.0667C67.7894 17.0719 71.4948 20.7773 71.5 25.35V26.5333C71.5 27.8403 70.4403 28.9 69.1333 28.9H50.2C48.893 28.9 47.8333 27.8403 47.8333 26.5333V25.35C47.8385 20.7773 51.544 17.0719 56.1167 17.0667L59.6667 17.0667ZM59.6667 23.5288L61.4226 19.4333H57.9107L59.6667 23.5288ZM55.369 19.509C52.4222 19.88 50.2092 22.3807 50.2 25.35V26.5333H58.3793L55.369 19.509ZM63.9643 19.509L60.954 26.5333H69.1333V25.35C69.1241 22.3807 66.9111 19.88 63.9643 19.509Z" fill="url(#paint3_linear)" fill-opacity="0.6"/>
<path fill-rule="evenodd" clip-rule="evenodd" d="M65.5833 11.15C65.5833 14.4175 62.9341 17.0667 59.6667 17.0667C56.3992 17.0667 53.75 14.4175 53.75 11.15V8.78333C53.0965 8.78333 52.5667 8.25349 52.5667 7.6V6.41667C52.5707 3.15037 55.217 0.504045 58.4833 0.5H60.85C64.1163 0.504045 66.7626 3.15037 66.7667 6.41667V7.6C66.7667 8.25349 66.2368 8.78333 65.5833 8.78333V11.15ZM60.85 2.86667H58.4833C56.5229 2.86667 54.9333 4.45619 54.9333 6.41667H55.6267L56.4633 5.58001C56.8233 5.22004 57.3734 5.12991 57.8287 5.35756L59.9457 6.41667H64.4C64.4 4.45619 62.8105 2.86667 60.85 2.86667ZM56.1167 11.15C56.1167 13.1105 57.7062 14.7 59.6667 14.7C61.6271 14.7 63.2167 13.1105 63.2167 11.15V8.78333H59.6667C59.4829 8.78333 59.3021 8.74115 59.138 8.65911L57.5329 7.85654L56.9533 8.43665C56.7314 8.65853 56.4304 8.78333 56.1167 8.78333V11.15Z" fill="url(#paint4_linear)" fill-opacity="0.6"/>
<path d="M19.4333 65.5833H17.0667V67.95H19.4333V65.5833Z" fill="url(#paint5_linear)" fill-opacity="0.6"/>
<path fill-rule="evenodd" clip-rule="evenodd" d="M8.78333 59.6667C4.21063 59.6719 0.5052 63.3773 0.5 67.95V69.1333C0.5 70.4403 1.55968 71.5 2.86667 71.5H21.8C23.107 71.5 24.1667 70.4403 24.1667 69.1333V67.95C24.1615 63.3773 20.456 59.6719 15.8833 59.6667H12.3401C15.6045 59.663 18.25 57.0152 18.25 53.75V51.3833C18.9035 51.3833 19.4333 50.8535 19.4333 50.2V49.0167C19.4293 45.7504 16.783 43.104 13.5167 43.1H11.15C7.8837 43.104 5.23738 45.7504 5.23333 49.0167V50.2C5.23333 50.8535 5.76318 51.3833 6.41667 51.3833V53.75C6.41667 57.0152 9.06221 59.663 12.3265 59.6667H8.78333ZM14.0893 62.0333L12.3333 66.1288L10.5774 62.0333H14.0893ZM2.86667 67.95C2.87591 64.9807 5.08888 62.48 8.03566 62.109L11.046 69.1333H2.86667V67.95ZM21.8 69.1333H13.6207L16.631 62.109C19.5778 62.48 21.7908 64.9807 21.8 67.95V69.1333ZM13.5167 45.4667C15.4771 45.4667 17.0667 47.0562 17.0667 49.0167H12.6124L10.4954 47.9518C10.04 47.7241 9.48998 47.8137 9.13001 48.1742L8.29336 49.0167H7.6C7.6 47.0562 9.18953 45.4667 11.15 45.4667H13.5167ZM12.3333 57.3C10.3729 57.3 8.78333 55.7105 8.78333 53.75V51.3833C9.09708 51.3833 9.39811 51.2585 9.61999 51.0367L10.1995 50.4565L11.8046 51.2591C11.9687 51.3412 12.1496 51.3833 12.3333 51.3833H15.8833V53.75C15.8833 55.7105 14.2938 57.3 12.3333 57.3Z" fill="url(#paint6_linear)" fill-opacity="0.6"/>
<path d="M64.4 65.5833H66.7667V67.95H64.4V65.5833Z" fill="url(#paint7_linear)" fill-opacity="0.6"/>
<path fill-rule="evenodd" clip-rule="evenodd" d="M47.8333 67.95C47.8385 63.3773 51.544 59.6719 56.1167 59.6667H59.6599C56.3955 59.663 53.75 57.0152 53.75 53.75V51.3833C53.0965 51.3833 52.5667 50.8535 52.5667 50.2V49.0167C52.5707 45.7504 55.217 43.104 58.4833 43.1H60.85C64.1163 43.104 66.7626 45.7504 66.7667 49.0167V50.2C66.7667 50.8535 66.2368 51.3833 65.5833 51.3833V53.75C65.5833 57.0152 62.9378 59.663 59.6735 59.6667H63.2167C67.7894 59.6719 71.4948 63.3773 71.5 67.95V69.1333C71.5 70.4403 70.4403 71.5 69.1333 71.5H50.2C48.893 71.5 47.8333 70.4403 47.8333 69.1333V67.95ZM59.6667 66.1288L61.4226 62.0333H57.9107L59.6667 66.1288ZM55.369 62.109C52.4222 62.48 50.2092 64.9807 50.2 67.95V69.1333H58.3793L55.369 62.109ZM60.954 69.1333H69.1333V67.95C69.1241 64.9807 66.9111 62.48 63.9643 62.109L60.954 69.1333ZM64.4 49.0167C64.4 47.0562 62.8105 45.4667 60.85 45.4667H58.4833C56.5229 45.4667 54.9333 47.0562 54.9333 49.0167H55.6267L56.4633 48.1742C56.8233 47.8137 57.3734 47.7241 57.8287 47.9518L59.9457 49.0167H64.4ZM56.1167 53.75C56.1167 55.7105 57.7062 57.3 59.6667 57.3C61.6271 57.3 63.2167 55.7105 63.2167 53.75V51.3833H59.6667C59.4829 51.3833 59.3021 51.3412 59.138 51.2591L57.5329 50.4565L56.9533 51.0367C56.7314 51.2585 56.4304 51.3833 56.1167 51.3833V53.75Z" fill="url(#paint8_linear)" fill-opacity="0.6"/>
<path fill-rule="evenodd" clip-rule="evenodd" d="M30.0833 36C30.0833 32.7325 32.7325 30.0833 36 30.0833C39.2663 30.0874 41.9126 32.7337 41.9167 36C41.9167 39.2675 39.2675 41.9167 36 41.9167C32.7325 41.9167 30.0833 39.2675 30.0833 36ZM32.45 36C32.45 37.9605 34.0395 39.55 36 39.55C37.9605 39.55 39.55 37.9605 39.55 36C39.55 34.0395 37.9605 32.45 36 32.45C34.0395 32.45 32.45 34.0395 32.45 36Z" fill="url(#paint9_linear)" fill-opacity="0.6"/>
<path fill-rule="evenodd" clip-rule="evenodd" d="M45.5354 39.9487L48.0286 39.5333C48.5989 39.4379 49.0167 38.9445 49.0167 38.3667V33.6333C49.0167 33.0555 48.5989 32.5621 48.0286 32.4668L45.5343 32.0513L47.0048 29.9944C47.3416 29.5234 47.2879 28.878 46.8782 28.4695L43.5322 25.1229C43.1231 24.7133 42.4777 24.6595 42.0068 24.9964L39.9498 26.4646L39.5344 23.9714C39.4391 23.4011 38.945 22.9828 38.3667 22.9833H33.6333C33.0555 22.9833 32.5621 23.4011 32.4668 23.9714L32.0513 26.4657L29.9944 24.9952C29.5234 24.6584 28.878 24.7121 28.4695 25.1218L25.1229 28.4678C24.7133 28.8769 24.6595 29.5223 24.9964 29.9932L26.4646 32.0502L23.9714 32.4656C23.4011 32.5609 22.9828 33.055 22.9833 33.6333V38.3667C22.9833 38.9445 23.4011 39.4379 23.9714 39.5333L26.4657 39.9487L24.9952 42.0057C24.6584 42.4766 24.7121 43.122 25.1218 43.5305L28.4678 46.8771C28.8769 47.2867 29.5223 47.3405 29.9932 47.0036L32.0502 45.5354L32.4656 48.0286C32.5609 48.5989 33.055 49.0173 33.6333 49.0167H38.3667C38.9445 49.0167 39.4379 48.5989 39.5332 48.0286L39.9487 45.5343L42.0056 47.0048C42.4766 47.3416 43.122 47.2879 43.5305 46.8782L46.8771 43.5322C47.2867 43.1231 47.3405 42.4777 47.0036 42.0068L45.5354 39.9487ZM43.609 41.325L44.4954 42.5661L42.5661 44.4954L41.325 43.6091C40.6605 43.1341 39.7979 43.0359 39.0433 43.349C38.2887 43.6616 37.749 44.3417 37.6155 45.1472L37.3642 46.65H34.6358L34.3845 45.146C34.251 44.3405 33.7113 43.6605 32.9567 43.3479C32.2021 43.0347 31.3395 43.1329 30.675 43.6079L29.4339 44.4942L27.5046 42.565L28.391 41.325C28.8659 40.6605 28.9641 39.7979 28.651 39.0433C28.3384 38.2887 27.6583 37.749 26.8529 37.6155L25.35 37.3642V34.6358L26.854 34.3845C27.6595 34.251 28.3395 33.7113 28.6521 32.9567C28.9653 32.2021 28.8671 31.3395 28.3921 30.675L27.5058 29.4339L29.435 27.5046L30.6762 28.391C31.3412 28.8659 32.2033 28.9641 32.9579 28.651C33.7125 28.3384 34.2522 27.6583 34.3862 26.8529L34.6358 25.35H37.3642L37.6155 26.854C37.749 27.6595 38.2887 28.3395 39.0433 28.6521C39.7979 28.9653 40.6605 28.8671 41.325 28.3921L42.5661 27.5058L44.4954 29.435L43.609 30.675C43.1341 31.3395 43.0359 32.2021 43.349 32.9567C43.6616 33.7113 44.3417 34.251 45.1471 34.3845L46.65 34.6358V37.3642L45.146 37.6155C44.3405 37.749 43.6605 38.2887 43.3479 39.0433C43.0347 39.7979 43.1329 40.6605 43.6079 41.325H43.609Z" fill="url(#paint10_linear)" fill-opacity="0.6"/>
<path d="M13.5167 31.2667V40.7333H11.15V31.2667H13.5167Z" fill="url(#paint11_linear)" fill-opacity="0.6"/>
<path d="M45.4667 58.4833H26.5333V60.85H45.4667V58.4833Z" fill="url(#paint12_linear)" fill-opacity="0.6"/>
<path d="M60.85 31.2667V40.7333H58.4833V31.2667H60.85Z" fill="url(#paint13_linear)" fill-opacity="0.6"/>
<path d="M45.4667 11.15H26.5333V13.5167H45.4667V11.15Z" fill="url(#paint14_linear)" fill-opacity="0.6"/>
<defs>
<linearGradient id="paint0_linear" x1="71.5" y1="0.500006" x2="-9.45058" y2="14.6753" gradientUnits="userSpaceOnUse">
<stop stop-color="#5CD384"/>
<stop offset="1" stop-color="#326BD2"/>
</linearGradient>
<linearGradient id="paint1_linear" x1="71.5" y1="0.500006" x2="-9.45058" y2="14.6753" gradientUnits="userSpaceOnUse">
<stop stop-color="#5CD384"/>
<stop offset="1" stop-color="#326BD2"/>
</linearGradient>
<linearGradient id="paint2_linear" x1="71.5" y1="0.500006" x2="-9.45058" y2="14.6753" gradientUnits="userSpaceOnUse">
<stop stop-color="#5CD384"/>
<stop offset="1" stop-color="#326BD2"/>
</linearGradient>
<linearGradient id="paint3_linear" x1="71.5" y1="0.500006" x2="-9.45058" y2="14.6753" gradientUnits="userSpaceOnUse">
<stop stop-color="#5CD384"/>
<stop offset="1" stop-color="#326BD2"/>
</linearGradient>
<linearGradient id="paint4_linear" x1="71.5" y1="0.500006" x2="-9.45058" y2="14.6753" gradientUnits="userSpaceOnUse">
<stop stop-color="#5CD384"/>
<stop offset="1" stop-color="#326BD2"/>
</linearGradient>
<linearGradient id="paint5_linear" x1="71.5" y1="0.500006" x2="-9.45058" y2="14.6753" gradientUnits="userSpaceOnUse">
<stop stop-color="#5CD384"/>
<stop offset="1" stop-color="#326BD2"/>
</linearGradient>
<linearGradient id="paint6_linear" x1="71.5" y1="0.500006" x2="-9.45058" y2="14.6753" gradientUnits="userSpaceOnUse">
<stop stop-color="#5CD384"/>
<stop offset="1" stop-color="#326BD2"/>
</linearGradient>
<linearGradient id="paint7_linear" x1="71.5" y1="0.500006" x2="-9.45058" y2="14.6753" gradientUnits="userSpaceOnUse">
<stop stop-color="#5CD384"/>
<stop offset="1" stop-color="#326BD2"/>
</linearGradient>
<linearGradient id="paint8_linear" x1="71.5" y1="0.500006" x2="-9.45058" y2="14.6753" gradientUnits="userSpaceOnUse">
<stop stop-color="#5CD384"/>
<stop offset="1" stop-color="#326BD2"/>
</linearGradient>
<linearGradient id="paint9_linear" x1="71.5" y1="0.500006" x2="-9.45058" y2="14.6753" gradientUnits="userSpaceOnUse">
<stop stop-color="#5CD384"/>
<stop offset="1" stop-color="#326BD2"/>
</linearGradient>
<linearGradient id="paint10_linear" x1="71.5" y1="0.500006" x2="-9.45058" y2="14.6753" gradientUnits="userSpaceOnUse">
<stop stop-color="#5CD384"/>
<stop offset="1" stop-color="#326BD2"/>
</linearGradient>
<linearGradient id="paint11_linear" x1="71.5" y1="0.500006" x2="-9.45058" y2="14.6753" gradientUnits="userSpaceOnUse">
<stop stop-color="#5CD384"/>
<stop offset="1" stop-color="#326BD2"/>
</linearGradient>
<linearGradient id="paint12_linear" x1="71.5" y1="0.500006" x2="-9.45058" y2="14.6753" gradientUnits="userSpaceOnUse">
<stop stop-color="#5CD384"/>
<stop offset="1" stop-color="#326BD2"/>
</linearGradient>
<linearGradient id="paint13_linear" x1="71.5" y1="0.500006" x2="-9.45058" y2="14.6753" gradientUnits="userSpaceOnUse">
<stop stop-color="#5CD384"/>
<stop offset="1" stop-color="#326BD2"/>
</linearGradient>
<linearGradient id="paint14_linear" x1="71.5" y1="0.500006" x2="-9.45058" y2="14.6753" gradientUnits="userSpaceOnUse">
<stop stop-color="#5CD384"/>
<stop offset="1" stop-color="#326BD2"/>
</linearGradient>
</defs>
</svg>
