<svg width="76" height="71" viewBox="0 0 76 71" fill="none" xmlns="http://www.w3.org/2000/svg">
<path fill-rule="evenodd" clip-rule="evenodd" d="M56.8717 57.3616L53.903 51.4241C53.7025 51.023 53.2925 50.7695 52.8438 50.7695H49.5751V47.2008H55.8126C56.4667 47.2008 56.997 46.6705 56.997 46.0164C56.997 45.3623 56.4667 44.832 55.8126 44.832H49.5751V41.2633H52.8438C53.2925 41.2633 53.7025 41.0098 53.9031 40.6086L56.8719 34.6711C57.1644 34.086 56.9273 33.3745 56.3422 33.082C55.7571 32.7894 55.0457 33.0265 54.7532 33.6116L52.1119 38.8945H49.4079L49.337 38.6948C48.9193 37.517 47.9839 36.5816 46.8061 36.1638L46.6063 36.093V35.6258C46.6063 32.2691 44.6989 29.4035 41.9517 27.9801L41.6543 27.826L44.9231 22.9234C45.2859 22.3792 45.1389 21.6437 44.5947 21.2809C44.0505 20.9181 43.3151 21.0651 42.9522 21.6093L39.2822 27.1137L39.0979 27.0903C38.3707 26.9982 37.6293 26.9982 36.9024 27.0903L36.7181 27.1137L33.0481 21.6093C32.6854 21.0651 31.9499 20.918 31.4057 21.2809C30.8614 21.6437 30.7144 22.379 31.0772 22.9234L34.3457 27.8255L34.0474 27.9793C31.2352 29.4302 29.3938 32.3502 29.3938 35.6258V36.093L29.1941 36.1638C28.0163 36.5816 27.0809 37.517 26.6632 38.6948L26.5923 38.8945H23.8883L21.2469 33.6117C20.9545 33.0269 20.2431 32.7897 19.6577 33.0821C19.0727 33.3747 18.8356 34.0861 19.1282 34.6712L22.0969 40.6087C22.2977 41.0099 22.7078 41.2633 23.1563 41.2633H26.4251V44.832H20.1876C19.5335 44.832 19.0032 45.3623 19.0032 46.0164C19.0032 46.6705 19.5335 47.2008 20.1876 47.2008H26.4251V50.7695H23.1563C22.7077 50.7695 22.2977 51.023 22.0971 51.4243L19.1283 57.3618C18.8357 57.9469 19.0729 58.6583 19.6579 58.9509C20.2439 59.2438 20.9549 59.0052 21.2471 58.4212L23.8883 53.1383H26.7331L26.7913 53.3633C28.0795 58.3504 32.6173 62.0445 37.9999 62.0445C43.3826 62.0445 47.9204 58.3504 49.2086 53.3633L49.2668 53.1383H52.1116L54.753 58.4211C55.0456 59.0063 55.7571 59.2432 56.3421 58.9507C56.9272 58.6582 57.1643 57.9467 56.8717 57.3616ZM36.8157 59.6046L36.4659 59.5456C32.1176 58.8126 28.7938 55.0238 28.7938 50.4695V40.0789C28.7938 39.0947 29.5941 38.2945 30.5782 38.2945H36.8157V59.6046ZM31.7626 35.9258V35.6258C31.7626 32.7676 33.6957 30.2807 36.4642 29.579C37.4615 29.3258 38.5373 29.3255 39.5372 29.5793C42.1909 30.2503 44.2376 32.6649 44.2376 35.6258V35.9258H31.7626ZM39.5343 59.5456L39.1845 59.6046V38.2945H45.422C46.4061 38.2945 47.2063 39.0947 47.2063 40.0789V50.4695C47.2063 55.0238 43.8826 58.8126 39.5343 59.5456Z" fill="url(#paint0_linear)" fill-opacity="0.6"/>
<path d="M11.4001 6.17576H8.55005V9.02576H11.4001V6.17576Z" fill="url(#paint1_linear)" fill-opacity="0.6"/>
<path d="M15.2 6.17576H18.05V9.02576H15.2V6.17576Z" fill="url(#paint2_linear)" fill-opacity="0.6"/>
<path d="M24.7001 6.17576H21.8501V9.02576H24.7001V6.17576Z" fill="url(#paint3_linear)" fill-opacity="0.6"/>
<path d="M51.3001 6.17576H67.4501V9.02576H51.3001V6.17576Z" fill="url(#paint4_linear)" fill-opacity="0.6"/>
<path fill-rule="evenodd" clip-rule="evenodd" d="M71.5469 0.300781H4.45317C2.16341 0.300781 0.300049 2.16414 0.300049 4.45391V66.7977C0.300049 69.0874 2.16341 70.9508 4.45317 70.9508H71.5469C73.8367 70.9508 75.7 69.0874 75.7 66.7977V4.45391C75.7 2.16414 73.8367 0.300781 71.5469 0.300781ZM2.6688 14.5445H73.3313V66.7977C73.3313 67.7818 72.5311 68.582 71.5469 68.582H4.45317C3.469 68.582 2.6688 67.7818 2.6688 66.7977V14.5445ZM73.3313 12.1758H2.6688V4.45391C2.6688 3.46974 3.469 2.66953 4.45317 2.66953H71.5469C72.5311 2.66953 73.3313 3.46974 73.3313 4.45391V12.1758Z" fill="url(#paint5_linear)" fill-opacity="0.6"/>
<defs>
<linearGradient id="paint0_linear" x1="75.7" y1="0.300787" x2="-9.91318" y2="16.3005" gradientUnits="userSpaceOnUse">
<stop stop-color="#5CD384"/>
<stop offset="1" stop-color="#326BD2"/>
</linearGradient>
<linearGradient id="paint1_linear" x1="75.7" y1="0.300787" x2="-9.91318" y2="16.3005" gradientUnits="userSpaceOnUse">
<stop stop-color="#5CD384"/>
<stop offset="1" stop-color="#326BD2"/>
</linearGradient>
<linearGradient id="paint2_linear" x1="75.7" y1="0.300787" x2="-9.91318" y2="16.3005" gradientUnits="userSpaceOnUse">
<stop stop-color="#5CD384"/>
<stop offset="1" stop-color="#326BD2"/>
</linearGradient>
<linearGradient id="paint3_linear" x1="75.7" y1="0.300787" x2="-9.91318" y2="16.3005" gradientUnits="userSpaceOnUse">
<stop stop-color="#5CD384"/>
<stop offset="1" stop-color="#326BD2"/>
</linearGradient>
<linearGradient id="paint4_linear" x1="75.7" y1="0.300787" x2="-9.91318" y2="16.3005" gradientUnits="userSpaceOnUse">
<stop stop-color="#5CD384"/>
<stop offset="1" stop-color="#326BD2"/>
</linearGradient>
<linearGradient id="paint5_linear" x1="75.7" y1="0.300787" x2="-9.91318" y2="16.3005" gradientUnits="userSpaceOnUse">
<stop stop-color="#5CD384"/>
<stop offset="1" stop-color="#326BD2"/>
</linearGradient>
</defs>
</svg>
