<svg width="80" height="80" viewBox="0 0 80 80" fill="none" xmlns="http://www.w3.org/2000/svg">
<path d="M16 56V31L18.6667 31L18.6667 56H16Z" fill="url(#paint0_linear)" fill-opacity="0.6"/>
<path d="M23 45.3334H39V48H23V45.3334Z" fill="url(#paint1_linear)" fill-opacity="0.6"/>
<path d="M59 45.3334H47V48H59V45.3334Z" fill="url(#paint2_linear)" fill-opacity="0.6"/>
<path d="M28 49.3334H30.6667V52H28V49.3334Z" fill="url(#paint3_linear)" fill-opacity="0.6"/>
<path d="M49.3333 49.3334H33.3333V52H49.3333V49.3334Z" fill="url(#paint4_linear)" fill-opacity="0.6"/>
<path d="M52 49.3334H57.3333V52H52V49.3334Z" fill="url(#paint5_linear)" fill-opacity="0.6"/>
<path d="M31 53.3334H23V56H31V53.3334Z" fill="url(#paint6_linear)" fill-opacity="0.6"/>
<path d="M33.3333 53.3334H36V56H33.3333V53.3334Z" fill="url(#paint7_linear)" fill-opacity="0.6"/>
<path d="M44.3334 45.3334H41.6667V48H44.3334V45.3334Z" fill="url(#paint8_linear)" fill-opacity="0.6"/>
<path d="M27.099 31.7921L29 33.0965L25.9703 36.7921L29 40.4878L27.099 41.7921L23 36.7921L27.099 31.7921Z" fill="url(#paint9_linear)" fill-opacity="0.6"/>
<path d="M37.901 31.7921L36 33.0965L39.0297 36.7921L36 40.4878L37.901 41.7921L42 36.7921L37.901 31.7921Z" fill="url(#paint10_linear)" fill-opacity="0.6"/>
<path d="M29.466 41.0713L32.4846 31L34.6907 31.6612L31.6721 41.7325L29.466 41.0713Z" fill="url(#paint11_linear)" fill-opacity="0.6"/>
<path d="M18.3333 20H15.3333V23H18.3333V20Z" fill="url(#paint12_linear)" fill-opacity="0.6"/>
<path d="M24.3333 20H21.3333V23H24.3333V20Z" fill="url(#paint13_linear)" fill-opacity="0.6"/>
<path d="M27.3333 20H30.3333V23H27.3333V20Z" fill="url(#paint14_linear)" fill-opacity="0.6"/>
<path fill-rule="evenodd" clip-rule="evenodd" d="M70.6667 10.6667H78.6667C79.0203 10.6667 79.3594 10.5262 79.6095 10.2761C79.8595 10.0261 80 9.68696 80 9.33333V1.33333C80 0.979711 79.8595 0.640573 79.6095 0.390524C79.3594 0.140476 79.0203 0 78.6667 0H70.6667C70.313 0 69.9739 0.140476 69.7239 0.390524C69.4738 0.640573 69.3333 0.979711 69.3333 1.33333V4H62.6667C61.6058 4 60.5884 4.42143 59.8382 5.17157C59.0881 5.92172 58.6667 6.93913 58.6667 8V16H41.3333V10.6667H44C44.3536 10.6667 44.6928 10.5262 44.9428 10.2761C45.1929 10.0261 45.3333 9.68696 45.3333 9.33333V1.33333C45.3333 0.979711 45.1929 0.640573 44.9428 0.390524C44.6928 0.140476 44.3536 0 44 0H36C35.6464 0 35.3072 0.140476 35.0572 0.390524C34.8071 0.640573 34.6667 0.979711 34.6667 1.33333V9.33333C34.6667 9.68696 34.8071 10.0261 35.0572 10.2761C35.3072 10.5262 35.6464 10.6667 36 10.6667H38.6667V16H21.3333V8C21.3333 6.93913 20.9119 5.92172 20.1618 5.17157C19.4116 4.42143 18.3942 4 17.3333 4H10.6667V1.33333C10.6667 0.979711 10.5262 0.640573 10.2761 0.390524C10.0261 0.140476 9.68696 0 9.33333 0H1.33333C0.979711 0 0.640573 0.140476 0.390524 0.390524C0.140476 0.640573 0 0.979711 0 1.33333V9.33333C0 9.68696 0.140476 10.0261 0.390524 10.2761C0.640573 10.5262 0.979711 10.6667 1.33333 10.6667H9.33333C9.68696 10.6667 10.0261 10.5262 10.2761 10.2761C10.5262 10.0261 10.6667 9.68696 10.6667 9.33333V6.66667H17.3333C17.687 6.66667 18.0261 6.80714 18.2761 7.05719C18.5262 7.30724 18.6667 7.64638 18.6667 8V16H12C10.9391 16 9.92172 16.4214 9.17157 17.1716C8.42143 17.9217 8 18.9391 8 20V60C8 61.0609 8.42143 62.0783 9.17157 62.8284C9.92172 63.5786 10.9391 64 12 64H18.6667V72C18.6667 72.3536 18.5262 72.6928 18.2761 72.9428C18.0261 73.1929 17.687 73.3333 17.3333 73.3333H10.6667V70.6667C10.6667 70.313 10.5262 69.9739 10.2761 69.7239C10.0261 69.4738 9.68696 69.3333 9.33333 69.3333H1.33333C0.979711 69.3333 0.640573 69.4738 0.390524 69.7239C0.140476 69.9739 0 70.313 0 70.6667V78.6667C0 79.0203 0.140476 79.3594 0.390524 79.6095C0.640573 79.8595 0.979711 80 1.33333 80H9.33333C9.68696 80 10.0261 79.8595 10.2761 79.6095C10.5262 79.3594 10.6667 79.0203 10.6667 78.6667V76H17.3333C18.3942 76 19.4116 75.5786 20.1618 74.8284C20.9119 74.0783 21.3333 73.0609 21.3333 72V64H38.6667V69.3333H36C35.6464 69.3333 35.3072 69.4738 35.0572 69.7239C34.8071 69.9739 34.6667 70.313 34.6667 70.6667V78.6667C34.6667 79.0203 34.8071 79.3594 35.0572 79.6095C35.3072 79.8595 35.6464 80 36 80H44C44.3536 80 44.6928 79.8595 44.9428 79.6095C45.1929 79.3594 45.3333 79.0203 45.3333 78.6667V70.6667C45.3333 70.313 45.1929 69.9739 44.9428 69.7239C44.6928 69.4738 44.3536 69.3333 44 69.3333H41.3333V64H58.6667V72C58.6667 73.0609 59.0881 74.0783 59.8382 74.8284C60.5884 75.5786 61.6058 76 62.6667 76H69.3333V78.6667C69.3333 79.0203 69.4738 79.3594 69.7239 79.6095C69.9739 79.8595 70.313 80 70.6667 80H78.6667C79.0203 80 79.3594 79.8595 79.6095 79.6095C79.8595 79.3594 80 79.0203 80 78.6667V70.6667C80 70.313 79.8595 69.9739 79.6095 69.7239C79.3594 69.4738 79.0203 69.3333 78.6667 69.3333H70.6667C70.313 69.3333 69.9739 69.4738 69.7239 69.7239C69.4738 69.9739 69.3333 70.313 69.3333 70.6667V73.3333H62.6667C62.313 73.3333 61.9739 73.1929 61.7239 72.9428C61.4738 72.6928 61.3333 72.3536 61.3333 72V64H68C69.0609 64 70.0783 63.5786 70.8284 62.8284C71.5786 62.0783 72 61.0609 72 60V20C72 18.9391 71.5786 17.9217 70.8284 17.1716C70.0783 16.4214 69.0609 16 68 16H61.3333V8C61.3333 7.64638 61.4738 7.30724 61.7239 7.05719C61.9739 6.80714 62.313 6.66667 62.6667 6.66667H69.3333V9.33333C69.3333 9.68696 69.4738 10.0261 69.7239 10.2761C69.9739 10.5262 70.313 10.6667 70.6667 10.6667ZM37.3333 2.66667H42.6667V8H37.3333V2.66667ZM8 8H2.66667V2.66667H8V8ZM8 77.3333H2.66667V72H8V77.3333ZM42.6667 77.3333H37.3333V72H42.6667V77.3333ZM72 72H77.3333V77.3333H72V72ZM68 61.3333H12C11.6464 61.3333 11.3072 61.1929 11.0572 60.9428C10.8071 60.6928 10.6667 60.3536 10.6667 60V26.6667H69.3333V60C69.3333 60.3536 69.1929 60.6928 68.9428 60.9428C68.6928 61.1929 68.3536 61.3333 68 61.3333ZM69.3333 20V24H10.6667V20C10.6667 19.6464 10.8071 19.3072 11.0572 19.0572C11.3072 18.8071 11.6464 18.6667 12 18.6667H68C68.3536 18.6667 68.6928 18.8071 68.9428 19.0572C69.1929 19.3072 69.3333 19.6464 69.3333 20ZM72 2.66667H77.3333V8H72V2.66667Z" fill="url(#paint15_linear)" fill-opacity="0.6"/>
<defs>
<linearGradient id="paint0_linear" x1="80" y1="6.80768e-06" x2="-11.2119" y2="15.9721" gradientUnits="userSpaceOnUse">
<stop stop-color="#5CD384"/>
<stop offset="1" stop-color="#326BD2"/>
</linearGradient>
<linearGradient id="paint1_linear" x1="80" y1="6.80768e-06" x2="-11.2119" y2="15.9721" gradientUnits="userSpaceOnUse">
<stop stop-color="#5CD384"/>
<stop offset="1" stop-color="#326BD2"/>
</linearGradient>
<linearGradient id="paint2_linear" x1="80" y1="6.80768e-06" x2="-11.2119" y2="15.9721" gradientUnits="userSpaceOnUse">
<stop stop-color="#5CD384"/>
<stop offset="1" stop-color="#326BD2"/>
</linearGradient>
<linearGradient id="paint3_linear" x1="80" y1="6.80768e-06" x2="-11.2119" y2="15.9721" gradientUnits="userSpaceOnUse">
<stop stop-color="#5CD384"/>
<stop offset="1" stop-color="#326BD2"/>
</linearGradient>
<linearGradient id="paint4_linear" x1="80" y1="6.80768e-06" x2="-11.2119" y2="15.9721" gradientUnits="userSpaceOnUse">
<stop stop-color="#5CD384"/>
<stop offset="1" stop-color="#326BD2"/>
</linearGradient>
<linearGradient id="paint5_linear" x1="80" y1="6.80768e-06" x2="-11.2119" y2="15.9721" gradientUnits="userSpaceOnUse">
<stop stop-color="#5CD384"/>
<stop offset="1" stop-color="#326BD2"/>
</linearGradient>
<linearGradient id="paint6_linear" x1="80" y1="6.80768e-06" x2="-11.2119" y2="15.9721" gradientUnits="userSpaceOnUse">
<stop stop-color="#5CD384"/>
<stop offset="1" stop-color="#326BD2"/>
</linearGradient>
<linearGradient id="paint7_linear" x1="80" y1="6.80768e-06" x2="-11.2119" y2="15.9721" gradientUnits="userSpaceOnUse">
<stop stop-color="#5CD384"/>
<stop offset="1" stop-color="#326BD2"/>
</linearGradient>
<linearGradient id="paint8_linear" x1="80" y1="6.80768e-06" x2="-11.2119" y2="15.9721" gradientUnits="userSpaceOnUse">
<stop stop-color="#5CD384"/>
<stop offset="1" stop-color="#326BD2"/>
</linearGradient>
<linearGradient id="paint9_linear" x1="80" y1="6.80768e-06" x2="-11.2119" y2="15.9721" gradientUnits="userSpaceOnUse">
<stop stop-color="#5CD384"/>
<stop offset="1" stop-color="#326BD2"/>
</linearGradient>
<linearGradient id="paint10_linear" x1="80" y1="6.80768e-06" x2="-11.2119" y2="15.9721" gradientUnits="userSpaceOnUse">
<stop stop-color="#5CD384"/>
<stop offset="1" stop-color="#326BD2"/>
</linearGradient>
<linearGradient id="paint11_linear" x1="80" y1="6.80768e-06" x2="-11.2119" y2="15.9721" gradientUnits="userSpaceOnUse">
<stop stop-color="#5CD384"/>
<stop offset="1" stop-color="#326BD2"/>
</linearGradient>
<linearGradient id="paint12_linear" x1="80" y1="6.80768e-06" x2="-11.2119" y2="15.9721" gradientUnits="userSpaceOnUse">
<stop stop-color="#5CD384"/>
<stop offset="1" stop-color="#326BD2"/>
</linearGradient>
<linearGradient id="paint13_linear" x1="80" y1="6.80768e-06" x2="-11.2119" y2="15.9721" gradientUnits="userSpaceOnUse">
<stop stop-color="#5CD384"/>
<stop offset="1" stop-color="#326BD2"/>
</linearGradient>
<linearGradient id="paint14_linear" x1="80" y1="6.80768e-06" x2="-11.2119" y2="15.9721" gradientUnits="userSpaceOnUse">
<stop stop-color="#5CD384"/>
<stop offset="1" stop-color="#326BD2"/>
</linearGradient>
<linearGradient id="paint15_linear" x1="80" y1="6.80768e-06" x2="-11.2119" y2="15.9721" gradientUnits="userSpaceOnUse">
<stop stop-color="#5CD384"/>
<stop offset="1" stop-color="#326BD2"/>
</linearGradient>
</defs>
</svg>
