<svg width="62" height="80" viewBox="0 0 62 80" fill="none" xmlns="http://www.w3.org/2000/svg">
<path d="M7.00005 6.00078H10V9.00078H7.00005V6.00078Z" fill="url(#paint0_linear)" fill-opacity="0.6"/>
<path d="M10 13.0008H7.00005V16.0008H10V13.0008Z" fill="url(#paint1_linear)" fill-opacity="0.6"/>
<path d="M14 13.0008H17V16.0008H14V13.0008Z" fill="url(#paint2_linear)" fill-opacity="0.6"/>
<path d="M24 13.0008H21V16.0008H24V13.0008Z" fill="url(#paint3_linear)" fill-opacity="0.6"/>
<path fill-rule="evenodd" clip-rule="evenodd" d="M50.5313 15.6258C53.1161 15.6258 55.2188 13.5231 55.2188 10.9383C55.2188 8.35344 53.1161 6.25078 50.5313 6.25078C47.9465 6.25078 45.8438 8.35344 45.8438 10.9383C45.8438 13.5231 47.9465 15.6258 50.5313 15.6258ZM50.5313 9.37578C51.3931 9.37578 52.0938 10.0765 52.0938 10.9383C52.0938 11.8001 51.3931 12.5008 50.5313 12.5008C49.6695 12.5008 48.9688 11.8001 48.9688 10.9383C48.9688 10.0765 49.6695 9.37578 50.5313 9.37578Z" fill="url(#paint4_linear)" fill-opacity="0.6"/>
<path fill-rule="evenodd" clip-rule="evenodd" d="M50.5313 58.1258C47.9465 58.1258 45.8438 60.2284 45.8438 62.8133C45.8438 65.3981 47.9465 67.5008 50.5313 67.5008C53.1161 67.5008 55.2188 65.3981 55.2188 62.8133C55.2188 60.2284 53.1161 58.1258 50.5313 58.1258ZM50.5313 64.3758C49.6695 64.3758 48.9688 63.6751 48.9688 62.8133C48.9688 61.9515 49.6695 61.2508 50.5313 61.2508C51.3931 61.2508 52.0938 61.9515 52.0938 62.8133C52.0938 63.6751 51.3931 64.3758 50.5313 64.3758Z" fill="url(#paint5_linear)" fill-opacity="0.6"/>
<path d="M10 58.0008H7.00005V61.0008H10V58.0008Z" fill="url(#paint6_linear)" fill-opacity="0.6"/>
<path d="M7.00005 65.0008H10V68.0008H7.00005V65.0008Z" fill="url(#paint7_linear)" fill-opacity="0.6"/>
<path d="M24 65.0008H14V68.0008H24V65.0008Z" fill="url(#paint8_linear)" fill-opacity="0.6"/>
<path d="M14 58.0008H17V61.0008H14V58.0008Z" fill="url(#paint9_linear)" fill-opacity="0.6"/>
<path d="M24 58.0008H21V61.0008H24V58.0008Z" fill="url(#paint10_linear)" fill-opacity="0.6"/>
<path d="M7.00005 32.0008H10V35.0008H7.00005V32.0008Z" fill="url(#paint11_linear)" fill-opacity="0.6"/>
<path fill-rule="evenodd" clip-rule="evenodd" d="M50.5313 32.1883C47.9465 32.1883 45.8438 34.2909 45.8438 36.8758C45.8438 39.4606 47.9465 41.5633 50.5313 41.5633C53.1161 41.5633 55.2188 39.4606 55.2188 36.8758C55.2188 34.2909 53.1161 32.1883 50.5313 32.1883ZM50.5313 38.4383C49.6695 38.4383 48.9688 37.7376 48.9688 36.8758C48.9688 36.014 49.6695 35.3133 50.5313 35.3133C51.3931 35.3133 52.0938 36.014 52.0938 36.8758C52.0938 37.7376 51.3931 38.4383 50.5313 38.4383Z" fill="url(#paint12_linear)" fill-opacity="0.6"/>
<path d="M10 39.0008H7.00005V42.0008H10V39.0008Z" fill="url(#paint13_linear)" fill-opacity="0.6"/>
<path d="M14 32.0008H17V35.0008H14V32.0008Z" fill="url(#paint14_linear)" fill-opacity="0.6"/>
<path d="M24 39.0008H21V42.0008H24V39.0008Z" fill="url(#paint15_linear)" fill-opacity="0.6"/>
<path fill-rule="evenodd" clip-rule="evenodd" d="M6.30005 21.5758V26.2383H2.0938C1.39645 26.2383 0.831299 26.8034 0.831299 27.5008V46.2508C0.831299 46.9481 1.39645 47.5133 2.0938 47.5133H6.30005V52.1758H2.0938C1.39645 52.1758 0.831299 52.7409 0.831299 53.4383V78.4383C0.831299 79.1356 1.39645 79.7008 2.0938 79.7008H11.4688C12.1662 79.7008 12.7313 79.1356 12.7313 78.4383V73.4508H49.2688V78.4383C49.2688 79.1356 49.8339 79.7008 50.5313 79.7008H59.9063C60.6037 79.7008 61.1688 79.1356 61.1688 78.4383V53.4383C61.1688 52.7409 60.6037 52.1758 59.9063 52.1758H55.7001V47.5133H59.9063C60.6037 47.5133 61.1688 46.9481 61.1688 46.2508V27.5008C61.1688 26.8034 60.6037 26.2383 59.9063 26.2383H55.7001V21.5758H59.9063C60.6037 21.5758 61.1688 21.0106 61.1688 20.3133V1.56328C61.1688 0.865929 60.6037 0.300781 59.9063 0.300781H2.0938C1.39645 0.300781 0.831299 0.865929 0.831299 1.56328V20.3133C0.831299 21.0106 1.39645 21.5758 2.0938 21.5758H6.30005ZM3.3563 2.82578H58.6438V19.0508H3.3563V2.82578ZM10.2063 77.1758H3.3563V73.4508H10.2063V77.1758ZM58.6438 77.1758H51.7938V73.4508H58.6438V77.1758ZM58.6438 70.9258H3.3563V54.7008H58.6438V70.9258ZM53.175 52.1758H8.82505V47.5133H53.175V52.1758ZM58.6438 44.9883H3.3563V28.7633H58.6438V44.9883ZM53.175 26.2383H8.82505V21.5758H53.175V26.2383Z" fill="url(#paint16_linear)" fill-opacity="0.6"/>
<defs>
<linearGradient id="paint0_linear" x1="61.1688" y1="0.300788" x2="-8.50073" y2="9.57166" gradientUnits="userSpaceOnUse">
<stop stop-color="#5CD384"/>
<stop offset="1" stop-color="#326BD2"/>
</linearGradient>
<linearGradient id="paint1_linear" x1="61.1688" y1="0.300788" x2="-8.50073" y2="9.57166" gradientUnits="userSpaceOnUse">
<stop stop-color="#5CD384"/>
<stop offset="1" stop-color="#326BD2"/>
</linearGradient>
<linearGradient id="paint2_linear" x1="61.1688" y1="0.300788" x2="-8.50073" y2="9.57166" gradientUnits="userSpaceOnUse">
<stop stop-color="#5CD384"/>
<stop offset="1" stop-color="#326BD2"/>
</linearGradient>
<linearGradient id="paint3_linear" x1="61.1688" y1="0.300788" x2="-8.50073" y2="9.57166" gradientUnits="userSpaceOnUse">
<stop stop-color="#5CD384"/>
<stop offset="1" stop-color="#326BD2"/>
</linearGradient>
<linearGradient id="paint4_linear" x1="61.1688" y1="0.300788" x2="-8.50073" y2="9.57166" gradientUnits="userSpaceOnUse">
<stop stop-color="#5CD384"/>
<stop offset="1" stop-color="#326BD2"/>
</linearGradient>
<linearGradient id="paint5_linear" x1="61.1688" y1="0.300788" x2="-8.50073" y2="9.57166" gradientUnits="userSpaceOnUse">
<stop stop-color="#5CD384"/>
<stop offset="1" stop-color="#326BD2"/>
</linearGradient>
<linearGradient id="paint6_linear" x1="61.1688" y1="0.300788" x2="-8.50073" y2="9.57166" gradientUnits="userSpaceOnUse">
<stop stop-color="#5CD384"/>
<stop offset="1" stop-color="#326BD2"/>
</linearGradient>
<linearGradient id="paint7_linear" x1="61.1688" y1="0.300788" x2="-8.50073" y2="9.57166" gradientUnits="userSpaceOnUse">
<stop stop-color="#5CD384"/>
<stop offset="1" stop-color="#326BD2"/>
</linearGradient>
<linearGradient id="paint8_linear" x1="61.1688" y1="0.300788" x2="-8.50073" y2="9.57166" gradientUnits="userSpaceOnUse">
<stop stop-color="#5CD384"/>
<stop offset="1" stop-color="#326BD2"/>
</linearGradient>
<linearGradient id="paint9_linear" x1="61.1688" y1="0.300788" x2="-8.50073" y2="9.57166" gradientUnits="userSpaceOnUse">
<stop stop-color="#5CD384"/>
<stop offset="1" stop-color="#326BD2"/>
</linearGradient>
<linearGradient id="paint10_linear" x1="61.1688" y1="0.300788" x2="-8.50073" y2="9.57166" gradientUnits="userSpaceOnUse">
<stop stop-color="#5CD384"/>
<stop offset="1" stop-color="#326BD2"/>
</linearGradient>
<linearGradient id="paint11_linear" x1="61.1688" y1="0.300788" x2="-8.50073" y2="9.57166" gradientUnits="userSpaceOnUse">
<stop stop-color="#5CD384"/>
<stop offset="1" stop-color="#326BD2"/>
</linearGradient>
<linearGradient id="paint12_linear" x1="61.1688" y1="0.300788" x2="-8.50073" y2="9.57166" gradientUnits="userSpaceOnUse">
<stop stop-color="#5CD384"/>
<stop offset="1" stop-color="#326BD2"/>
</linearGradient>
<linearGradient id="paint13_linear" x1="61.1688" y1="0.300788" x2="-8.50073" y2="9.57166" gradientUnits="userSpaceOnUse">
<stop stop-color="#5CD384"/>
<stop offset="1" stop-color="#326BD2"/>
</linearGradient>
<linearGradient id="paint14_linear" x1="61.1688" y1="0.300788" x2="-8.50073" y2="9.57166" gradientUnits="userSpaceOnUse">
<stop stop-color="#5CD384"/>
<stop offset="1" stop-color="#326BD2"/>
</linearGradient>
<linearGradient id="paint15_linear" x1="61.1688" y1="0.300788" x2="-8.50073" y2="9.57166" gradientUnits="userSpaceOnUse">
<stop stop-color="#5CD384"/>
<stop offset="1" stop-color="#326BD2"/>
</linearGradient>
<linearGradient id="paint16_linear" x1="61.1688" y1="0.300788" x2="-8.50073" y2="9.57166" gradientUnits="userSpaceOnUse">
<stop stop-color="#5CD384"/>
<stop offset="1" stop-color="#326BD2"/>
</linearGradient>
</defs>
</svg>
