<svg width="60" height="80" viewBox="0 0 60 80" fill="none" xmlns="http://www.w3.org/2000/svg">
<path d="M37.7418 25.8064C37.7418 26.5191 37.1641 27.0968 36.4515 27.0968C35.7388 27.0968 35.1611 26.5191 35.1611 25.8064C35.1611 25.0938 35.7388 24.5161 36.4515 24.5161C37.1641 24.5161 37.7418 25.0938 37.7418 25.8064Z" fill="url(#paint0_linear)" fill-opacity="0.6"/>
<path d="M30 37.4193C32.1341 37.4193 33.8709 35.6825 33.8709 33.5483H36.4516C36.4516 37.1058 33.5574 40 30 40C26.4425 40 23.5483 37.1058 23.5483 33.5483H26.129C26.129 35.6825 27.8658 37.4193 30 37.4193Z" fill="url(#paint1_linear)" fill-opacity="0.6"/>
<path d="M23.8066 52.1289L25.8711 53.6773L22.5808 58.0644L25.8711 62.4515L23.8066 63.9999L19.355 58.0644L23.8066 52.1289Z" fill="url(#paint2_linear)" fill-opacity="0.6"/>
<path d="M36.1934 52.1289L34.1289 53.6773L37.4192 58.0644L34.1289 62.4515L36.1934 63.9999L40.645 58.0644L36.1934 52.1289Z" fill="url(#paint3_linear)" fill-opacity="0.6"/>
<path d="M26.1851 64.1469L30.0526 51.2431L32.5246 51.984L28.6571 64.8878L26.1851 64.1469Z" fill="url(#paint4_linear)" fill-opacity="0.6"/>
<path fill-rule="evenodd" clip-rule="evenodd" d="M53.5021 51.2065L50.6453 50.2542V45.1613C50.6453 43.0271 48.9086 41.2903 46.7744 41.2903H40.955C42.2286 39.7535 43.1382 37.9703 43.6647 36.0516C46.8608 35.6697 49.355 32.9742 49.355 29.6774V19.3548C49.355 8.68258 40.6724 0 30.0002 0C19.3279 0 10.6453 8.68258 10.6453 19.3548V29.6774C10.6453 32.9742 13.1395 35.6697 16.3344 36.0516C16.8621 37.9703 17.7705 39.7535 19.044 41.2903H13.226C11.0918 41.2903 9.35501 43.0271 9.35501 45.1613V50.2542L6.49953 51.2065C2.80404 52.4361 0.322754 55.88 0.322754 59.7729V80H59.6776V59.7729C59.6776 55.88 57.195 52.4361 53.5021 51.2065ZM44.1318 33.3303L44.1385 33.2436L44.1471 33.1364C44.1704 32.8451 44.1937 32.5537 44.1937 32.2581V26.0439C45.6918 26.5781 46.7744 27.9974 46.7744 29.6774C46.7744 31.3794 45.6621 32.8129 44.1318 33.3303ZM13.226 29.6774C13.226 27.9974 14.3086 26.5781 15.8066 26.0439V32.2581C15.8066 32.5537 15.83 32.8451 15.8533 33.1364C15.8585 33.201 15.8636 33.2656 15.8686 33.3303C14.3382 32.8129 13.226 31.3794 13.226 29.6774ZM15.8079 19.3548V23.3561C14.8492 23.5523 13.9808 23.9781 13.2273 24.5484V19.3548C13.226 10.1058 20.7511 2.58065 30.0002 2.58065C39.2492 2.58065 46.7744 10.1058 46.7744 19.3548V24.5497C45.9782 23.9471 45.0492 23.5213 44.026 23.3394C43.5886 19.7626 42.2311 16.3084 40.0647 13.4194L39.2247 12.2981L34.3382 16.64C29.8157 20.6606 24.3228 23.2735 18.3886 24.289V19.3548H15.8079ZM18.3873 32.2581V26.9019C19.715 26.6916 21.0286 26.4271 22.3111 26.0697C22.4363 26.6516 22.9292 27.0968 23.5486 27.0968C24.2608 27.0968 24.8389 26.5187 24.8389 25.8064C24.8389 25.6245 24.8002 25.4529 24.7318 25.2968C28.8724 23.8077 32.706 21.5419 36.0505 18.569L38.7989 16.1265C40.6208 19.0065 41.6131 22.3935 41.6131 25.8064V32.2581C41.6131 35.8116 40.0299 39.0735 37.2737 41.2903H22.7253C19.9718 39.0723 18.3873 35.8103 18.3873 32.2581ZM11.9357 45.1613C11.9357 44.449 12.515 43.871 13.226 43.871H46.7744C47.4866 43.871 48.0647 44.449 48.0647 45.1613V67.0968H45.484V46.4516H14.5163V67.0968H11.9357V45.1613ZM42.9034 49.0323V67.0968H17.0969V49.0323H42.9034ZM48.0647 69.6774C48.0647 71.1006 46.9073 72.2581 45.484 72.2581H14.5163C13.0931 72.2581 11.9357 71.1006 11.9357 69.6774H48.0647ZM2.9034 77.4193V59.7729C2.9034 56.9923 4.6763 54.5316 7.31501 53.6529L9.35501 52.9729V69.6774C9.35501 72.5239 11.6699 74.8387 14.5163 74.8387H20.9679C22.6479 74.8387 24.0673 75.9213 24.6015 77.4193H2.9034ZM32.7124 77.4193H27.2905C27.0944 76.4606 26.6686 75.5923 26.0982 74.8387H33.9047C33.3344 75.5923 32.9073 76.4606 32.7124 77.4193ZM57.097 77.4193H35.3989C35.9331 75.9213 37.3524 74.8387 39.0324 74.8387H45.484C48.3305 74.8387 50.6453 72.5239 50.6453 69.6774V52.9729L52.6853 53.6529C55.3241 54.5329 57.097 56.9923 57.097 59.7729V77.4193Z" fill="url(#paint5_linear)" fill-opacity="0.6"/>
<defs>
<linearGradient id="paint0_linear" x1="59.6776" y1="6.80768e-06" x2="-8.91311" y2="8.91133" gradientUnits="userSpaceOnUse">
<stop stop-color="#5CD384"/>
<stop offset="1" stop-color="#326BD2"/>
</linearGradient>
<linearGradient id="paint1_linear" x1="59.6776" y1="6.80768e-06" x2="-8.91311" y2="8.91133" gradientUnits="userSpaceOnUse">
<stop stop-color="#5CD384"/>
<stop offset="1" stop-color="#326BD2"/>
</linearGradient>
<linearGradient id="paint2_linear" x1="59.6776" y1="6.80768e-06" x2="-8.91311" y2="8.91133" gradientUnits="userSpaceOnUse">
<stop stop-color="#5CD384"/>
<stop offset="1" stop-color="#326BD2"/>
</linearGradient>
<linearGradient id="paint3_linear" x1="59.6776" y1="6.80768e-06" x2="-8.91311" y2="8.91133" gradientUnits="userSpaceOnUse">
<stop stop-color="#5CD384"/>
<stop offset="1" stop-color="#326BD2"/>
</linearGradient>
<linearGradient id="paint4_linear" x1="59.6776" y1="6.80768e-06" x2="-8.91311" y2="8.91133" gradientUnits="userSpaceOnUse">
<stop stop-color="#5CD384"/>
<stop offset="1" stop-color="#326BD2"/>
</linearGradient>
<linearGradient id="paint5_linear" x1="59.6776" y1="6.80768e-06" x2="-8.91311" y2="8.91133" gradientUnits="userSpaceOnUse">
<stop stop-color="#5CD384"/>
<stop offset="1" stop-color="#326BD2"/>
</linearGradient>
</defs>
</svg>
