<svg width="72" height="80" viewBox="0 0 72 80" fill="none" xmlns="http://www.w3.org/2000/svg">
<path d="M38.5641 73.1342H4.31665C3.69409 73.1342 3.1875 72.6276 3.1875 72.005V3.4729C3.1875 2.85034 3.69409 2.34375 4.31665 2.34375H54.3087C54.9313 2.34375 55.4379 2.85034 55.4379 3.4729V42.5146H57.7816V3.4729C57.7816 1.55762 56.2234 0 54.3087 0H4.31665C2.40198 0 0.84375 1.55762 0.84375 3.4729V72.005C0.84375 73.9197 2.40137 75.4779 4.31665 75.4779H38.5641V73.1342Z" fill="url(#paint0_linear)" fill-opacity="0.6"/>
<path d="M52.6316 54.8734V66.2189L61.4386 68.9711L62.1246 66.7758L54.9316 64.5279V54.8734H52.6316Z" fill="url(#paint1_linear)" fill-opacity="0.6"/>
<path fill-rule="evenodd" clip-rule="evenodd" d="M52.2622 45.9882C52.955 45.9021 53.6605 45.8575 54.3759 45.8575C63.7893 45.8575 71.4474 53.515 71.4474 62.9285C71.4474 72.3419 63.7893 80 54.3759 80C44.963 80 37.3049 72.3419 37.3049 62.9285C37.3049 59.0295 38.6196 55.4327 40.8279 52.5555C40.4482 52.1045 40.223 51.5228 40.223 50.8923V44.0143C40.223 42.5916 41.3809 41.4337 42.8036 41.4337H49.6816C51.1044 41.4337 52.2622 42.5916 52.2622 44.0143V45.9882ZM42.8036 43.7775C42.673 43.7775 42.5662 43.8837 42.5662 44.0143V50.6134C44.6017 48.6609 47.1188 47.207 49.9185 46.449V44.0143C49.9185 43.8837 49.8123 43.7775 49.6816 43.7775H42.8036ZM39.6481 62.9285C39.6481 71.0498 46.2551 77.6562 54.3759 77.6562C62.4972 77.6562 69.1036 71.0498 69.1036 62.9285C69.1036 54.8077 62.4972 48.2007 54.3759 48.2007C46.2551 48.2007 39.6481 54.8077 39.6481 62.9285Z" fill="url(#paint2_linear)" fill-opacity="0.6"/>
<path d="M49.3789 5.63416C50.9689 5.63416 52.2622 6.92749 52.2622 8.51746V19.4501C52.2622 21.04 50.9689 22.334 49.3789 22.334H9.24646C7.65649 22.334 6.36316 21.04 6.36316 19.4501V8.51746C6.36316 6.92749 7.65649 5.63416 9.24646 5.63416H15.3884V7.97791H9.24646C8.94861 7.97791 8.7063 8.2196 8.7063 8.51746V19.4501C8.7063 19.7479 8.94861 19.9902 9.24646 19.9902H49.3789C49.6768 19.9902 49.9191 19.7479 49.9191 19.4501V8.51746C49.9191 8.22021 49.6768 7.97791 49.3789 7.97791H20.0759V5.63416H49.3789Z" fill="url(#paint3_linear)" fill-opacity="0.6"/>
<path fill-rule="evenodd" clip-rule="evenodd" d="M8.94373 38.3258H15.8218C17.2451 38.3258 18.4023 37.1686 18.4023 35.7452V28.8672C18.4023 27.4445 17.2451 26.2866 15.8218 26.2866H8.94373C7.521 26.2866 6.36316 27.4445 6.36316 28.8672V35.7452C6.36316 37.1686 7.521 38.3258 8.94373 38.3258ZM8.7063 28.8672C8.7063 28.7366 8.81311 28.6304 8.94373 28.6304H15.8218C15.9524 28.6304 16.0586 28.7366 16.0586 28.8672V35.7452C16.0586 35.8759 15.9524 35.9821 15.8218 35.9821H8.94373C8.81311 35.9821 8.7063 35.8759 8.7063 35.7452V28.8672Z" fill="url(#paint4_linear)" fill-opacity="0.6"/>
<path fill-rule="evenodd" clip-rule="evenodd" d="M32.7517 26.2866C34.1744 26.2866 35.3323 27.4445 35.3323 28.8672V35.7452C35.3323 37.1686 34.1744 38.3258 32.7517 38.3258H25.8737C24.4509 38.3258 23.2931 37.1686 23.2931 35.7452V28.8672C23.2931 27.4445 24.4509 26.2866 25.8737 26.2866H32.7517ZM32.7517 35.9821C32.8823 35.9821 32.9891 35.8759 32.9891 35.7452V28.8672C32.9891 28.7366 32.8829 28.6304 32.7517 28.6304H25.8737C25.743 28.6304 25.6368 28.7366 25.6368 28.8672V35.7452C25.6368 35.8759 25.743 35.9821 25.8737 35.9821H32.7517Z" fill="url(#paint5_linear)" fill-opacity="0.6"/>
<path fill-rule="evenodd" clip-rule="evenodd" d="M42.8036 26.2866C41.3809 26.2866 40.223 27.4445 40.223 28.8672V35.7452C40.223 37.1686 41.3809 38.3258 42.8036 38.3258H49.6816C51.105 38.3258 52.2622 37.1686 52.2622 35.7452V28.8672C52.2622 27.4445 51.1044 26.2866 49.6816 26.2866H42.8036ZM49.9185 28.8672V35.7452C49.9185 35.8759 49.8123 35.9821 49.6816 35.9821H42.8036C42.673 35.9821 42.5668 35.8759 42.5668 35.7452V28.8672C42.5668 28.7366 42.673 28.6304 42.8036 28.6304H49.6816C49.8123 28.6304 49.9185 28.7366 49.9185 28.8672Z" fill="url(#paint6_linear)" fill-opacity="0.6"/>
<path fill-rule="evenodd" clip-rule="evenodd" d="M8.94373 53.4729C7.521 53.4729 6.36316 52.3157 6.36316 50.8923V44.0143C6.36316 42.5916 7.521 41.4337 8.94373 41.4337H15.8218C17.2451 41.4337 18.4023 42.5916 18.4023 44.0143V50.8923C18.4023 52.3157 17.2451 53.4729 15.8218 53.4729H8.94373ZM8.94373 43.7775C8.81311 43.7775 8.7063 43.8837 8.7063 44.0143V50.8923C8.7063 51.0229 8.81311 51.1292 8.94373 51.1292H15.8218C15.9524 51.1292 16.0586 51.0229 16.0586 50.8923V44.0143C16.0586 43.8837 15.9524 43.7775 15.8218 43.7775H8.94373Z" fill="url(#paint7_linear)" fill-opacity="0.6"/>
<path fill-rule="evenodd" clip-rule="evenodd" d="M35.3323 44.0143C35.3323 42.5916 34.1744 41.4337 32.7517 41.4337H25.8737C24.4509 41.4337 23.2931 42.5916 23.2931 44.0143V50.8923C23.2931 52.3151 24.4509 53.4729 25.8737 53.4729H32.7517C34.1744 53.4729 35.3323 52.3151 35.3323 50.8923V44.0143ZM32.9891 50.8923C32.9891 51.0236 32.8823 51.1298 32.7517 51.1298H25.8737C25.743 51.1298 25.6368 51.0229 25.6368 50.8923V44.0143C25.6368 43.8837 25.743 43.7775 25.8737 43.7775H32.7517C32.8829 43.7775 32.9891 43.8837 32.9891 44.0143V50.8923Z" fill="url(#paint8_linear)" fill-opacity="0.6"/>
<path fill-rule="evenodd" clip-rule="evenodd" d="M8.94373 68.62C7.521 68.62 6.36316 67.4628 6.36316 66.0394V59.1614C6.36316 57.7386 7.521 56.5808 8.94373 56.5808H32.7517C34.1744 56.5808 35.3323 57.7386 35.3323 59.1614V66.0394C35.3323 67.4628 34.1744 68.62 32.7517 68.62H8.94373ZM8.94373 58.9246C8.81311 58.9246 8.7063 59.0308 8.7063 59.1614L8.70691 66.0394C8.70691 66.17 8.81311 66.2769 8.94373 66.2769H32.7517C32.8823 66.2769 32.9885 66.17 32.9885 66.0394V59.1614C32.9885 59.0308 32.8823 58.9246 32.7517 58.9246H8.94373Z" fill="url(#paint9_linear)" fill-opacity="0.6"/>
<defs>
<linearGradient id="paint0_linear" x1="71.4474" y1="6.80768e-06" x2="-9.58434" y2="12.5229" gradientUnits="userSpaceOnUse">
<stop stop-color="#5CD384"/>
<stop offset="1" stop-color="#326BD2"/>
</linearGradient>
<linearGradient id="paint1_linear" x1="71.4474" y1="6.80768e-06" x2="-9.58434" y2="12.5229" gradientUnits="userSpaceOnUse">
<stop stop-color="#5CD384"/>
<stop offset="1" stop-color="#326BD2"/>
</linearGradient>
<linearGradient id="paint2_linear" x1="71.4474" y1="6.80768e-06" x2="-9.58434" y2="12.5229" gradientUnits="userSpaceOnUse">
<stop stop-color="#5CD384"/>
<stop offset="1" stop-color="#326BD2"/>
</linearGradient>
<linearGradient id="paint3_linear" x1="71.4474" y1="6.80768e-06" x2="-9.58434" y2="12.5229" gradientUnits="userSpaceOnUse">
<stop stop-color="#5CD384"/>
<stop offset="1" stop-color="#326BD2"/>
</linearGradient>
<linearGradient id="paint4_linear" x1="71.4474" y1="6.80768e-06" x2="-9.58434" y2="12.5229" gradientUnits="userSpaceOnUse">
<stop stop-color="#5CD384"/>
<stop offset="1" stop-color="#326BD2"/>
</linearGradient>
<linearGradient id="paint5_linear" x1="71.4474" y1="6.80768e-06" x2="-9.58434" y2="12.5229" gradientUnits="userSpaceOnUse">
<stop stop-color="#5CD384"/>
<stop offset="1" stop-color="#326BD2"/>
</linearGradient>
<linearGradient id="paint6_linear" x1="71.4474" y1="6.80768e-06" x2="-9.58434" y2="12.5229" gradientUnits="userSpaceOnUse">
<stop stop-color="#5CD384"/>
<stop offset="1" stop-color="#326BD2"/>
</linearGradient>
<linearGradient id="paint7_linear" x1="71.4474" y1="6.80768e-06" x2="-9.58434" y2="12.5229" gradientUnits="userSpaceOnUse">
<stop stop-color="#5CD384"/>
<stop offset="1" stop-color="#326BD2"/>
</linearGradient>
<linearGradient id="paint8_linear" x1="71.4474" y1="6.80768e-06" x2="-9.58434" y2="12.5229" gradientUnits="userSpaceOnUse">
<stop stop-color="#5CD384"/>
<stop offset="1" stop-color="#326BD2"/>
</linearGradient>
<linearGradient id="paint9_linear" x1="71.4474" y1="6.80768e-06" x2="-9.58434" y2="12.5229" gradientUnits="userSpaceOnUse">
<stop stop-color="#5CD384"/>
<stop offset="1" stop-color="#326BD2"/>
</linearGradient>
</defs>
</svg>
