<svg width="76" height="71" viewBox="0 0 76 71" fill="none" xmlns="http://www.w3.org/2000/svg">
<path fill-rule="evenodd" clip-rule="evenodd" d="M65 21.2114C63.0406 21.2114 61.4467 22.8053 61.4467 24.7646C61.4467 26.724 63.0406 28.3181 65 28.3181C66.9594 28.3181 68.5534 26.724 68.5534 24.7646C68.5534 22.8053 66.9594 21.2114 65 21.2114ZM65 25.9618C64.34 25.9618 63.8029 25.4248 63.8029 24.7646C63.8029 24.1046 64.34 23.5676 65 23.5676C65.6601 23.5676 66.1972 24.1046 66.1972 24.7646C66.1972 25.4248 65.6601 25.9618 65 25.9618Z" fill="url(#paint0_linear)" fill-opacity="0.6"/>
<path fill-rule="evenodd" clip-rule="evenodd" d="M61.4467 34.0445C61.4467 32.0851 63.0406 30.4912 65 30.4912C66.9594 30.4912 68.5534 32.0851 68.5534 34.0445C68.5534 36.0039 66.9594 37.5979 65 37.5979C63.0406 37.5979 61.4467 36.0039 61.4467 34.0445ZM63.8029 34.0445C63.8029 34.7046 64.34 35.2417 65 35.2417C65.6601 35.2417 66.1972 34.7046 66.1972 34.0445C66.1972 33.3845 65.6601 32.8475 65 32.8475C64.34 32.8475 63.8029 33.3845 63.8029 34.0445Z" fill="url(#paint1_linear)" fill-opacity="0.6"/>
<path d="M18.3859 21.2114H7.38593V23.7114H18.3859V21.2114Z" fill="url(#paint2_linear)" fill-opacity="0.6"/>
<path d="M7.38593 27.2114H14.3859V29.7114H7.38593V27.2114Z" fill="url(#paint3_linear)" fill-opacity="0.6"/>
<path fill-rule="evenodd" clip-rule="evenodd" d="M64.9103 62.4258C64.682 59.6338 64.0203 56.8897 62.9448 54.2933C61.5879 51.0175 59.5991 48.0411 57.0919 45.5339C54.5848 43.0267 51.6083 41.0379 48.3325 39.681C45.0567 38.3242 41.5457 37.6258 38.0001 37.6258C34.4544 37.6258 30.9434 38.3242 27.6676 39.681C24.3918 41.0379 21.4154 43.0267 18.9082 45.5339C16.401 48.0411 14.4122 51.0176 13.0553 54.2933C11.9799 56.8897 11.3181 59.6338 11.0898 62.4258C11.0301 63.1564 11.0001 63.8904 11.0001 64.6258H65.0001C65.0001 63.8904 64.97 63.1564 64.9103 62.4258ZM62.7023 62.4258C62.4794 59.9231 61.8771 57.4645 60.9123 55.1352C59.666 52.1264 57.8392 49.3924 55.5363 47.0895C55.3661 46.9194 55.1936 46.7518 55.0187 46.5868L51.2681 50.3375L49.7124 48.7818L53.3484 45.1459C51.566 43.7415 49.5956 42.5855 47.4906 41.7136C44.8712 40.6286 42.0881 40.002 39.2628 39.858V44.8953H37.0628V39.8435C34.1259 39.9546 31.2294 40.587 28.5095 41.7136C26.1041 42.7099 23.8745 44.0772 21.9002 45.7622L24.9199 48.7818L23.3643 50.3375L20.2909 47.2641C18.0694 49.5301 16.3028 52.2021 15.0878 55.1352C14.1231 57.4645 13.5207 59.9231 13.2978 62.4258L31.7225 62.4258C31.7632 62.3095 31.8072 62.1943 31.8545 62.0802C32.1888 61.2732 32.6788 60.5399 33.2964 59.9222C33.9141 59.3045 34.6474 58.8145 35.4545 58.4802C36.2615 58.1459 37.1265 57.9739 38 57.9739C38.2302 57.9739 38.4598 57.9858 38.6878 58.0095L43.6227 44.9288L45.6811 45.7053L40.8166 58.5996C41.5171 58.927 42.1558 59.3744 42.7036 59.9222C43.3213 60.5399 43.8113 61.2732 44.1456 62.0802C44.1928 62.1943 44.2369 62.3095 44.2776 62.4258L62.7023 62.4258ZM34.8521 61.4778C34.5693 61.7606 34.3265 62.0796 34.1297 62.4258H41.8704C41.6736 62.0796 41.4308 61.7606 41.148 61.4778C40.7346 61.0644 40.2438 60.7365 39.7037 60.5128C39.1636 60.289 38.5847 60.1739 38 60.1739C37.4154 60.1739 36.8365 60.289 36.2964 60.5128C35.7563 60.7365 35.2655 61.0644 34.8521 61.4778Z" fill="url(#paint4_linear)" fill-opacity="0.6"/>
<path d="M8.55005 6.17576H11.4001V9.02576H8.55005V6.17576Z" fill="url(#paint5_linear)" fill-opacity="0.6"/>
<path d="M18.05 6.17576H15.2V9.02576H18.05V6.17576Z" fill="url(#paint6_linear)" fill-opacity="0.6"/>
<path d="M24.7001 6.17576H21.8501V9.02576H24.7001V6.17576Z" fill="url(#paint7_linear)" fill-opacity="0.6"/>
<path d="M67.4501 6.17576H51.3001V9.02576H67.4501V6.17576Z" fill="url(#paint8_linear)" fill-opacity="0.6"/>
<path fill-rule="evenodd" clip-rule="evenodd" d="M71.5469 0.300781H4.45317C2.16341 0.300781 0.300049 2.16414 0.300049 4.45391V66.7977C0.300049 69.0874 2.16341 70.9508 4.45317 70.9508H71.5469C73.8367 70.9508 75.7 69.0874 75.7 66.7977V4.45391C75.7 2.16414 73.8367 0.300781 71.5469 0.300781ZM2.6688 14.5445H73.3313V66.7977C73.3313 67.7818 72.5311 68.582 71.5469 68.582H4.45317C3.469 68.582 2.6688 67.7818 2.6688 66.7977V14.5445ZM73.3313 12.1758H2.6688V4.45391C2.6688 3.46974 3.469 2.66953 4.45317 2.66953H71.5469C72.5311 2.66953 73.3313 3.46974 73.3313 4.45391V12.1758Z" fill="url(#paint9_linear)" fill-opacity="0.6"/>
<defs>
<linearGradient id="paint0_linear" x1="75.7" y1="0.300787" x2="-9.91318" y2="16.3005" gradientUnits="userSpaceOnUse">
<stop stop-color="#5CD384"/>
<stop offset="1" stop-color="#326BD2"/>
</linearGradient>
<linearGradient id="paint1_linear" x1="75.7" y1="0.300787" x2="-9.91318" y2="16.3005" gradientUnits="userSpaceOnUse">
<stop stop-color="#5CD384"/>
<stop offset="1" stop-color="#326BD2"/>
</linearGradient>
<linearGradient id="paint2_linear" x1="75.7" y1="0.300787" x2="-9.91318" y2="16.3005" gradientUnits="userSpaceOnUse">
<stop stop-color="#5CD384"/>
<stop offset="1" stop-color="#326BD2"/>
</linearGradient>
<linearGradient id="paint3_linear" x1="75.7" y1="0.300787" x2="-9.91318" y2="16.3005" gradientUnits="userSpaceOnUse">
<stop stop-color="#5CD384"/>
<stop offset="1" stop-color="#326BD2"/>
</linearGradient>
<linearGradient id="paint4_linear" x1="75.7" y1="0.300787" x2="-9.91318" y2="16.3005" gradientUnits="userSpaceOnUse">
<stop stop-color="#5CD384"/>
<stop offset="1" stop-color="#326BD2"/>
</linearGradient>
<linearGradient id="paint5_linear" x1="75.7" y1="0.300787" x2="-9.91318" y2="16.3005" gradientUnits="userSpaceOnUse">
<stop stop-color="#5CD384"/>
<stop offset="1" stop-color="#326BD2"/>
</linearGradient>
<linearGradient id="paint6_linear" x1="75.7" y1="0.300787" x2="-9.91318" y2="16.3005" gradientUnits="userSpaceOnUse">
<stop stop-color="#5CD384"/>
<stop offset="1" stop-color="#326BD2"/>
</linearGradient>
<linearGradient id="paint7_linear" x1="75.7" y1="0.300787" x2="-9.91318" y2="16.3005" gradientUnits="userSpaceOnUse">
<stop stop-color="#5CD384"/>
<stop offset="1" stop-color="#326BD2"/>
</linearGradient>
<linearGradient id="paint8_linear" x1="75.7" y1="0.300787" x2="-9.91318" y2="16.3005" gradientUnits="userSpaceOnUse">
<stop stop-color="#5CD384"/>
<stop offset="1" stop-color="#326BD2"/>
</linearGradient>
<linearGradient id="paint9_linear" x1="75.7" y1="0.300787" x2="-9.91318" y2="16.3005" gradientUnits="userSpaceOnUse">
<stop stop-color="#5CD384"/>
<stop offset="1" stop-color="#326BD2"/>
</linearGradient>
</defs>
</svg>
