<svg width="72" height="80" viewBox="0 0 72 80" fill="none" xmlns="http://www.w3.org/2000/svg">
<path d="M51.85 14.0005V25.346L60.657 28.0981L61.343 25.9028L54.15 23.655V14.0005H51.85Z" fill="url(#paint0_linear)" fill-opacity="0.6"/>
<path fill-rule="evenodd" clip-rule="evenodd" d="M44.9954 7.80406C44.7885 7.4945 44.434 7.31163 43.988 7.31163H40.0001V6.34478C40.0001 2.96115 37.2206 0.181641 33.8369 0.181641H25.136C21.7524 0.181641 18.9729 2.96115 18.9729 6.34478V7.19077H14.9849C14.2598 7.19077 13.7766 7.67419 13.7766 8.39916V11.2995H4.35047C1.93353 11.2995 0 13.2331 0 15.65V75.4688C0 77.8857 1.93353 79.8192 4.35047 79.8192H54.5016C56.9185 79.8192 58.8521 77.8857 58.8521 75.4688V44.0488H56.4351V75.5896C56.4351 76.6772 55.5891 77.5231 54.5016 77.5231H4.35047C3.26294 77.5231 2.41695 76.6772 2.41695 75.5896V15.7709C2.41695 14.6833 3.26294 13.8373 4.35047 13.8373H13.6557V17.3418C13.6557 18.067 14.1391 18.5502 14.8641 18.5502H37.4477C37.1548 19.8197 37 21.142 37 22.5005C37 32.1655 44.835 40.0005 54.5 40.0005C64.165 40.0005 72 32.1655 72 22.5005C72 12.8355 64.165 5.00049 54.5 5.00049C50.9958 5.00049 47.7322 6.03041 44.9954 7.80406ZM38.1476 16.2543C39.1037 13.7528 40.6172 11.5269 42.5363 9.72857H16.0725V16.2543H38.1476ZM21.4584 6.28843C21.4584 4.23405 23.1502 2.54224 25.2046 2.54224H33.9055C35.9599 2.54224 37.6517 4.23405 37.6517 6.28843V7.13442H21.4584V6.28843ZM54.5 37.5005C62.7843 37.5005 69.5 30.7848 69.5 22.5005C69.5 14.2162 62.7843 7.50049 54.5 7.50049C46.2157 7.50049 39.5 14.2162 39.5 22.5005C39.5 30.7848 46.2157 37.5005 54.5 37.5005Z" fill="url(#paint1_linear)" fill-opacity="0.6"/>
<path d="M30.574 23.7467H28.1572V46.1032H7.49237V48.52H28.2779V70.8766H30.6947V48.641H51.4802L51.4804 46.224H30.574V23.7467Z" fill="url(#paint2_linear)" fill-opacity="0.6"/>
<path d="M7.49239 41.511H20.9062C21.6313 41.511 22.1146 41.0276 22.1146 40.3026V35.8313C22.1146 35.1062 21.6312 34.6229 20.9062 34.6229C20.1811 34.6229 19.6978 35.1063 19.6978 35.8313V39.0941H8.70094V28.097H20.9064C21.6315 28.097 22.1148 27.6136 22.1148 26.8886C22.1148 26.1635 21.6313 25.6802 20.9064 25.6802H7.49239C6.76726 25.6802 6.284 26.1637 6.284 26.8886V40.3025C6.284 41.0276 6.76742 41.511 7.49239 41.511Z" fill="url(#paint3_linear)" fill-opacity="0.6"/>
<path d="M19.5771 66.1635C19.5771 65.4386 20.0604 64.9552 20.7855 64.9552C21.5107 64.9552 21.9939 65.5594 22.1146 66.1635V70.0306C22.1146 70.7556 21.6313 71.239 20.9062 71.239H7.49239C6.76742 71.239 6.284 70.7557 6.284 70.0306V56.6168C6.284 55.8918 6.76726 55.4084 7.49239 55.4084H20.9064C21.6313 55.4084 22.1148 55.8918 22.1148 56.6168C22.1148 57.3417 21.6315 57.8252 20.9064 57.8252H8.70094V68.8222H19.5771V66.1635Z" fill="url(#paint4_linear)" fill-opacity="0.6"/>
<path d="M50.0303 64.5926C50.0303 63.8676 50.5136 63.3842 51.2387 63.3842C51.9639 63.3842 52.4471 63.8675 52.4471 64.5924V68.9429C52.4471 69.6679 51.9639 70.1513 51.2387 70.1513H37.8249C37.0999 70.1513 36.6165 69.668 36.6165 68.9429V55.5291C36.6165 54.8041 37.0998 54.3207 37.8249 54.3207H51.2387C51.9637 54.3207 52.4471 54.8039 52.4471 55.5291C52.4471 56.254 51.9639 56.7375 51.2387 56.7375H39.0333V67.7345H50.0303V64.5926Z" fill="url(#paint5_linear)" fill-opacity="0.6"/>
<path d="M41.2085 59.517C41.8128 59.1544 42.5377 59.2753 42.9003 59.8795L45.1964 63.505L53.8973 56.4959C54.3807 56.0125 55.1057 56.1334 55.5891 56.6168C56.0726 57.1002 55.9517 57.946 55.4683 58.3086L45.8007 66.2844C45.6798 66.4052 45.3172 66.5261 45.0755 66.5261H44.8338C44.4712 66.5261 44.2295 66.2844 43.9878 66.0427L40.8459 61.2088C40.4833 60.6045 40.6042 59.8795 41.2085 59.517Z" fill="url(#paint6_linear)" fill-opacity="0.6"/>
<path d="M10.9971 30.6348C11.6013 30.2722 12.3263 30.3931 12.6889 30.9973L14.985 34.6228L23.6859 27.6137C24.1693 27.1303 24.8943 27.2512 25.3777 27.7346C25.8611 28.218 25.7403 29.0638 25.2569 29.4264L15.5892 37.4022C15.4684 37.5231 15.1058 37.6439 14.8641 37.6439H14.6224C14.2598 37.6439 14.0181 37.4022 13.7764 37.1605L10.6345 32.3266C10.2719 31.7223 10.3928 30.9973 10.9971 30.6348Z" fill="url(#paint7_linear)" fill-opacity="0.6"/>
<path d="M14.9848 64.351L23.6857 57.3419C24.1691 56.8585 24.8943 56.9793 25.2567 57.4629C25.7401 57.9463 25.6192 58.7922 25.1358 59.1547L15.4682 67.1305C15.3473 67.2514 14.9848 67.3723 14.7431 67.3723H14.5014C14.1388 67.3723 13.8971 67.1305 13.6554 66.8888L10.5135 62.0549C10.1509 61.4507 10.2717 60.7257 10.876 60.3631C11.4803 60.0006 12.2053 60.1214 12.5678 60.7257L14.9848 64.351Z" fill="url(#paint8_linear)" fill-opacity="0.6"/>
<defs>
<linearGradient id="paint0_linear" x1="72" y1="0.181647" x2="-10.5392" y2="13.2489" gradientUnits="userSpaceOnUse">
<stop stop-color="#5CD384"/>
<stop offset="1" stop-color="#326BD2"/>
</linearGradient>
<linearGradient id="paint1_linear" x1="72" y1="0.181647" x2="-10.5392" y2="13.2489" gradientUnits="userSpaceOnUse">
<stop stop-color="#5CD384"/>
<stop offset="1" stop-color="#326BD2"/>
</linearGradient>
<linearGradient id="paint2_linear" x1="72" y1="0.181647" x2="-10.5392" y2="13.2489" gradientUnits="userSpaceOnUse">
<stop stop-color="#5CD384"/>
<stop offset="1" stop-color="#326BD2"/>
</linearGradient>
<linearGradient id="paint3_linear" x1="72" y1="0.181647" x2="-10.5392" y2="13.2489" gradientUnits="userSpaceOnUse">
<stop stop-color="#5CD384"/>
<stop offset="1" stop-color="#326BD2"/>
</linearGradient>
<linearGradient id="paint4_linear" x1="72" y1="0.181647" x2="-10.5392" y2="13.2489" gradientUnits="userSpaceOnUse">
<stop stop-color="#5CD384"/>
<stop offset="1" stop-color="#326BD2"/>
</linearGradient>
<linearGradient id="paint5_linear" x1="72" y1="0.181647" x2="-10.5392" y2="13.2489" gradientUnits="userSpaceOnUse">
<stop stop-color="#5CD384"/>
<stop offset="1" stop-color="#326BD2"/>
</linearGradient>
<linearGradient id="paint6_linear" x1="72" y1="0.181647" x2="-10.5392" y2="13.2489" gradientUnits="userSpaceOnUse">
<stop stop-color="#5CD384"/>
<stop offset="1" stop-color="#326BD2"/>
</linearGradient>
<linearGradient id="paint7_linear" x1="72" y1="0.181647" x2="-10.5392" y2="13.2489" gradientUnits="userSpaceOnUse">
<stop stop-color="#5CD384"/>
<stop offset="1" stop-color="#326BD2"/>
</linearGradient>
<linearGradient id="paint8_linear" x1="72" y1="0.181647" x2="-10.5392" y2="13.2489" gradientUnits="userSpaceOnUse">
<stop stop-color="#5CD384"/>
<stop offset="1" stop-color="#326BD2"/>
</linearGradient>
</defs>
</svg>
