<svg width="80" height="80" viewBox="0 0 80 80" fill="none" xmlns="http://www.w3.org/2000/svg">
<path fill-rule="evenodd" clip-rule="evenodd" d="M47.8398 3.51502L54.9922 10.6667H80V45.3334H24V28.3106C21.2923 28.2116 18.6641 27.3653 16.4069 25.8666L15.6003 25.3334H13.3333V29.3334H0V4.88909e-05H13.3333V2.56971L14.6882 2.61724C15.3581 2.64393 16.0234 2.50005 16.6224 2.19862L19.6107 0.703825C20.5371 0.242887 21.5573 0.00135097 22.5918 4.88909e-05H39.3548C42.5391 -0.00906569 45.5944 1.25656 47.8398 3.51502ZM2.66667 26.6667H10.6667V2.66672H2.66667V26.6667ZM16.3997 22.6667L17.8828 23.6478C19.7025 24.8562 21.8177 25.5456 24 25.6426V19.1999C23.0182 18.8392 22.1009 18.3223 21.2839 17.6693L20.5026 17.0359L22.1829 14.9642L22.9557 15.5905C25.5977 17.7025 29.3652 17.6465 31.9427 15.4577L32.8763 14.6576L40.7428 22.5241C41.7891 23.5658 43.4818 23.5625 44.5241 22.5163C45.5658 21.4694 45.5625 19.7767 44.5163 18.7351L35.0977 9.3158L36.9824 7.43104L40.2188 10.6667H51.2214L45.9544 5.39979C44.2083 3.64393 41.8314 2.65955 39.3548 2.66672H22.5918C21.9701 2.66672 21.3561 2.81125 20.8001 3.08924L17.8145 4.58403C16.8151 5.08208 15.707 5.32231 14.5905 5.2826L13.3333 5.23768V22.6667H16.3997ZM38.8613 24.4122L36.8496 22.3998C35.6289 23.8985 33.9056 24.9017 32 25.2227V30.7774C35.3548 31.351 37.9824 33.9786 38.556 37.3334H65.444C66.0176 33.9786 68.6452 31.351 72 30.7774V25.2227C68.6452 24.6491 66.0176 22.0215 65.444 18.6667H47.5892C48.2259 20.239 48.0632 22.0215 47.1523 23.4519C49.6257 20.8269 53.7272 20.6114 56.4622 22.9629C59.1979 25.3145 59.5996 29.4017 57.375 32.2416C55.1504 35.0808 51.0859 35.6687 48.1478 33.5756C45.2096 31.4825 44.4375 27.4493 46.3945 24.4187C44.3027 26.4727 40.9499 26.4694 38.8613 24.4122ZM52 24C49.791 24 48 25.7911 48 28C48 30.209 49.791 32 52 32C54.209 32 56 30.209 56 28C56 25.7911 54.209 24 52 24ZM26.6667 42.6667H77.3333V13.3334H42.8854L45.5521 16H68V17.3334C68 20.2787 70.388 22.6667 73.3333 22.6667H74.6667V33.3334H73.3333C70.388 33.3334 68 35.7214 68 38.6667V40H36V38.6667C36 35.7214 33.612 33.3334 30.6667 33.3334H29.3333V22.6667H30.6667C32.3548 22.6635 33.9408 21.8594 34.9414 20.5L32.6667 18.2253C30.888 19.3783 28.7806 19.9174 26.6667 19.7585V42.6667Z" fill="url(#paint0_linear)" fill-opacity="0.6"/>
<path fill-rule="evenodd" clip-rule="evenodd" d="M63.2708 55.6136L66.6667 57.6481V53.3336H80V80.0003H66.6667V77.9886L62.7546 79.5335C61.9746 79.8421 61.1432 80.001 60.304 80.0003H41.5176C40.2774 80.0003 39.0625 79.6546 38.0078 79.0016L14.7891 65.4547C13.1458 64.5029 12.1393 62.7425 12.1536 60.8427C12.1536 59.9124 12.3965 58.9977 12.8587 58.1898C13.3874 57.262 14.1862 56.5172 15.1491 56.0563C15.5755 55.8453 16.0293 55.6963 16.4974 55.6136C17.7383 55.3753 19.0241 55.5875 20.1224 56.2125L32.6107 62.5628C33.2005 60.9189 34.5527 59.665 36.2363 59.2002L51.6348 55.0667C52.6465 54.7998 53.6882 54.665 54.7344 54.667H59.8451C61.0514 54.6676 62.2357 54.9944 63.2708 55.6136ZM60.3079 77.3336C60.8099 77.333 61.3079 77.2379 61.7747 77.0537L66.6667 75.1201V60.7562L61.8997 57.902C61.2793 57.5302 60.569 57.3336 59.8451 57.3336H54.7344C53.9212 57.3336 53.1113 57.4404 52.3255 57.6507L36.9336 61.7685C35.8548 62.0687 35.0736 63.0049 34.972 64.1201C34.9616 64.2334 34.972 64.5563 34.972 64.5563C34.9811 64.723 35.0065 64.8883 35.0495 65.0498C35.3665 66.2112 36.4225 67.0159 37.627 67.014C37.7891 67.0003 38.5736 66.8401 39.1816 66.7002L52.9896 63.0094L53.6771 65.5856L39.8242 69.2926C39.1042 69.4853 38.3691 69.6168 37.627 69.6845C35.2149 69.6819 33.1035 68.0654 32.472 65.7379C32.46 65.6924 32.4547 65.6472 32.4494 65.602C32.4452 65.5665 32.4411 65.5309 32.4336 65.4951L18.8027 58.5361C18.4049 58.3082 17.9544 58.1884 17.4961 58.1898C17.3249 58.1898 17.1536 58.206 16.985 58.2373C16.7539 58.2776 16.5299 58.3506 16.3184 58.4534C15.8385 58.6813 15.4388 59.0504 15.1732 59.5107C14.9408 59.917 14.8177 60.3766 14.8158 60.844C14.8092 61.7978 15.3151 62.6819 16.1413 63.1592L39.3932 76.723C40.03 77.1214 40.7663 77.333 41.5176 77.3336H60.3079ZM77.3333 56.0003H69.3333V77.3336H77.3333V56.0003Z" fill="url(#paint1_linear)" fill-opacity="0.6"/>
<defs>
<linearGradient id="paint0_linear" x1="80" y1="8.84702e-06" x2="-11.2119" y2="15.9721" gradientUnits="userSpaceOnUse">
<stop stop-color="#5CD384"/>
<stop offset="1" stop-color="#326BD2"/>
</linearGradient>
<linearGradient id="paint1_linear" x1="80" y1="8.84702e-06" x2="-11.2119" y2="15.9721" gradientUnits="userSpaceOnUse">
<stop stop-color="#5CD384"/>
<stop offset="1" stop-color="#326BD2"/>
</linearGradient>
</defs>
</svg>
