<svg width="60" height="80" viewBox="0 0 60 80" fill="none" xmlns="http://www.w3.org/2000/svg">
<path d="M16.25 12.5H15C14.25 12.5 13.75 13 13.75 13.75C13.75 14.5 14.25 15 15 15H16.25C17 15 17.5 14.5 17.5 13.75C17.5 13 17 12.5 16.25 12.5Z" fill="url(#paint0_linear)" fill-opacity="0.6"/>
<path d="M20 15H21.25C22 15 22.5 14.5 22.5 13.75C22.5 13 22 12.5 21.25 12.5H20C19.25 12.5 18.75 13 18.75 13.75C18.75 14.5 19.25 15 20 15Z" fill="url(#paint1_linear)" fill-opacity="0.6"/>
<path d="M10 15H11.25C12 15 12.5 14.5 12.5 13.75C12.5 13 12 12.5 11.25 12.5H10C9.25 12.5 8.75 13 8.75 13.75C8.75 14.5 9.25 15 10 15Z" fill="url(#paint2_linear)" fill-opacity="0.6"/>
<path d="M40 55C40.75 55 41.25 54.5 41.25 53.75C41.25 53 40.75 52.5 40 52.5H38.75C38 52.5 37.5 53 37.5 53.75C37.5 54.5 38 55 38.75 55H40Z" fill="url(#paint3_linear)" fill-opacity="0.6"/>
<path d="M45 55C45.75 55 46.25 54.5 46.25 53.75C46.25 53 45.75 52.5 45 52.5H43.75C43 52.5 42.5 53 42.5 53.75C42.5 54.5 43 55 43.75 55H45Z" fill="url(#paint4_linear)" fill-opacity="0.6"/>
<path d="M35 55C35.75 55 36.25 54.5 36.25 53.75C36.25 53 35.75 52.5 35 52.5H33.75C33 52.5 32.5 53 32.5 53.75C32.5 54.5 33 55 33.75 55H35Z" fill="url(#paint5_linear)" fill-opacity="0.6"/>
<path d="M59.625 12.875L47.125 0.375C46.875 0.125 46.625 0 46.25 0H1.25C0.5 0 0 0.625 0 1.25V78.75C0 79.5 0.5 80 1.25 80H58.75C59.5 80 60 79.5 60 78.75V63.75C60 63 59.5 62.5 58.75 62.5C58 62.5 57.5 63.125 57.5 63.75V77.5H2.5V2.5H45V13.75C45 14.5 45.5 15 46.25 15H57.5V55C57.5 55.75 58 56.25 58.75 56.25C59.5 56.25 60 55.625 60 55V13.75C60 13.375 59.875 13.125 59.625 12.875ZM47.5 12.5V4.375L55.625 12.5H47.5Z" fill="url(#paint6_linear)" fill-opacity="0.6"/>
<path d="M58.75 57.5C58 57.5 57.5 58 57.5 58.75V60C57.5 60.75 58 61.25 58.75 61.25C59.5 61.25 60 60.75 60 60V58.75C60 58 59.5 57.5 58.75 57.5Z" fill="url(#paint7_linear)" fill-opacity="0.6"/>
<path d="M27.5 8.75C27.5 8 27 7.5 26.25 7.5H10C9.25 7.5 8.75 8 8.75 8.75C8.75 9.5 9.25 10 10 10H26.25C27 10 27.5 9.5 27.5 8.75Z" fill="url(#paint8_linear)" fill-opacity="0.6"/>
<path d="M50 47.5H23.75C23 47.5 22.5 48 22.5 48.75C22.5 49.5 23 50 23.75 50H50C50.75 50 51.25 49.5 51.25 48.75C51.25 48 50.75 47.5 50 47.5Z" fill="url(#paint9_linear)" fill-opacity="0.6"/>
<path d="M23.75 55H30C30.75 55 31.25 54.5 31.25 53.75C31.25 53 30.75 52.5 30 52.5H23.75C23 52.5 22.5 53 22.5 53.75C22.5 54.5 23 55 23.75 55Z" fill="url(#paint10_linear)" fill-opacity="0.6"/>
<path d="M50 58.75H23.75C23 58.75 22.5 59.25 22.5 60C22.5 60.75 23 61.25 23.75 61.25H50C50.75 61.25 51.25 60.75 51.25 60C51.25 59.25 50.75 58.75 50 58.75Z" fill="url(#paint11_linear)" fill-opacity="0.6"/>
<path d="M50 63.75H23.75C23 63.75 22.5 64.25 22.5 65C22.5 65.75 23 66.25 23.75 66.25H50C50.75 66.25 51.25 65.75 51.25 65C51.25 64.25 50.75 63.75 50 63.75Z" fill="url(#paint12_linear)" fill-opacity="0.6"/>
<path d="M40 30C40.75 30 41.25 29.5 41.25 28.75C41.25 28 40.75 27.5 40 27.5H38.75C38 27.5 37.5 28 37.5 28.75C37.5 29.5 38 30 38.75 30H40Z" fill="url(#paint13_linear)" fill-opacity="0.6"/>
<path d="M45 30C45.75 30 46.25 29.5 46.25 28.75C46.25 28 45.75 27.5 45 27.5H43.75C43 27.5 42.5 28 42.5 28.75C42.5 29.5 43 30 43.75 30H45Z" fill="url(#paint14_linear)" fill-opacity="0.6"/>
<path d="M35 30C35.75 30 36.25 29.5 36.25 28.75C36.25 28 35.75 27.5 35 27.5H33.75C33 27.5 32.5 28 32.5 28.75C32.5 29.5 33 30 33.75 30H35Z" fill="url(#paint15_linear)" fill-opacity="0.6"/>
<path d="M50 22.5H23.75C23 22.5 22.5 23 22.5 23.75C22.5 24.5 23 25 23.75 25H50C50.75 25 51.25 24.5 51.25 23.75C51.25 23 50.75 22.5 50 22.5Z" fill="url(#paint16_linear)" fill-opacity="0.6"/>
<path d="M23.75 30H30C30.75 30 31.25 29.5 31.25 28.75C31.25 28 30.75 27.5 30 27.5H23.75C23 27.5 22.5 28 22.5 28.75C22.5 29.5 23 30 23.75 30Z" fill="url(#paint17_linear)" fill-opacity="0.6"/>
<path d="M50 35H23.75C23 35 22.5 35.5 22.5 36.25C22.5 37 23 37.5 23.75 37.5H50C50.75 37.5 51.25 37 51.25 36.25C51.25 35.5 50.75 35 50 35Z" fill="url(#paint18_linear)" fill-opacity="0.6"/>
<path d="M50 40H23.75C23 40 22.5 40.5 22.5 41.25C22.5 42 23 42.5 23.75 42.5H50C50.75 42.5 51.25 42 51.25 41.25C51.25 40.5 50.75 40 50 40Z" fill="url(#paint19_linear)" fill-opacity="0.6"/>
<path d="M17.5 22.5C17.5 21.75 17 21.25 16.25 21.25H10C9.25 21.25 8.75 21.75 8.75 22.5V28.75C8.75 29.5 9.25 30 10 30H16.25C17 30 17.5 29.5 17.5 28.75V22.5ZM15 27.5H11.25V23.75H15V27.5Z" fill="url(#paint20_linear)" fill-opacity="0.6"/>
<path d="M17.5 35C17.5 34.25 17 33.75 16.25 33.75H10C9.25 33.75 8.75 34.25 8.75 35V41.25C8.75 42 9.25 42.5 10 42.5H16.25C17 42.5 17.5 42 17.5 41.25V35ZM15 40H11.25V36.25H15V40Z" fill="url(#paint21_linear)" fill-opacity="0.6"/>
<path d="M17.5 47.5C17.5 46.75 17 46.25 16.25 46.25H10C9.25 46.25 8.75 46.75 8.75 47.5V53.75C8.75 54.5 9.25 55 10 55H16.25C17 55 17.5 54.5 17.5 53.75V47.5ZM15 52.5H11.25V48.75H15V52.5Z" fill="url(#paint22_linear)" fill-opacity="0.6"/>
<path d="M16.25 58.75H10C9.25 58.75 8.75 59.25 8.75 60V66.25C8.75 67 9.25 67.5 10 67.5H16.25C17 67.5 17.5 67 17.5 66.25V60C17.5 59.25 17 58.75 16.25 58.75ZM15 65H11.25V61.25H15V65Z" fill="url(#paint23_linear)" fill-opacity="0.6"/>
<defs>
<linearGradient id="paint0_linear" x1="60" y1="8.84699e-06" x2="-9.31111" y2="9.10281" gradientUnits="userSpaceOnUse">
<stop stop-color="#5CD384"/>
<stop offset="1" stop-color="#326BD2"/>
</linearGradient>
<linearGradient id="paint1_linear" x1="60" y1="8.84699e-06" x2="-9.31111" y2="9.10281" gradientUnits="userSpaceOnUse">
<stop stop-color="#5CD384"/>
<stop offset="1" stop-color="#326BD2"/>
</linearGradient>
<linearGradient id="paint2_linear" x1="60" y1="8.84699e-06" x2="-9.31111" y2="9.10281" gradientUnits="userSpaceOnUse">
<stop stop-color="#5CD384"/>
<stop offset="1" stop-color="#326BD2"/>
</linearGradient>
<linearGradient id="paint3_linear" x1="60" y1="8.84699e-06" x2="-9.31111" y2="9.10281" gradientUnits="userSpaceOnUse">
<stop stop-color="#5CD384"/>
<stop offset="1" stop-color="#326BD2"/>
</linearGradient>
<linearGradient id="paint4_linear" x1="60" y1="8.84699e-06" x2="-9.31111" y2="9.10281" gradientUnits="userSpaceOnUse">
<stop stop-color="#5CD384"/>
<stop offset="1" stop-color="#326BD2"/>
</linearGradient>
<linearGradient id="paint5_linear" x1="60" y1="8.84699e-06" x2="-9.31111" y2="9.10281" gradientUnits="userSpaceOnUse">
<stop stop-color="#5CD384"/>
<stop offset="1" stop-color="#326BD2"/>
</linearGradient>
<linearGradient id="paint6_linear" x1="60" y1="8.84699e-06" x2="-9.31111" y2="9.10281" gradientUnits="userSpaceOnUse">
<stop stop-color="#5CD384"/>
<stop offset="1" stop-color="#326BD2"/>
</linearGradient>
<linearGradient id="paint7_linear" x1="60" y1="8.84699e-06" x2="-9.31111" y2="9.10281" gradientUnits="userSpaceOnUse">
<stop stop-color="#5CD384"/>
<stop offset="1" stop-color="#326BD2"/>
</linearGradient>
<linearGradient id="paint8_linear" x1="60" y1="8.84699e-06" x2="-9.31111" y2="9.10281" gradientUnits="userSpaceOnUse">
<stop stop-color="#5CD384"/>
<stop offset="1" stop-color="#326BD2"/>
</linearGradient>
<linearGradient id="paint9_linear" x1="60" y1="8.84699e-06" x2="-9.31111" y2="9.10281" gradientUnits="userSpaceOnUse">
<stop stop-color="#5CD384"/>
<stop offset="1" stop-color="#326BD2"/>
</linearGradient>
<linearGradient id="paint10_linear" x1="60" y1="8.84699e-06" x2="-9.31111" y2="9.10281" gradientUnits="userSpaceOnUse">
<stop stop-color="#5CD384"/>
<stop offset="1" stop-color="#326BD2"/>
</linearGradient>
<linearGradient id="paint11_linear" x1="60" y1="8.84699e-06" x2="-9.31111" y2="9.10281" gradientUnits="userSpaceOnUse">
<stop stop-color="#5CD384"/>
<stop offset="1" stop-color="#326BD2"/>
</linearGradient>
<linearGradient id="paint12_linear" x1="60" y1="8.84699e-06" x2="-9.31111" y2="9.10281" gradientUnits="userSpaceOnUse">
<stop stop-color="#5CD384"/>
<stop offset="1" stop-color="#326BD2"/>
</linearGradient>
<linearGradient id="paint13_linear" x1="60" y1="8.84699e-06" x2="-9.31111" y2="9.10281" gradientUnits="userSpaceOnUse">
<stop stop-color="#5CD384"/>
<stop offset="1" stop-color="#326BD2"/>
</linearGradient>
<linearGradient id="paint14_linear" x1="60" y1="8.84699e-06" x2="-9.31111" y2="9.10281" gradientUnits="userSpaceOnUse">
<stop stop-color="#5CD384"/>
<stop offset="1" stop-color="#326BD2"/>
</linearGradient>
<linearGradient id="paint15_linear" x1="60" y1="8.84699e-06" x2="-9.31111" y2="9.10281" gradientUnits="userSpaceOnUse">
<stop stop-color="#5CD384"/>
<stop offset="1" stop-color="#326BD2"/>
</linearGradient>
<linearGradient id="paint16_linear" x1="60" y1="8.84699e-06" x2="-9.31111" y2="9.10281" gradientUnits="userSpaceOnUse">
<stop stop-color="#5CD384"/>
<stop offset="1" stop-color="#326BD2"/>
</linearGradient>
<linearGradient id="paint17_linear" x1="60" y1="8.84699e-06" x2="-9.31111" y2="9.10281" gradientUnits="userSpaceOnUse">
<stop stop-color="#5CD384"/>
<stop offset="1" stop-color="#326BD2"/>
</linearGradient>
<linearGradient id="paint18_linear" x1="60" y1="8.84699e-06" x2="-9.31111" y2="9.10281" gradientUnits="userSpaceOnUse">
<stop stop-color="#5CD384"/>
<stop offset="1" stop-color="#326BD2"/>
</linearGradient>
<linearGradient id="paint19_linear" x1="60" y1="8.84699e-06" x2="-9.31111" y2="9.10281" gradientUnits="userSpaceOnUse">
<stop stop-color="#5CD384"/>
<stop offset="1" stop-color="#326BD2"/>
</linearGradient>
<linearGradient id="paint20_linear" x1="60" y1="8.84699e-06" x2="-9.31111" y2="9.10281" gradientUnits="userSpaceOnUse">
<stop stop-color="#5CD384"/>
<stop offset="1" stop-color="#326BD2"/>
</linearGradient>
<linearGradient id="paint21_linear" x1="60" y1="8.84699e-06" x2="-9.31111" y2="9.10281" gradientUnits="userSpaceOnUse">
<stop stop-color="#5CD384"/>
<stop offset="1" stop-color="#326BD2"/>
</linearGradient>
<linearGradient id="paint22_linear" x1="60" y1="8.84699e-06" x2="-9.31111" y2="9.10281" gradientUnits="userSpaceOnUse">
<stop stop-color="#5CD384"/>
<stop offset="1" stop-color="#326BD2"/>
</linearGradient>
<linearGradient id="paint23_linear" x1="60" y1="8.84699e-06" x2="-9.31111" y2="9.10281" gradientUnits="userSpaceOnUse">
<stop stop-color="#5CD384"/>
<stop offset="1" stop-color="#326BD2"/>
</linearGradient>
</defs>
</svg>
