<svg width="36" height="36" viewBox="0 0 36 36" fill="none" xmlns="http://www.w3.org/2000/svg">
<path d="M14.5286 35.7889C11.3748 35.1448 8.43599 33.6778 6.14231 31.6383C0.228924 26.3963 -1.61677 18.1487 1.51912 10.7956C2.28965 8.98866 3.54401 7.16381 5.08507 5.57154L6.44694 4.17607L6.53654 12.37C6.62614 20.224 6.64406 20.6176 7.02036 21.6016C7.77298 23.5875 8.56143 24.8398 9.94122 26.1995C13.4893 29.724 18.6859 30.6006 23.112 28.4358C27.2692 26.3963 29.8855 21.9415 29.5808 17.4331C29.3837 14.4095 28.3623 12.1911 26.1582 9.99054C24.4917 8.32671 22.5385 7.23537 20.424 6.78811C18.2558 6.34084 18.3633 6.26928 18.3633 8.09413V9.66851L19.546 9.8832C24.1334 10.7241 27.1797 15.2325 26.2299 19.7767C25.9253 21.2259 25.2444 22.514 24.1513 23.6948C22.4848 25.4839 20.1373 26.3426 18.0945 26.3426C14.7078 26.3426 11.8944 24.4104 10.5146 21.5837C10.5146 21.5837 10.1563 20.7786 10.0487 20.2777C9.3678 17.3257 9.79786 11.1355 9.79786 11.1355L9.74411 2.06497L10.2817 1.79661C10.5684 1.63559 10.8551 1.52825 10.9089 1.52825C10.9626 1.52825 11.0164 5.69678 11.0522 10.7956C11.0522 10.7956 10.4071 17.4689 11.2135 20.0272C11.321 20.4029 11.554 21.0291 11.554 21.0291C12.2528 22.4604 13.3817 23.7306 14.8511 24.4283C15.9621 24.9472 16.5355 25.1976 18.1841 25.1976C19.2593 25.1976 20.209 24.8577 21.32 24.3568C22.6102 23.7664 24.0975 22.192 24.653 20.7428C26.1582 16.7711 24.0617 12.5131 19.994 11.3145C18.3275 10.8314 18.3633 10.7956 18.3633 12.6026V14.177L19.1518 14.3917C22.0189 15.161 22.8969 19.0074 20.6391 20.9754C19.8506 21.6732 19.1339 21.9773 17.8795 21.9773C16.5355 21.9773 15.2454 21.1722 14.5823 19.9199C14.1881 19.1685 14.1523 18.4707 14.1523 18.1487C14.1523 15.1609 14.0806 9.75796 14.0806 9.75796L14.0268 0.508478L14.439 0.401133C14.6719 0.347461 15.5858 0.204336 16.4818 0.0969917C19.5102 -0.296604 23.99 0.705275 27.0005 2.42278C31.104 4.76646 34.204 8.79186 35.4942 13.4434C35.9422 15.0357 35.996 15.5188 35.996 18.0771C35.996 20.6355 35.9422 21.1186 35.5122 22.6929C33.7561 29.0262 29.2762 33.5347 22.879 35.4669C21.535 35.8784 20.9079 35.9499 18.5246 36.0036C16.6072 36.0215 15.3708 35.9678 14.5286 35.7889Z" fill="white"/>
</svg>
