<svg width="96" height="88" viewBox="0 0 96 88" fill="none" xmlns="http://www.w3.org/2000/svg">
<path d="M48.1011 23.1622C49.4147 25.2864 51.5368 28.5232 53.6589 31.3554C55.5789 33.9852 54.6695 34.8956 53.861 35.6036C53.0526 36.3117 52.5474 36.7163 51.84 37.3232C50.2232 38.6381 49.4147 37.1209 49.4147 37.1209C49.4147 37.1209 41.8358 25.0841 40.7242 23.4657C40.32 22.8588 40.1179 22.2519 40.1179 21.7462C40.1179 21.2404 40.32 20.6335 40.7242 20.0266C41.8358 18.4082 49.1116 6.77604 49.1116 6.77604C49.1116 6.77604 50.1221 4.95535 51.84 6.06799C52.5474 6.57374 53.1537 6.97834 53.861 7.78753C54.5684 8.69788 55.5789 9.50707 53.6589 12.137C51.6379 14.9691 49.4147 18.2059 48.1011 20.3301C47.8989 20.7347 47.6968 21.3416 47.6968 21.7462C47.7979 22.2519 47.8989 22.7576 48.1011 23.1622ZM95.1916 23.0611C95.1916 22.2519 94.8884 21.4427 94.2821 20.6335C92.7663 18.4082 81.7516 0.707074 81.7516 0.707074C81.7516 0.707074 80.8421 -1.01247 78.6189 1.01052C77.7095 1.81972 78.3158 1.31397 77.3053 2.32546C76.2947 3.43811 75.3853 5.76454 78.1137 9.50707C81.0442 13.5531 84.0758 18.1048 85.9958 21.1393C86.2989 21.645 86.5011 22.3531 86.5011 22.9599V23.0611V23.1622C86.5011 23.7691 86.4 24.4772 85.9958 24.9829C84.1768 28.0174 81.0442 32.6703 78.1137 36.6151C75.3853 40.3577 76.1937 42.6841 77.3053 43.7967C78.3158 44.9094 77.7095 44.3025 78.6189 45.1117C80.8421 47.1347 81.7516 45.314 81.7516 45.314C81.7516 45.314 92.7663 27.714 94.3832 25.3875C94.9895 24.6795 95.1916 23.8703 95.1916 23.0611C95.1916 23.1622 95.1916 23.1622 95.1916 23.0611ZM46.5853 59.6772L44.9684 52.3944L43.0484 44.1002H41.7347L45.8779 61.7002H47.1916L49.1116 53.5071L50.3242 47.4381L51.5368 53.6082L53.3558 61.7002H54.6695L58.8126 44.1002H57.6L55.68 52.3944L54.1642 59.6772L50.8295 45.1117H49.92L46.5853 59.6772ZM70.7368 47.9439C70.6358 44.8082 68.7158 43.999 66.1895 43.999C62.9558 43.999 61.3389 45.314 61.3389 48.6519C61.3389 51.9898 63.36 52.799 65.1789 52.9002C67.8063 53.1025 70.0295 53.5071 70.0295 56.6427C70.0295 59.6772 69.019 60.7898 66.0884 60.891C63.6632 60.891 62.4505 59.9806 62.4505 57.8565H61.3389C61.3389 60.6887 62.9558 62.0036 66.0884 62.0036C69.2211 62.0036 71.2421 61.0933 71.2421 56.7439C71.2421 54.2151 69.7263 52.4956 67.0989 52.091C64.3705 51.7875 62.4505 51.7875 62.4505 48.6519C62.4505 45.8197 63.7642 45.0105 66.1895 45.0105C68.2105 45.0105 69.6253 45.8197 69.6253 47.9439H70.7368ZM9.39789 69.8933C9.29684 66.7577 7.37684 65.9485 4.85053 65.9485C1.61684 65.9485 0 67.2634 0 70.6013C0 73.9393 2.02105 74.6473 3.84 74.8496C6.46737 75.0519 8.69053 75.4565 8.69053 78.5921C8.69053 81.6266 7.68 82.7393 4.74947 82.8404C2.32421 82.8404 1.11158 81.9301 1.11158 79.8059H0C0 82.6381 1.61684 83.9531 4.74947 83.9531C7.78105 83.9531 9.90316 83.0427 9.90316 78.6933C9.90316 76.1646 8.38737 74.445 5.86105 74.1416C3.03158 73.737 1.21263 73.8381 1.21263 70.6013C1.21263 67.7691 2.52632 66.9599 4.95158 66.9599C6.97263 66.9599 8.38737 67.7691 8.38737 69.8933H9.39789ZM21.0189 83.7508V70.6013H19.9074V79.8059C19.9074 81.3232 19.0989 82.9416 16.6737 82.9416C14.2484 82.9416 13.6421 82.0312 13.6421 79.0979V70.5002H12.5305V79.0979C12.5305 82.537 13.5411 83.9531 16.6737 83.9531C18.2905 83.9531 19.4021 83.245 20.0084 82.3347L20.1095 83.7508H21.0189ZM29.4063 71.4105C31.4274 71.4105 32.4379 72.2197 32.4379 75.1531V79.4013C32.4379 81.6266 31.8316 82.8404 29.3053 82.8404C26.7789 82.8404 26.1726 81.8289 26.1726 79.3002V74.8496C26.2737 72.6243 27.0821 71.4105 29.4063 71.4105ZM33.5495 75.0519C33.5495 71.6128 32.3368 70.2979 29.5074 70.2979C27.8905 70.2979 26.7789 70.9048 26.1726 71.8151L26.0716 70.399H25.0611V87.8979H26.2737V82.6381C26.9811 83.4473 27.9916 83.8519 29.4063 83.8519C32.0337 83.8519 33.6505 82.537 33.6505 79.4013V75.0519H33.5495ZM41.3305 71.4105C43.3516 71.4105 44.3621 72.2197 44.3621 75.1531V79.4013C44.3621 81.6266 43.7558 82.8404 41.2295 82.8404C38.7032 82.8404 38.0968 81.8289 38.0968 79.3002V74.8496C38.0968 72.6243 39.0063 71.4105 41.3305 71.4105ZM45.4737 75.0519C45.4737 71.6128 44.2611 70.2979 41.4316 70.2979C39.8147 70.2979 38.7032 70.9048 38.0968 71.8151L37.9958 70.399H36.9853V87.8979H38.0968V82.6381C38.8042 83.4473 39.8147 83.8519 41.2295 83.8519C43.8568 83.8519 45.4737 82.537 45.4737 79.4013V75.0519ZM55.5789 78.8956C55.5789 81.7278 54.9726 82.8404 52.4463 82.8404C49.8189 82.8404 49.3137 81.7278 49.3137 78.7944V75.2542C49.3137 72.422 49.92 71.3094 52.4463 71.3094C55.0737 71.3094 55.5789 72.422 55.5789 75.2542V78.8956ZM48.2021 78.8956C48.2021 82.7393 49.5158 83.8519 52.4463 83.8519C55.3768 83.8519 56.6905 82.537 56.6905 78.8956V75.3554C56.6905 71.4105 55.3768 70.2979 52.4463 70.2979C49.5158 70.2979 48.2021 71.5117 48.2021 75.2542V78.8956ZM59.6211 70.2979V83.6496H60.7326V74.2427C60.7326 72.3209 62.2484 71.1071 64.2695 71.4105V70.2979C62.6526 69.9944 61.2379 70.8036 60.7326 71.8151L60.6316 70.1967H59.6211V70.2979ZM67.0989 80.0082C67.0989 82.9416 68.1095 84.0542 71.1411 83.7508V82.7393C68.9179 82.9416 68.2105 82.4358 68.2105 79.9071V71.3094H70.9389V70.1967H68.2105V67.0611L67.0989 67.2634V80.0082Z" fill="white"/>
</svg>
