<svg height="512" viewBox="0 0 128 128" width="512" xmlns="http://www.w3.org/2000/svg"><g id="number"><text fill="#24253a" font-family="MyriadPro-Regular, Myriad Pro" font-size="40" letter-spacing=".002em" transform="translate(55.973 -54.265)">7<tspan x="-10.3" y="228">17</tspan><tspan x="-10.3" y="456">27</tspan><tspan x="-10.3" y="684">37</tspan><tspan x="-10.3" y="912">47</tspan><tspan x="-10.3" y="1140">57</tspan><tspan x="-10.3" y="1368">67</tspan><tspan x="-10.3" y="1596">77</tspan><tspan x="-10.3" y="1824">87</tspan><tspan x="-10.3" y="2052">97</tspan><tspan x="-20.599" y="2280">107</tspan><tspan x="-20.599" y="2508">117</tspan><tspan x="-20.599" y="2736">127</tspan><tspan x="-20.599" y="2964">137</tspan><tspan x="-20.599" y="3192">147</tspan><tspan x="-20.599" y="3420">157</tspan><tspan x="-20.599" y="3648">167</tspan><tspan x="-20.599" y="3876">177</tspan><tspan x="-20.599" y="4104">187</tspan><tspan x="-20.599" y="4332">197</tspan><tspan x="-20.599" y="4560">207</tspan><tspan x="-20.599" y="4788">217</tspan><tspan x="-20.599" y="5016">227</tspan><tspan x="-20.599" y="5244">237</tspan><tspan x="-20.599" y="5472">247</tspan></text></g><g id="icon"><circle cx="64" cy="64" fill="#f6c863" r="40"/><g fill="#eab54e"><path d="m64 95.605a31.605 31.605 0 1 1 31.605-31.605 31.642 31.642 0 0 1 -31.605 31.605zm0-60.247a28.642 28.642 0 1 0 28.642 28.642 28.675 28.675 0 0 0 -28.642-28.642z"/><path d="m62.451 82.713v-4.6a13.3 13.3 0 0 1 -6.975-2.013l1.095-3.055a12.146 12.146 0 0 0 6.566 1.96c3.233 0 5.423-1.869 5.423-4.468 0-2.507-1.778-4.057-5.152-5.425-4.647-1.822-7.52-3.92-7.52-7.886 0-3.784 2.687-6.655 6.882-7.34v-4.6h2.83v4.421a12.139 12.139 0 0 1 5.925 1.6l-1.14 3.009a11 11 0 0 0 -5.742-1.55c-3.512 0-4.833 2.1-4.833 3.92 0 2.37 1.685 3.556 5.653 5.2 4.7 1.916 7.064 4.286 7.064 8.343 0 3.6-2.506 6.975-7.2 7.751v4.74z"/></g></g></svg>