<svg width="100" height="100" viewBox="0 0 100 100" fill="none" xmlns="http://www.w3.org/2000/svg">
<path d="M89.0625 42.1875V39.0625H85.9375V42.1875H89.0625Z" fill="url(#paint0_linear)" fill-opacity="0.6"/>
<path d="M85.9375 32.8125H89.0625V35.9375H85.9375V32.8125Z" fill="url(#paint1_linear)" fill-opacity="0.6"/>
<path d="M7.8125 14.0625H10.9375V17.1875H7.8125V14.0625Z" fill="url(#paint2_linear)" fill-opacity="0.6"/>
<path d="M10.9375 20.3125H7.8125V23.4375H10.9375V20.3125Z" fill="url(#paint3_linear)" fill-opacity="0.6"/>
<path fill-rule="evenodd" clip-rule="evenodd" d="M23.4375 56.25C23.4375 46.7734 31.1484 39.0625 40.625 39.0625C50.1016 39.0625 57.8125 46.7734 57.8125 56.25C57.8125 65.7266 50.1016 73.4375 40.625 73.4375C31.1484 73.4375 23.4375 65.7266 23.4375 56.25ZM26.5625 56.25C26.5625 64.0047 32.8719 70.3125 40.625 70.3125C48.3781 70.3125 54.6875 64.0047 54.6875 56.25C54.6875 48.4953 48.3781 42.1875 40.625 42.1875C32.8719 42.1875 26.5625 48.4953 26.5625 56.25Z" fill="url(#paint4_linear)" fill-opacity="0.6"/>
<path fill-rule="evenodd" clip-rule="evenodd" d="M73.4375 68.5437V60.9375H63.5906C61.4125 71.6234 51.9437 79.6875 40.625 79.6875C35.925 79.6875 31.5531 78.2844 27.8797 75.8922L25.6469 78.125L27.2094 79.6875L13.6609 93.2375C12.3234 94.575 10.5437 95.3125 8.65 95.3125C4.74219 95.3125 1.5625 92.1344 1.5625 88.2266C1.5625 86.3344 2.3 84.5531 3.63906 83.2156L17.1875 69.6656L18.75 71.2281L20.9828 68.9953C18.5906 65.3219 17.1875 60.95 17.1875 56.25C17.1875 50.9703 18.9625 46.1094 21.9188 42.1875H9.375C5.06719 42.1875 1.5625 38.6828 1.5625 34.375V15.625C1.5625 11.3172 5.06719 7.8125 9.375 7.8125H17.7344C19.025 4.17656 22.4891 1.5625 26.5625 1.5625C30.6359 1.5625 34.1 4.17656 35.3906 7.8125H43.75C48.0578 7.8125 51.5625 11.3172 51.5625 15.625V26.7203C52.0672 26.6172 52.5906 26.5625 53.125 26.5625H61.4844C62.775 22.9266 66.2391 20.3125 70.3125 20.3125C74.3859 20.3125 77.85 22.9266 79.1406 26.5625H87.5C91.8078 26.5625 95.3125 30.0672 95.3125 34.375V53.125C95.3125 57.4328 91.8078 60.9375 87.5 60.9375H84.8484L73.4375 68.5437ZM87.5 29.6875H79.6875C79.6875 32.6781 78.275 35.3391 76.0875 37.0578C81.85 39.3609 85.9375 44.9891 85.9375 51.5625V54.6875H63.9828C63.9894 54.7875 63.9965 54.8874 64.0035 54.9873L64.0037 54.99C64.0331 55.4073 64.0625 55.8246 64.0625 56.25C64.0625 56.6754 64.0331 57.0927 64.0037 57.51C63.9966 57.6108 63.9895 57.7116 63.9828 57.8125H76.5625V62.7062L83.9016 57.8125H87.5C90.0844 57.8125 92.1875 55.7094 92.1875 53.125V34.375C92.1875 31.7906 90.0844 29.6875 87.5 29.6875ZM73.9266 39.6L74.8812 51.5625H82.8125C82.8125 45.9266 79.0609 41.1547 73.9266 39.6ZM71.7453 51.5625L70.7484 39.0844C70.6874 39.0824 70.6267 39.0782 70.5659 39.074C70.4819 39.0683 70.3977 39.0625 70.3125 39.0625C70.2304 39.0625 70.1492 39.0693 70.0679 39.0762C70.0039 39.0816 69.9397 39.087 69.875 39.0891L68.8797 51.5625H71.7453ZM63.5891 51.5625H65.7438L66.6969 39.6188C64.2578 40.3563 62.0891 41.825 60.4875 43.8688C61.9438 46.1969 63.0234 48.7844 63.5891 51.5625ZM76.5625 29.6875C76.5625 26.2406 73.7594 23.4375 70.3125 23.4375C66.8656 23.4375 64.0625 26.2406 64.0625 29.6875C64.0625 33.1344 66.8656 35.9375 70.3125 35.9375C73.7594 35.9375 76.5625 33.1344 76.5625 29.6875ZM64.5328 37.0547C62.3484 35.3359 60.9375 32.6766 60.9375 29.6875H53.125C50.6047 29.6875 48.5578 31.6906 48.4562 34.1875C52.4375 35.6047 55.9328 38.0516 58.5953 41.2313C60.2313 39.375 62.2703 37.9562 64.5328 37.0547ZM43.75 10.9375H35.9375C35.9375 13.9281 34.525 16.5891 32.3375 18.3078C38.1 20.6109 42.1875 26.2391 42.1875 32.8125V32.8937C43.2859 32.9656 44.3688 33.0906 45.4203 33.3109C45.7109 31.2109 46.8219 29.3891 48.4375 28.1656V15.625C48.4375 13.0406 46.3344 10.9375 43.75 10.9375ZM22.95 20.85C17.8141 22.4047 14.0625 27.1766 14.0625 32.8125H21.9937L22.95 20.85ZM26.309 20.3241C26.2483 20.3282 26.1875 20.3324 26.1266 20.3344L25.1297 32.8125H27.9953L26.9984 20.3344C26.9374 20.3324 26.8766 20.3282 26.8158 20.3241C26.7318 20.3183 26.6476 20.3125 26.5625 20.3125C26.4774 20.3125 26.393 20.3183 26.309 20.3241ZM39.0625 32.8125C39.0625 27.1766 35.3109 22.4047 30.175 20.85L31.1313 32.8125H39.0625ZM32.8125 10.9375C32.8125 7.49062 30.0094 4.6875 26.5625 4.6875C23.1156 4.6875 20.3125 7.49062 20.3125 10.9375C20.3125 14.3844 23.1156 17.1875 26.5625 17.1875C30.0094 17.1875 32.8125 14.3844 32.8125 10.9375ZM4.6875 15.625V34.375C4.6875 36.9594 6.79063 39.0625 9.375 39.0625H24.7453C26.0344 37.8703 27.4516 36.8187 28.9828 35.9375H10.9375V32.8125C10.9375 26.2391 15.025 20.6109 20.7875 18.3078C18.6 16.5891 17.1875 13.9281 17.1875 10.9375H9.375C6.79063 10.9375 4.6875 13.0406 4.6875 15.625ZM8.65 92.1875C9.70781 92.1875 10.7031 91.775 11.4516 91.0281L22.7906 79.6875L17.1875 74.0844L5.84844 85.425C5.1 86.175 4.6875 87.1687 4.6875 88.2266C4.6875 90.4094 6.46562 92.1875 8.65 92.1875ZM20.9594 73.4375L23.4375 75.9156L25.3578 73.9953C24.4719 73.2312 23.6437 72.4031 22.8797 71.5172L20.9594 73.4375ZM20.3125 56.25C20.3125 67.45 29.425 76.5625 40.625 76.5625C51.825 76.5625 60.9375 67.45 60.9375 56.25C60.9375 45.05 51.825 35.9375 40.625 35.9375C29.425 35.9375 20.3125 45.05 20.3125 56.25Z" fill="url(#paint5_linear)" fill-opacity="0.6"/>
<path d="M85.9375 89.0625V79.6875H89.0625V89.0625H92.1875V92.1875H67.1875V76.5625H70.3125V89.0625H73.4375V85.9375H76.5625V89.0625H79.6875V82.8125H82.8125V89.0625H85.9375Z" fill="url(#paint6_linear)" fill-opacity="0.6"/>
<path fill-rule="evenodd" clip-rule="evenodd" d="M65.625 70.3125C63.0406 70.3125 60.9375 72.4156 60.9375 75V93.75C60.9375 96.3344 63.0406 98.4375 65.625 98.4375H93.75C96.3344 98.4375 98.4375 96.3344 98.4375 93.75V75C98.4375 72.4156 96.3344 70.3125 93.75 70.3125H65.625ZM95.3125 93.75C95.3125 94.6125 94.6109 95.3125 93.75 95.3125H65.625C64.7641 95.3125 64.0625 94.6125 64.0625 93.75V75C64.0625 74.1375 64.7641 73.4375 65.625 73.4375H93.75C94.6109 73.4375 95.3125 74.1375 95.3125 75V93.75Z" fill="url(#paint7_linear)" fill-opacity="0.6"/>
<defs>
<linearGradient id="paint0_linear" x1="98.4375" y1="1.56251" x2="-12.0144" y2="20.9038" gradientUnits="userSpaceOnUse">
<stop stop-color="#5CD384"/>
<stop offset="1" stop-color="#326BD2"/>
</linearGradient>
<linearGradient id="paint1_linear" x1="98.4375" y1="1.56251" x2="-12.0144" y2="20.9038" gradientUnits="userSpaceOnUse">
<stop stop-color="#5CD384"/>
<stop offset="1" stop-color="#326BD2"/>
</linearGradient>
<linearGradient id="paint2_linear" x1="98.4375" y1="1.56251" x2="-12.0144" y2="20.9038" gradientUnits="userSpaceOnUse">
<stop stop-color="#5CD384"/>
<stop offset="1" stop-color="#326BD2"/>
</linearGradient>
<linearGradient id="paint3_linear" x1="98.4375" y1="1.56251" x2="-12.0144" y2="20.9038" gradientUnits="userSpaceOnUse">
<stop stop-color="#5CD384"/>
<stop offset="1" stop-color="#326BD2"/>
</linearGradient>
<linearGradient id="paint4_linear" x1="98.4375" y1="1.56251" x2="-12.0144" y2="20.9038" gradientUnits="userSpaceOnUse">
<stop stop-color="#5CD384"/>
<stop offset="1" stop-color="#326BD2"/>
</linearGradient>
<linearGradient id="paint5_linear" x1="98.4375" y1="1.56251" x2="-12.0144" y2="20.9038" gradientUnits="userSpaceOnUse">
<stop stop-color="#5CD384"/>
<stop offset="1" stop-color="#326BD2"/>
</linearGradient>
<linearGradient id="paint6_linear" x1="98.4375" y1="1.56251" x2="-12.0144" y2="20.9038" gradientUnits="userSpaceOnUse">
<stop stop-color="#5CD384"/>
<stop offset="1" stop-color="#326BD2"/>
</linearGradient>
<linearGradient id="paint7_linear" x1="98.4375" y1="1.56251" x2="-12.0144" y2="20.9038" gradientUnits="userSpaceOnUse">
<stop stop-color="#5CD384"/>
<stop offset="1" stop-color="#326BD2"/>
</linearGradient>
</defs>
</svg>
