<svg width="100" height="100" viewBox="0 0 100 100" fill="none" xmlns="http://www.w3.org/2000/svg">
<path d="M96.5988 83.6029H94.8661C94.8661 70.0012 94.1978 73.2002 98.3566 64.0228C100.88 58.448 100.291 51.6403 97.9896 45.9579C97.9469 45.8565 88.6123 27.4292 88.5612 27.3308C87.1605 24.7437 84.0469 23.6244 81.3186 24.7261C78.3744 25.9186 76.9462 29.2831 78.1311 32.2273L83.7326 46.7476C84.2201 48.0072 85.3683 52.2346 85.5026 55.9364C85.5209 56.3637 85.1776 56.7238 84.7442 56.7238C84.3238 56.7238 83.982 56.3843 83.982 55.9654V54.3098C83.982 48.4741 77.7992 45.4361 75.0526 47.3129C73.7403 48.2048 73.5107 49.8787 73.4382 50.47C73.4344 50.4913 71.5805 61.808 71.5759 61.8294C71.0495 66.0446 72.8279 69.9081 74.9054 71.9803C77.0034 74.1959 76.9676 78.7613 76.921 83.6029H74.9565C73.3261 83.6029 72.0001 84.9289 72.0001 86.5593V96.6988C72.0001 98.3292 73.3261 99.6552 74.9565 99.6552H78.0403C78.8536 99.6552 79.5135 98.9952 79.5135 98.1819C79.5135 97.3686 78.8536 96.7087 78.0403 96.7087L74.9466 96.6988L74.9565 86.5494C80.0468 86.5494 91.9182 86.5593 96.6064 86.5593L96.5988 96.7087H83.9332C83.1184 96.7087 82.46 97.3686 82.46 98.1819C82.46 98.9952 83.1184 99.6552 83.9332 99.6552H96.5988C98.2269 99.6552 99.5529 98.3292 99.5529 96.6988V86.5593C99.5529 84.9289 98.2269 83.6029 96.5988 83.6029ZM79.8675 83.6029C79.927 77.4673 79.8736 73.1369 77.0111 69.9158C76.2924 69.1597 73.9898 66.3689 74.4972 62.2223C76.4663 50.2037 76.4297 49.9718 76.7105 49.7467C77.198 49.4171 81.0356 50.5028 81.0356 54.3098V55.9654C81.0356 59.2896 85.1066 60.9261 87.4122 58.5373C88.1355 57.7866 88.488 56.8024 88.4468 55.8281C88.298 51.7319 87.062 47.1901 86.4807 45.6871C86.4791 45.6818 80.8685 31.1409 80.867 31.1356C80.2833 29.6913 80.9806 28.0418 82.4249 27.4582C83.7974 26.9028 85.3531 27.5078 85.9878 28.7704L95.2812 47.123C97.2381 51.9798 97.8607 57.9765 95.6718 62.809C91.2903 72.5342 91.9197 69.5007 91.9197 83.6029H79.8675Z" fill="url(#paint0_linear)" fill-opacity="0.6"/>
<path d="M25.1213 71.9452C27.4544 69.4847 28.9131 65.7112 28.4149 61.8294C28.4111 61.7951 26.5602 50.502 26.5549 50.4677C26.1627 47.4297 24.2714 46.2654 21.6522 46.9437C18.3304 47.7944 16.011 50.8232 16.011 54.3099V55.9654C16.011 56.3843 15.6693 56.7238 15.2489 56.7238C14.83 56.7238 14.4882 56.3843 14.4882 55.9654C14.5073 55.69 14.534 53.9032 15.007 51.5793C15.4488 49.3996 15.8813 47.728 16.2605 46.7476C22.4182 30.7892 22.2771 31.5262 22.2771 30.0888C22.2771 26.8601 19.6785 24.3073 16.5215 24.3073C14.0282 24.3073 12.0132 25.9476 11.367 27.4582C11.3167 27.5574 2.04697 45.8557 2.00348 45.958C0.673676 49.2378 0 52.6169 0 55.999C0 64.9567 5.12466 67.7567 5.12466 74.5514C5.12466 75.3647 5.78461 76.0246 6.5979 76.0246C7.41348 76.0246 8.07114 75.3647 8.07114 74.5514C8.07114 70.2881 7.11517 69.0094 4.32129 62.809C2.15378 58.0277 2.73209 52.0348 4.71191 47.123L14.0076 28.7644C14.0091 28.7628 14.0091 28.7605 14.0114 28.759C15.416 26.1498 19.3306 27.1507 19.3306 30.0888C19.3306 30.6999 19.1673 30.9609 19.1185 31.1569C12.8265 47.4632 13.0508 46.3829 12.1193 50.9941C11.6859 53.1273 11.5417 55.233 11.5417 55.9654C11.5417 58.0086 13.2057 59.6703 15.2489 59.6703C17.2935 59.6703 18.9575 58.0086 18.9575 55.9654V54.3099C18.9575 52.1691 20.3659 50.3143 22.3831 49.7978C23.2941 49.5667 23.4833 49.6437 23.6359 50.8629C23.7312 51.8128 25.5669 61.8752 25.5669 63.3927C25.5669 65.725 24.6956 68.0489 22.9271 69.9768C20.0203 73.0705 20.0653 78.344 20.1256 83.6029H8.07114V80.4444C8.07114 79.6311 7.41348 78.9711 6.5979 78.9711C5.78461 78.9711 5.12466 79.6311 5.12466 80.4444V83.6029H3.39432C1.76621 83.6029 0.440216 84.9289 0.440216 86.5593V96.6988C0.440216 98.3292 1.76621 99.6552 3.39432 99.6552H25.0366C26.667 99.6552 27.993 98.3292 27.993 96.6988V86.5593C27.993 84.9289 26.667 83.6029 25.0366 83.6029H23.0721C23.0118 78.3875 23.0034 74.4835 25.1175 71.9467L25.1213 71.9452ZM25.0366 86.5494L25.0465 86.5593L25.0366 96.7087L3.38669 96.6988L3.39432 86.5494H25.0366Z" fill="url(#paint1_linear)" fill-opacity="0.6"/>
<path d="M56.0091 15.2405V3.82614C56.0091 1.93253 54.4672 0.390625 52.5736 0.390625H47.4413C45.5477 0.390625 44.0058 1.93253 44.0058 3.82614V15.239C37.2347 17.3973 31.9567 23.1194 30.5879 30.397C30.4384 31.1966 30.9648 31.9664 31.7644 32.1159C32.5639 32.267 33.3338 31.7406 33.4848 30.941C34.5888 25.074 38.6789 20.3964 44.0058 18.3601C54.9608 14.1785 66.8207 22.2733 66.8207 34.0683C66.8207 43.3395 59.2783 50.8804 50.0086 50.8804C41.6254 50.8804 34.4629 44.6281 33.346 36.335C33.2376 35.5293 32.4953 34.964 31.6896 35.0716C30.8824 35.1799 30.3163 35.9222 30.4247 36.7279C31.7392 46.476 40.1575 53.8269 50.0086 53.8269C60.9026 53.8269 69.7672 44.9638 69.7672 34.0683C69.7672 25.264 63.9787 17.7864 56.0091 15.2405ZM53.0626 14.5432C51.108 14.2387 49.0251 14.2189 46.9522 14.5454V3.82614C46.9522 3.56064 47.1758 3.3371 47.4413 3.3371H52.5736C52.8391 3.3371 53.0626 3.56064 53.0626 3.82614V14.5432Z" fill="url(#paint2_linear)" fill-opacity="0.6"/>
<path d="M46.8277 25.18C45.3293 28.2158 45.3835 28.3096 44.9639 28.3706L41.8053 28.8292C38.8977 29.2518 37.7373 32.827 39.84 34.877C42.2653 37.2413 42.3699 37.2185 42.2981 37.6358L41.7587 40.7821C41.2621 43.6775 44.3039 45.887 46.9032 44.5198C49.9321 42.9275 49.9146 42.839 50.2869 43.0351L53.1121 44.5198C55.7129 45.887 58.754 43.6767 58.2566 40.7821C57.679 37.4115 57.589 37.3985 57.8896 37.1055L60.1754 34.8778C62.2795 32.827 61.1168 29.2518 58.21 28.8292L55.0514 28.3706C54.6349 28.3096 54.702 28.2493 53.1876 25.18C51.8868 22.5448 48.1278 22.5464 46.8277 25.18ZM54.6273 31.2858C58.0208 31.7787 58.1185 31.6864 58.2703 32.1525C58.4236 32.6256 58.2642 32.6256 55.8327 34.9952C54.9973 35.8101 54.6158 36.9835 54.8134 38.134C55.3932 41.5146 55.5107 41.5779 55.114 41.8663C54.7119 42.1577 54.6654 42.0082 51.6579 40.4266C50.6249 39.8834 49.3904 39.8834 48.3574 40.4266L45.5322 41.9121C45.0897 42.144 44.5778 41.7724 44.6625 41.2803L45.2019 38.134C45.3995 36.9835 45.018 35.8101 44.1826 34.9952C41.7275 32.6027 41.5932 32.6187 41.745 32.1525C41.8984 31.6803 42.0243 31.7741 45.3873 31.2858C46.5424 31.118 47.5403 30.3924 48.0576 29.3457C49.5751 26.2718 49.5171 26.1497 50.0076 26.149C50.5043 26.149 50.454 26.2977 51.9577 29.3457C52.4742 30.3932 53.4722 31.118 54.6273 31.2858Z" fill="url(#paint3_linear)" fill-opacity="0.6"/>
<path d="M50.4652 54.6989C49.6519 54.6989 48.992 55.3581 48.992 56.1721V59.0736C48.992 59.8869 49.6519 60.5468 50.4652 60.5468C51.2793 60.5468 51.9385 59.8869 51.9385 59.0736V56.1721C51.9385 55.3581 51.2793 54.6989 50.4652 54.6989Z" fill="url(#paint4_linear)" fill-opacity="0.6"/>
<path d="M73.6609 46.8987C74.0684 46.1945 73.8265 45.2934 73.1223 44.886L70.6092 43.4357C69.9042 43.029 69.0032 43.2701 68.5965 43.9743C68.1899 44.6793 68.431 45.5803 69.1359 45.9869L71.6491 47.4381C72.354 47.8455 73.2551 47.6028 73.6609 46.8987Z" fill="url(#paint5_linear)" fill-opacity="0.6"/>
<path d="M70.9905 22.9286L73.5036 21.4775C74.2078 21.0709 74.4497 20.1698 74.043 19.4656C73.6356 18.7607 72.7346 18.5196 72.0304 18.9262L69.5173 20.3766C68.8131 20.784 68.572 21.685 68.9786 22.3892C69.3853 23.0942 70.2863 23.3353 70.9905 22.9286Z" fill="url(#paint6_linear)" fill-opacity="0.6"/>
<path d="M26.3586 21.7979L28.871 23.249C29.5759 23.6557 30.477 23.4146 30.8836 22.7096C31.2903 22.0054 31.0492 21.1044 30.3442 20.697L27.8319 19.2467C27.1269 18.8392 26.2259 19.0811 25.8192 19.7861C25.4118 20.4902 25.6537 21.3913 26.3586 21.7979Z" fill="url(#paint7_linear)" fill-opacity="0.6"/>
<path d="M29.7113 43.9087L27.1989 45.359C25.8943 46.1121 26.4398 48.1087 27.9367 48.1087C28.4525 48.1087 28.4669 48.0293 31.1845 46.46C31.8887 46.0533 32.1306 45.1523 31.7239 44.4481C31.3165 43.7431 30.4155 43.5021 29.7113 43.9087Z" fill="url(#paint8_linear)" fill-opacity="0.6"/>
<defs>
<linearGradient id="paint0_linear" x1="100" y1="0.390636" x2="-13.9645" y2="20.4948" gradientUnits="userSpaceOnUse">
<stop stop-color="#5CD384"/>
<stop offset="1" stop-color="#326BD2"/>
</linearGradient>
<linearGradient id="paint1_linear" x1="100" y1="0.390636" x2="-13.9645" y2="20.4948" gradientUnits="userSpaceOnUse">
<stop stop-color="#5CD384"/>
<stop offset="1" stop-color="#326BD2"/>
</linearGradient>
<linearGradient id="paint2_linear" x1="100" y1="0.390636" x2="-13.9645" y2="20.4948" gradientUnits="userSpaceOnUse">
<stop stop-color="#5CD384"/>
<stop offset="1" stop-color="#326BD2"/>
</linearGradient>
<linearGradient id="paint3_linear" x1="100" y1="0.390636" x2="-13.9645" y2="20.4948" gradientUnits="userSpaceOnUse">
<stop stop-color="#5CD384"/>
<stop offset="1" stop-color="#326BD2"/>
</linearGradient>
<linearGradient id="paint4_linear" x1="100" y1="0.390636" x2="-13.9645" y2="20.4948" gradientUnits="userSpaceOnUse">
<stop stop-color="#5CD384"/>
<stop offset="1" stop-color="#326BD2"/>
</linearGradient>
<linearGradient id="paint5_linear" x1="100" y1="0.390636" x2="-13.9645" y2="20.4948" gradientUnits="userSpaceOnUse">
<stop stop-color="#5CD384"/>
<stop offset="1" stop-color="#326BD2"/>
</linearGradient>
<linearGradient id="paint6_linear" x1="100" y1="0.390636" x2="-13.9645" y2="20.4948" gradientUnits="userSpaceOnUse">
<stop stop-color="#5CD384"/>
<stop offset="1" stop-color="#326BD2"/>
</linearGradient>
<linearGradient id="paint7_linear" x1="100" y1="0.390636" x2="-13.9645" y2="20.4948" gradientUnits="userSpaceOnUse">
<stop stop-color="#5CD384"/>
<stop offset="1" stop-color="#326BD2"/>
</linearGradient>
<linearGradient id="paint8_linear" x1="100" y1="0.390636" x2="-13.9645" y2="20.4948" gradientUnits="userSpaceOnUse">
<stop stop-color="#5CD384"/>
<stop offset="1" stop-color="#326BD2"/>
</linearGradient>
</defs>
</svg>
