<svg width="100" height="100" viewBox="0 0 100 100" fill="none" xmlns="http://www.w3.org/2000/svg">
<path d="M79.1016 60.8398C79.9105 60.8398 80.5664 60.1842 80.5664 59.375V57.8125C80.5664 54.5015 79.2766 51.3871 76.9338 49.042C75.9061 48.0152 74.7301 47.1908 73.4547 46.5885C75.6352 44.9676 77.0508 42.3726 77.0508 39.4531C77.0508 34.5529 73.0643 30.5664 68.1641 30.5664C65.0613 30.5664 62.3266 32.1658 60.7365 34.5824C60.7381 34.5076 60.7422 34.4334 60.7422 34.358C60.7422 28.4347 55.9232 23.6158 50 23.6158C44.0768 23.6158 39.2578 28.4347 39.2578 34.358C39.2578 34.4332 39.2619 34.5074 39.2635 34.5824C37.6734 32.1658 34.9387 30.5664 31.8359 30.5664C26.9357 30.5664 22.9492 34.5529 22.9492 39.4531C22.9492 42.3748 24.3668 44.9711 26.55 46.5918C26.134 46.7879 25.7275 47.0064 25.3338 47.2492C24.6453 47.674 24.4312 48.5763 24.8559 49.2648C25.2805 49.9533 26.1828 50.1676 26.8717 49.7428C28.36 48.825 30.0766 48.3396 31.8359 48.3396C33.3314 48.3396 34.7771 48.6845 36.0879 49.3455C34.0883 52.1433 32.9102 55.5668 32.9102 59.2601V67.2851H22.3633V57.8125C22.3633 56.3709 22.6781 54.9875 23.2992 53.7006C23.6508 52.972 23.3453 52.0963 22.6168 51.7447C21.8881 51.3926 21.0125 51.6986 20.6607 52.4271C19.8465 54.1144 19.4336 55.9263 19.4336 57.8125V68.75C19.4336 69.5592 20.0895 70.2148 20.8984 70.2148H32.9102V74.8853C32.9102 75.6945 33.566 76.3502 34.375 76.3502H37.5C38.309 76.3502 38.9648 75.6945 38.9648 74.8853C38.9648 74.0761 38.309 73.4205 37.5 73.4205H35.8398V59.2603C35.8398 51.4523 42.192 45.1002 50 45.1002C57.808 45.1002 64.1602 51.4523 64.1602 59.2603V73.4205H43.7826C42.9736 73.4205 42.3178 74.0761 42.3178 74.8853C42.3178 75.6945 42.9736 76.3502 43.7826 76.3502H65.625C66.434 76.3502 67.0898 75.6945 67.0898 74.8853V70.2148H79.1016C79.9105 70.2148 80.5664 69.5592 80.5664 68.75V65.625C80.5664 64.8158 79.9105 64.1601 79.1016 64.1601C78.2926 64.1601 77.6367 64.8158 77.6367 65.625V67.2851H67.0898V59.2603C67.0898 55.5668 65.9117 52.1435 63.9121 49.3457C65.2229 48.6847 66.6686 48.3398 68.1641 48.3398C70.6932 48.3398 73.0723 49.3252 74.8621 51.1135C76.6514 52.9045 77.6367 55.2836 77.6367 57.8125V59.375C77.6367 60.1842 78.2926 60.8398 79.1016 60.8398ZM31.8359 45.4101C28.5512 45.4101 25.8789 42.7377 25.8789 39.4531C25.8789 36.1685 28.5512 33.4961 31.8359 33.4961C35.1207 33.4961 37.793 36.1685 37.793 39.4531C37.793 42.7377 35.1207 45.4101 31.8359 45.4101ZM38.0348 47.0707C37.7365 46.8978 37.4324 46.7377 37.1225 46.5912C39.2307 45.0258 40.6225 42.5498 40.715 39.7502C41.5322 41.1517 42.6549 42.3541 43.9947 43.2607C41.7451 44.108 39.7199 45.4164 38.0348 47.0707ZM50 42.1705C45.6922 42.1705 42.1875 38.6658 42.1875 34.358C42.1875 30.0502 45.6922 26.5455 50 26.5455C54.3078 26.5455 57.8125 30.0502 57.8125 34.358C57.8125 38.6658 54.3078 42.1705 50 42.1705ZM61.9652 47.0707C60.2801 45.4164 58.2549 44.108 56.0053 43.2607C57.3451 42.3541 58.4678 41.1517 59.285 39.7502C59.3775 42.5498 60.7691 45.0258 62.8775 46.5912C62.5678 46.7377 62.2637 46.8978 61.9652 47.0707ZM68.1641 45.4101C64.8793 45.4101 62.207 42.7377 62.207 39.4531C62.207 36.1685 64.8793 33.4961 68.1641 33.4961C71.4488 33.4961 74.1211 36.1685 74.1211 39.4531C74.1211 42.7377 71.4488 45.4101 68.1641 45.4101Z" fill="url(#paint0_linear)" fill-opacity="0.6"/>
<path d="M15.332 7.91016H7.32422C3.28555 7.91016 0 11.1957 0 15.2344V23.2422C0 25.6652 1.97129 27.6367 4.39453 27.6367C6.81777 27.6367 8.78906 25.6652 8.78906 23.2422V16.6992H15.332C17.7553 16.6992 19.7266 14.7277 19.7266 12.3047C19.7266 9.88164 17.7553 7.91016 15.332 7.91016ZM15.332 13.7695H7.32422C6.51523 13.7695 5.85938 14.4252 5.85938 15.2344V23.2422C5.85938 24.05 5.20234 24.707 4.39453 24.707C3.58672 24.707 2.92969 24.05 2.92969 23.2422V15.2344C2.92969 12.8113 4.90098 10.8398 7.32422 10.8398H15.332C16.1398 10.8398 16.7969 11.4969 16.7969 12.3047C16.7969 13.1125 16.1398 13.7695 15.332 13.7695Z" fill="url(#paint1_linear)" fill-opacity="0.6"/>
<path d="M92.6758 7.91016H84.668C82.2447 7.91016 80.2734 9.88164 80.2734 12.3047C80.2734 14.7277 82.2447 16.6992 84.668 16.6992H91.2109V23.2422C91.2109 25.6652 93.1822 27.6367 95.6055 27.6367C98.0287 27.6367 100 25.6652 100 23.2422V15.2344C100 11.1957 96.7145 7.91016 92.6758 7.91016ZM97.0703 23.2422C97.0703 24.05 96.4133 24.707 95.6055 24.707C94.7977 24.707 94.1406 24.05 94.1406 23.2422V15.2344C94.1406 14.4252 93.4848 13.7695 92.6758 13.7695H84.668C83.8602 13.7695 83.2031 13.1125 83.2031 12.3047C83.2031 11.4969 83.8602 10.8398 84.668 10.8398H92.6758C95.099 10.8398 97.0703 12.8113 97.0703 15.2344V23.2422Z" fill="url(#paint2_linear)" fill-opacity="0.6"/>
<path d="M95.6055 72.3633C93.1822 72.3633 91.2109 74.3348 91.2109 76.7578V83.3008H84.668C82.2447 83.3008 80.2734 85.2723 80.2734 87.6953C80.2734 90.1184 82.2447 92.0898 84.668 92.0898H92.6758C96.7145 92.0898 100 88.8043 100 84.7656V76.7578C100 74.3348 98.0287 72.3633 95.6055 72.3633ZM97.0703 84.7656C97.0703 87.1887 95.099 89.1602 92.6758 89.1602H84.668C83.8602 89.1602 83.2031 88.5031 83.2031 87.6953C83.2031 86.8875 83.8602 86.2305 84.668 86.2305H92.6758C93.4848 86.2305 94.1406 85.5748 94.1406 84.7656V76.7578C94.1406 75.95 94.7977 75.293 95.6055 75.293C96.4133 75.293 97.0703 75.95 97.0703 76.7578V84.7656Z" fill="url(#paint3_linear)" fill-opacity="0.6"/>
<path d="M15.332 83.3008H8.78906V76.7578C8.78906 74.3348 6.81777 72.3633 4.39453 72.3633C1.97129 72.3633 0 74.3348 0 76.7578V84.7656C0 88.8043 3.28555 92.0898 7.32422 92.0898H15.332C17.7553 92.0898 19.7266 90.1184 19.7266 87.6953C19.7266 85.2723 17.7553 83.3008 15.332 83.3008ZM15.332 89.1602H7.32422C4.90098 89.1602 2.92969 87.1887 2.92969 84.7656V76.7578C2.92969 75.95 3.58672 75.293 4.39453 75.293C5.20234 75.293 5.85938 75.95 5.85938 76.7578V84.7656C5.85938 85.5748 6.51523 86.2305 7.32422 86.2305H15.332C16.1398 86.2305 16.7969 86.8875 16.7969 87.6953C16.7969 88.5031 16.1398 89.1602 15.332 89.1602Z" fill="url(#paint4_linear)" fill-opacity="0.6"/>
<path d="M50 0C47.5768 0 45.6055 1.97148 45.6055 4.39453V12.207C45.6055 14.6301 47.5768 16.6016 50 16.6016C52.4232 16.6016 54.3945 14.6301 54.3945 12.207V4.39453C54.3945 1.97148 52.4232 0 50 0ZM51.4648 12.207C51.4648 13.0148 50.8078 13.6719 50 13.6719C49.1922 13.6719 48.5352 13.0148 48.5352 12.207V4.39453C48.5352 3.58672 49.1922 2.92969 50 2.92969C50.8078 2.92969 51.4648 3.58672 51.4648 4.39453V12.207Z" fill="url(#paint5_linear)" fill-opacity="0.6"/>
<path d="M50 83.3984C47.5768 83.3984 45.6055 85.3699 45.6055 87.793V95.6055C45.6055 98.0285 47.5768 100 50 100C52.4232 100 54.3945 98.0285 54.3945 95.6055V87.793C54.3945 85.3699 52.4232 83.3984 50 83.3984ZM51.4648 95.6055C51.4648 96.4133 50.8078 97.0703 50 97.0703C49.1922 97.0703 48.5352 96.4133 48.5352 95.6055V87.793C48.5352 86.9852 49.1922 86.3281 50 86.3281C50.8078 86.3281 51.4648 86.9852 51.4648 87.793V95.6055Z" fill="url(#paint6_linear)" fill-opacity="0.6"/>
<path d="M95.6055 45.6055H87.793C85.3697 45.6055 83.3984 47.577 83.3984 50C83.3984 52.423 85.3697 54.3945 87.793 54.3945H95.6055C98.0287 54.3945 100 52.423 100 50C100 47.577 98.0287 45.6055 95.6055 45.6055ZM95.6055 51.4648H87.793C86.9852 51.4648 86.3281 50.8078 86.3281 50C86.3281 49.1922 86.9852 48.5352 87.793 48.5352H95.6055C96.4133 48.5352 97.0703 49.1922 97.0703 50C97.0703 50.8078 96.4133 51.4648 95.6055 51.4648Z" fill="url(#paint7_linear)" fill-opacity="0.6"/>
<path d="M12.207 45.6055H4.39453C1.97129 45.6055 0 47.577 0 50C0 52.423 1.97129 54.3945 4.39453 54.3945H12.207C14.6303 54.3945 16.6016 52.423 16.6016 50C16.6016 47.577 14.6303 45.6055 12.207 45.6055ZM12.207 51.4648H4.39453C3.58672 51.4648 2.92969 50.8078 2.92969 50C2.92969 49.1922 3.58672 48.5352 4.39453 48.5352H12.207C13.0148 48.5352 13.6719 49.1922 13.6719 50C13.6719 50.8078 13.0148 51.4648 12.207 51.4648Z" fill="url(#paint8_linear)" fill-opacity="0.6"/>
<path d="M58.2086 54.4922C57.5441 54.031 56.6314 54.1959 56.1699 54.8601L49.8449 63.9717L44.148 58.3101C43.5742 57.7398 42.6467 57.7427 42.0766 58.3164C41.5062 58.8902 41.5092 59.8178 42.083 60.3879L49.0193 67.2812C49.2947 67.5553 49.6666 67.707 50.0515 67.707C50.0957 67.707 50.1402 67.7051 50.1846 67.701C50.616 67.6617 51.008 67.4334 51.2551 67.0777L58.5765 56.5308C59.0379 55.8662 58.8732 54.9535 58.2086 54.4922Z" fill="url(#paint9_linear)" fill-opacity="0.6"/>
<defs>
<linearGradient id="paint0_linear" x1="100" y1="1.10587e-05" x2="-14.0149" y2="19.9652" gradientUnits="userSpaceOnUse">
<stop stop-color="#5CD384"/>
<stop offset="1" stop-color="#326BD2"/>
</linearGradient>
<linearGradient id="paint1_linear" x1="100" y1="1.10587e-05" x2="-14.0149" y2="19.9652" gradientUnits="userSpaceOnUse">
<stop stop-color="#5CD384"/>
<stop offset="1" stop-color="#326BD2"/>
</linearGradient>
<linearGradient id="paint2_linear" x1="100" y1="1.10587e-05" x2="-14.0149" y2="19.9652" gradientUnits="userSpaceOnUse">
<stop stop-color="#5CD384"/>
<stop offset="1" stop-color="#326BD2"/>
</linearGradient>
<linearGradient id="paint3_linear" x1="100" y1="1.10587e-05" x2="-14.0149" y2="19.9652" gradientUnits="userSpaceOnUse">
<stop stop-color="#5CD384"/>
<stop offset="1" stop-color="#326BD2"/>
</linearGradient>
<linearGradient id="paint4_linear" x1="100" y1="1.10587e-05" x2="-14.0149" y2="19.9652" gradientUnits="userSpaceOnUse">
<stop stop-color="#5CD384"/>
<stop offset="1" stop-color="#326BD2"/>
</linearGradient>
<linearGradient id="paint5_linear" x1="100" y1="1.10587e-05" x2="-14.0149" y2="19.9652" gradientUnits="userSpaceOnUse">
<stop stop-color="#5CD384"/>
<stop offset="1" stop-color="#326BD2"/>
</linearGradient>
<linearGradient id="paint6_linear" x1="100" y1="1.10587e-05" x2="-14.0149" y2="19.9652" gradientUnits="userSpaceOnUse">
<stop stop-color="#5CD384"/>
<stop offset="1" stop-color="#326BD2"/>
</linearGradient>
<linearGradient id="paint7_linear" x1="100" y1="1.10587e-05" x2="-14.0149" y2="19.9652" gradientUnits="userSpaceOnUse">
<stop stop-color="#5CD384"/>
<stop offset="1" stop-color="#326BD2"/>
</linearGradient>
<linearGradient id="paint8_linear" x1="100" y1="1.10587e-05" x2="-14.0149" y2="19.9652" gradientUnits="userSpaceOnUse">
<stop stop-color="#5CD384"/>
<stop offset="1" stop-color="#326BD2"/>
</linearGradient>
<linearGradient id="paint9_linear" x1="100" y1="1.10587e-05" x2="-14.0149" y2="19.9652" gradientUnits="userSpaceOnUse">
<stop stop-color="#5CD384"/>
<stop offset="1" stop-color="#326BD2"/>
</linearGradient>
</defs>
</svg>
