<svg width="78" height="78" viewBox="0 0 78 78" fill="none" xmlns="http://www.w3.org/2000/svg">
<path fill-rule="evenodd" clip-rule="evenodd" d="M10.8333 35H16.6333C18.8273 35 20.6 36.8228 20.6 39.05C20.6 41.2772 18.8273 43.1 16.6333 43.1H13.2667V44.375H17.85V46.85H13.2667V50.6H10.8333V46.85H9V44.375H10.8333V43.1H9V40.625H10.8333V35ZM13.2667 40.625H16.6333C17.4723 40.625 18.1667 39.9246 18.1667 39.05C18.1667 38.1754 17.4723 37.475 16.6333 37.475H13.2667V40.625Z" fill="url(#paint0_linear)" fill-opacity="0.6"/>
<path d="M66.5 17.75C65.9675 17.75 65.4412 17.7987 64.9212 17.8725C63.185 7.73875 54.43 0.25 44 0.25C35.4287 0.25 27.7275 5.42375 24.4325 13.2562C23.4938 12.9237 22.5 12.75 21.5 12.75C18.0338 12.75 14.9125 14.84 13.5238 17.9425C12.8663 17.8225 12.1912 17.75 11.5 17.75C5.29625 17.75 0.25 22.7975 0.25 29C0.25 31.3363 0.985 33.6138 2.3325 35.51C1.02125 37.6163 0.25 40.0913 0.25 42.75C0.25 49.77 5.54125 55.5675 12.3425 56.39L2.2325 66.5L9 73.2675L22.75 59.5175L29 65.7675L54 40.7675L59.8838 46.6512L60.7987 40.25H66.5C72.7038 40.25 77.75 35.2025 77.75 29C77.75 22.7975 72.7038 17.75 66.5 17.75ZM2.75 42.75C2.75 36.5475 7.79625 31.5 14 31.5C20.2038 31.5 25.25 36.5475 25.25 42.75C25.25 48.9525 20.2038 54 14 54C7.79625 54 2.75 48.9525 2.75 42.75ZM27.5112 40.25H40.9825L29 52.2325L26.08 49.3125C27.1437 47.3613 27.75 45.125 27.75 42.75C27.75 41.895 27.6612 41.0625 27.5112 40.25ZM54 37.2325L29 62.2325L22.75 55.9825L9 69.7325L5.7675 66.5L15.9175 56.35C19.4263 55.8575 22.5163 54.0487 24.6562 51.4237L29 55.7675L50.7675 34L46.6512 29.8838L60.0262 27.9738L58.1162 41.3488L54 37.2325ZM66.5 37.75H61.155L62.9725 25.0262L41.3475 28.1162L47.2325 34L43.4825 37.75H26.795C24.7887 32.6362 19.8162 29 14 29C10.0287 29 6.4575 30.7025 3.945 33.4025C3.16875 32.0725 2.75 30.5525 2.75 29C2.75 24.175 6.67625 20.25 11.5 20.25C16.3237 20.25 20.25 24.175 20.25 29H22.75C22.75 24.3738 19.9412 20.3925 15.94 18.6663C16.9925 16.6125 19.1338 15.25 21.5 15.25C22.555 15.25 23.5988 15.52 24.52 16.03L25.8188 16.7488L26.3062 15.3475C28.9263 7.8125 36.0375 2.75 44 2.75C53.2687 2.75 61.0362 9.4525 62.49 18.49C61.2412 18.9662 60.0775 19.6637 59.0588 20.5625L60.7137 22.4363C62.31 21.0263 64.3662 20.25 66.5 20.25C71.3238 20.25 75.25 24.175 75.25 29C75.25 33.825 71.3238 37.75 66.5 37.75Z" fill="url(#paint1_linear)" fill-opacity="0.6"/>
<path d="M0.25 75.25H2.75V77.75H0.25V75.25Z" fill="url(#paint2_linear)" fill-opacity="0.6"/>
<path d="M75.25 75.25H77.75V77.75H75.25V75.25Z" fill="url(#paint3_linear)" fill-opacity="0.6"/>
<path d="M56.5 50.25H49V75.25H46.5V60.25H39V75.25H36.5V67.75H29V75.25H26.5V65.25H19V75.25H5.25V77.75H72.75V75.25H56.5V50.25ZM51.5 52.75H54V75.25H51.5V52.75ZM41.5 62.75H44V75.25H41.5V62.75ZM31.5 70.25H34V75.25H31.5V70.25ZM21.5 67.75H24V75.25H21.5V67.75Z" fill="url(#paint4_linear)" fill-opacity="0.6"/>
<path d="M44.0001 5.25C37.1238 5.25 30.9651 9.60375 28.6751 16.0837L31.0313 16.9175C32.9701 11.4337 38.1813 7.75 44.0001 7.75V5.25Z" fill="url(#paint5_linear)" fill-opacity="0.6"/>
<path d="M70.25 29C70.25 31.0675 68.5675 32.75 66.5 32.75V35.25C69.9463 35.25 72.75 32.4463 72.75 29H70.25Z" fill="url(#paint6_linear)" fill-opacity="0.6"/>
<path d="M5.25 29H7.75C7.75 26.9325 9.4325 25.25 11.5 25.25V22.75C8.05375 22.75 5.25 25.5537 5.25 29Z" fill="url(#paint7_linear)" fill-opacity="0.6"/>
<defs>
<linearGradient id="paint0_linear" x1="77.75" y1="0.250009" x2="-10.6115" y2="15.723" gradientUnits="userSpaceOnUse">
<stop stop-color="#5CD384"/>
<stop offset="1" stop-color="#326BD2"/>
</linearGradient>
<linearGradient id="paint1_linear" x1="77.75" y1="0.250009" x2="-10.6115" y2="15.723" gradientUnits="userSpaceOnUse">
<stop stop-color="#5CD384"/>
<stop offset="1" stop-color="#326BD2"/>
</linearGradient>
<linearGradient id="paint2_linear" x1="77.75" y1="0.250009" x2="-10.6115" y2="15.723" gradientUnits="userSpaceOnUse">
<stop stop-color="#5CD384"/>
<stop offset="1" stop-color="#326BD2"/>
</linearGradient>
<linearGradient id="paint3_linear" x1="77.75" y1="0.250009" x2="-10.6115" y2="15.723" gradientUnits="userSpaceOnUse">
<stop stop-color="#5CD384"/>
<stop offset="1" stop-color="#326BD2"/>
</linearGradient>
<linearGradient id="paint4_linear" x1="77.75" y1="0.250009" x2="-10.6115" y2="15.723" gradientUnits="userSpaceOnUse">
<stop stop-color="#5CD384"/>
<stop offset="1" stop-color="#326BD2"/>
</linearGradient>
<linearGradient id="paint5_linear" x1="77.75" y1="0.250009" x2="-10.6115" y2="15.723" gradientUnits="userSpaceOnUse">
<stop stop-color="#5CD384"/>
<stop offset="1" stop-color="#326BD2"/>
</linearGradient>
<linearGradient id="paint6_linear" x1="77.75" y1="0.250009" x2="-10.6115" y2="15.723" gradientUnits="userSpaceOnUse">
<stop stop-color="#5CD384"/>
<stop offset="1" stop-color="#326BD2"/>
</linearGradient>
<linearGradient id="paint7_linear" x1="77.75" y1="0.250009" x2="-10.6115" y2="15.723" gradientUnits="userSpaceOnUse">
<stop stop-color="#5CD384"/>
<stop offset="1" stop-color="#326BD2"/>
</linearGradient>
</defs>
</svg>
