<svg width="64" height="64" viewBox="0 0 64 64" fill="none" xmlns="http://www.w3.org/2000/svg">
<path fill-rule="evenodd" clip-rule="evenodd" d="M56.6655 64H9.55754V50.3208L24.5041 35.2068C28.5828 30.9412 31.1787 28.107 32.3647 26.6447C33.5583 25.1456 34.2803 23.9866 34.6428 23.1409L34.6519 23.1196L34.6614 23.0986C35.0329 22.2774 35.2158 21.429 35.2158 20.5318C35.2158 19.5624 34.9281 19.0326 34.5102 18.6598C34.0776 18.274 33.3116 17.9272 31.8907 17.9272C30.5148 17.9272 29.0353 18.3225 27.4248 19.2297L27.4153 19.2351C25.7337 20.172 23.7447 21.6119 21.4393 23.6064L19.6747 25.1331L8 11.4677L9.69063 9.95662C12.7519 7.22043 15.4306 5.17184 17.7007 3.90248C19.9419 2.623 22.3619 1.65476 24.952 0.992859L24.9579 0.991344C27.6052 0.322243 30.5224 0 33.6919 0C37.7542 0 41.4618 0.715804 44.7683 2.20456C48.1127 3.69835 50.7802 5.87687 52.675 8.76029C54.5921 11.6099 55.5447 14.8224 55.5447 18.3303C55.5447 20.8181 55.227 23.1632 54.5696 25.3501C53.942 27.5263 52.9656 29.6434 51.6619 31.7003L51.6579 31.7066L51.6539 31.7128C50.3529 33.7367 48.6509 35.8271 46.577 37.9846C44.9869 39.66 42.0476 42.4447 37.7958 46.313H56.6655V64ZM32.2109 48.6319V48.2316C32.9509 47.5677 33.6615 46.9282 34.3427 46.313C39.6315 41.537 43.1505 38.2271 44.8999 36.3831C46.9014 34.3016 48.5025 32.3269 49.7034 30.4589C50.9042 28.5642 51.7848 26.6428 52.3452 24.6948C52.9323 22.7467 53.2259 20.6252 53.2259 18.3303C53.2259 15.2614 52.3986 12.4994 50.7441 10.0443C49.1163 7.56258 46.808 5.65455 43.8192 4.32027C40.857 2.98598 37.4813 2.31884 33.6919 2.31884C30.6765 2.31884 27.9545 2.62573 25.5261 3.2395C23.1244 3.85327 20.8961 4.74724 18.8413 5.92141C16.7866 7.06889 14.2514 8.99026 11.2359 11.6855L19.9221 21.8528C20.1326 21.6707 20.3411 21.4925 20.5476 21.3184C22.6712 19.5276 24.5842 18.158 26.2867 17.2095C28.1813 16.142 30.0493 15.6083 31.8907 15.6083C33.6786 15.6083 35.0662 16.0486 36.0536 16.9293C37.041 17.8099 37.5347 19.0107 37.5347 20.5318C37.5347 21.7594 37.2812 22.9335 36.7741 24.0543C36.2938 25.1751 35.4265 26.5228 34.1723 28.0972C32.9181 29.645 30.2495 32.5537 26.1666 36.8234L11.8764 51.2737V61.6812H54.3467V48.6319H32.2109Z" fill="url(#paint0_linear)" fill-opacity="0.6"/>
<defs>
<linearGradient id="paint0_linear" x1="56.6655" y1="5.44614e-06" x2="0.474442" y2="7.48204" gradientUnits="userSpaceOnUse">
<stop stop-color="#5CD384"/>
<stop offset="1" stop-color="#326BD2"/>
</linearGradient>
</defs>
</svg>
