<svg width="64" height="64" viewBox="0 0 64 64" fill="none" xmlns="http://www.w3.org/2000/svg">
<path fill-rule="evenodd" clip-rule="evenodd" d="M13.6377 46.5061C15.3458 47.1514 17.1898 47.7102 19.1697 48.1824C22.1071 48.8767 24.6306 49.2239 26.7402 49.2239C29.6776 49.2239 31.9341 48.6097 33.5096 47.3813C35.0851 46.1263 35.8729 44.2837 35.8729 41.8537C35.8729 39.6106 35.0718 37.8615 33.4696 36.6064C31.8673 35.3513 29.4373 34.7238 26.1794 34.7238C23.696 34.7238 21.0123 35.1911 18.1283 36.1257L12.3202 33.2417L14.5233 2.31884H47.9296V15.4971H27.9819L27.2609 23.2278C28.1628 23.0544 28.952 22.916 29.6286 22.8127C30.5146 22.6773 31.2074 22.6021 31.7071 22.5869C32.5883 22.5335 33.4028 22.5068 34.1505 22.5068C37.5152 22.5068 40.546 23.2946 43.2431 24.8701C45.9669 26.4189 48.0765 28.622 49.5719 31.4793C51.094 34.3366 51.8551 37.6345 51.8551 41.373C51.8551 47.9154 49.879 52.9357 45.9268 56.4339C42.0014 59.9321 36.0465 61.6812 28.0621 61.6812C21.2259 61.6812 15.6448 60.6264 11.3188 58.5168V45.5388C12.0618 45.8803 12.8347 46.2028 13.6377 46.5061ZM47.4669 58.1674C42.9436 62.1969 36.3285 64 28.0621 64C21.0118 64 15.0494 62.9158 10.3025 60.601L9 59.9659V41.9205L12.2875 43.4319C14.4507 44.4265 16.9193 45.2616 19.7052 45.9263C22.535 46.595 24.8693 46.905 26.7402 46.905C29.3866 46.905 31.0577 46.348 32.0743 45.56C32.9769 44.8366 33.554 43.7328 33.554 41.8537C33.554 40.24 33.0183 39.1985 32.0396 38.4318C31.0265 37.6382 29.2087 37.0426 26.1794 37.0426C23.9854 37.0426 21.5453 37.4559 18.8432 38.3316L17.9438 38.6231L9.8968 34.6273L12.3638 0H50.2485V17.816H30.0946L29.8501 20.4375C30.533 20.3444 31.1196 20.2869 31.5996 20.2704C32.5072 20.2159 33.3581 20.188 34.1505 20.188C37.8887 20.188 41.3247 21.0668 44.4011 22.8611C47.5152 24.6347 49.9293 27.1648 51.6223 30.3963C53.3465 33.6361 54.1739 37.3165 54.1739 41.373C54.1739 48.4059 52.0298 54.1269 47.4669 58.1674Z" fill="url(#paint0_linear)" fill-opacity="0.6"/>
<defs>
<linearGradient id="paint0_linear" x1="54.1739" y1="5.44614e-06" x2="1.88836" y2="6.4625" gradientUnits="userSpaceOnUse">
<stop stop-color="#5CD384"/>
<stop offset="1" stop-color="#326BD2"/>
</linearGradient>
</defs>
</svg>
