<svg width="64" height="64" viewBox="0 0 64 64" fill="none" xmlns="http://www.w3.org/2000/svg">
<path fill-rule="evenodd" clip-rule="evenodd" d="M50.1552 26.4181C48.9574 27.8179 47.5298 29.0135 45.8926 30.0174C48.0173 30.839 49.8509 31.9399 51.3489 33.3561C54.3094 36.1548 55.6887 39.9268 55.6887 44.382C55.6887 50.4785 53.214 55.4109 48.3318 58.9381C43.5562 62.4073 37.1142 64 29.2773 64C26.0603 64 23.0468 63.7684 20.2428 63.2964L20.2391 63.2958C17.4239 62.8172 14.4168 61.953 11.2247 60.7253L9.73827 60.1536V41.8193L13.1113 43.541C15.4827 44.7514 17.8756 45.6458 20.2919 46.2327C22.7852 46.8054 25.0262 47.0791 27.0261 47.0791C30.3344 47.0791 32.2858 46.6028 33.2782 45.9996C34.0875 45.4988 34.5417 44.7833 34.5417 43.4341C34.5417 42.2426 34.2395 41.6914 33.9707 41.4139L33.9583 41.4011L33.9461 41.3881C33.5748 40.9928 32.7656 40.4957 31.1628 40.124L31.1473 40.1205L31.1318 40.1167C29.5682 39.7314 27.405 39.5126 24.5773 39.5126H18.7038V23.1446H24.6563C28.4965 23.1446 31.0262 22.6409 32.5163 21.8785C33.2278 21.5145 33.629 21.1288 33.8587 20.7763C34.0805 20.4358 34.2257 19.9998 34.2257 19.3811C34.2257 18.5646 33.9734 18.2216 33.5422 17.9532L33.5322 17.947L33.5223 17.9407C32.865 17.5225 31.7844 17.1974 30.0672 17.1974C26.9181 17.1974 23.5221 18.2516 19.8448 20.556L17.8721 21.7922L9 7.51025L10.8196 6.25533C14.0591 4.02122 17.4095 2.4015 20.8693 1.42932L20.8741 1.42798C24.3308 0.464657 28.2198 0 32.516 0C38.7663 0 43.9799 1.23445 47.9033 3.97173C51.9249 6.7775 53.9903 10.7544 53.9903 15.6685C53.9903 19.7632 52.725 23.3839 50.1628 26.4091L50.1552 26.4181ZM19.7588 48.4895C17.9454 48.0499 16.1511 47.451 14.376 46.6929C13.5993 46.3612 12.8264 45.999 12.0571 45.6063V58.561C15.1378 59.7459 17.9947 60.5621 20.6277 61.0097C23.2871 61.4574 26.1703 61.6812 29.2773 61.6812C36.8342 61.6812 42.7323 60.1408 46.9715 57.0601C51.237 53.9795 53.3698 49.7534 53.3698 44.382C53.3698 37.69 49.9115 33.398 42.995 31.506C41.7668 31.17 40.4295 30.9097 38.9832 30.7251C38.9602 30.7222 38.9373 30.7193 38.9143 30.7164V30.4794C38.9246 30.4765 38.9349 30.4736 38.9452 30.4707C40.3361 30.0793 41.6165 29.6087 42.7863 29.0589C45.0805 27.9806 46.9495 26.5978 48.3933 24.9105C50.5788 22.3301 51.6715 19.2494 51.6715 15.6685C51.6715 11.5082 49.9732 8.24322 46.5765 5.87347C43.1799 3.50372 38.493 2.31884 32.516 2.31884C28.3821 2.31884 24.709 2.76646 21.4966 3.6617C18.3106 4.55694 15.1905 6.05779 12.1361 8.16423L18.6134 18.5911C18.6871 18.545 18.7606 18.4993 18.8342 18.454C22.7053 16.0704 26.4497 14.8785 30.0672 14.8785C32.042 14.8785 33.6087 15.2472 34.7673 15.9844C35.9521 16.7217 36.5446 17.8539 36.5446 19.3811C36.5446 23.436 32.5818 25.4634 24.6563 25.4634H21.0227V37.1937H24.5773C27.5 37.1937 29.8698 37.4175 31.6866 37.8651C33.5034 38.2864 34.8199 38.9315 35.6362 39.8004C36.4524 40.643 36.8605 41.8542 36.8605 43.4341C36.8605 45.4878 36.0706 47.0019 34.4908 47.9761C32.9373 48.924 30.449 49.3979 27.0261 49.3979C24.8143 49.3979 22.3919 49.0951 19.7588 48.4895Z" fill="url(#paint0_linear)" fill-opacity="0.6"/>
<defs>
<linearGradient id="paint0_linear" x1="55.6887" y1="5.44614e-06" x2="1.70529" y2="6.89609" gradientUnits="userSpaceOnUse">
<stop stop-color="#5CD384"/>
<stop offset="1" stop-color="#326BD2"/>
</linearGradient>
</defs>
</svg>
