<svg width="64" height="64" viewBox="0 0 64 64" fill="none" xmlns="http://www.w3.org/2000/svg">
<path fill-rule="evenodd" clip-rule="evenodd" d="M57.6821 52.5092H51.1449V64H30.6718V52.5092H7V37.6982L32.7824 0H51.1449V35.8935H57.6821V52.5092ZM48.826 38.2123V2.31884H34.0058L9.31884 38.4154V50.1904H32.9907V61.6812H48.826V50.1904H55.3632V38.2123H48.826ZM30.7658 26.8134C30.4485 27.3626 30.1209 27.9005 29.783 28.4269L23.2052 38.2123H32.9907V31.3097C32.9907 30.298 33.0153 29.0154 33.0645 27.462C33.0785 27.0205 33.0945 26.5571 33.1125 26.0719C33.1335 25.6411 33.1535 25.2501 33.1725 24.8988C33.2323 23.791 33.282 23.0787 33.3216 22.762C33.3341 22.6616 33.3456 22.601 33.3561 22.58H32.9095C32.39 23.7565 31.8316 24.89 31.2345 25.9803C31.2305 25.9875 31.2266 25.9947 31.2226 26.0019C31.0728 26.2751 30.9205 26.5456 30.7658 26.8134ZM30.6719 31.2611L27.558 35.8935H30.6718V31.3097C30.6718 31.2936 30.6718 31.2774 30.6719 31.2611Z" fill="url(#paint0_linear)" fill-opacity="0.6"/>
<defs>
<linearGradient id="paint0_linear" x1="57.6821" y1="5.44614e-06" x2="-0.751284" y2="8.10301" gradientUnits="userSpaceOnUse">
<stop stop-color="#5CD384"/>
<stop offset="1" stop-color="#326BD2"/>
</linearGradient>
</defs>
</svg>
