<svg width="64" height="64" viewBox="0 0 64 64" fill="none" xmlns="http://www.w3.org/2000/svg">
<path fill-rule="evenodd" clip-rule="evenodd" d="M12.6486 15.9627L12.6509 15.9578C15.161 10.5381 18.8953 6.45244 23.86 3.82411L23.8649 3.82148C28.7839 1.23255 34.7209 0 41.5727 0C44.0562 0 46.9088 0.236592 50.1158 0.694736L52.1067 0.979151V17.9954L49.355 17.4726C46.8839 17.0031 44.1737 16.7629 41.2172 16.7629C36.2879 16.7629 33.0689 17.8533 31.1142 19.6065C30.4055 20.2421 29.7808 21.0598 29.2646 22.0886C29.2792 22.0799 29.2939 22.0713 29.3085 22.0626C31.6288 20.6978 34.3121 20.0639 37.2676 20.0639C42.9438 20.0639 47.6182 21.9244 50.9563 25.8505C54.2715 29.6919 55.7798 34.8917 55.7798 41.1433C55.7798 47.9428 53.8479 53.5913 49.7528 57.807L49.747 57.8129C45.6247 62.0261 39.9613 64 33.0811 64C25.7115 64 19.6935 61.5822 15.335 56.5669C11.011 51.5913 9 44.793 9 36.4828C9 28.2355 10.1679 21.3518 12.6486 15.9627ZM28.0329 26.017C27.2061 26.8874 26.4796 27.914 25.8533 29.0971H25.3794C25.3831 29.0152 25.3871 28.9337 25.3915 28.8525C25.4298 28.1327 25.4908 27.4413 25.5745 26.7782C25.6551 26.1399 25.7567 25.5278 25.8794 24.9421C26.5252 21.8593 27.754 19.5053 29.5659 17.8802C32.12 15.5895 36.0038 14.4441 41.2172 14.4441C43.4151 14.4441 45.499 14.5714 47.469 14.826C48.2603 14.9283 49.0333 15.0511 49.7878 15.1945V2.99027C46.6545 2.54265 43.9161 2.31884 41.5727 2.31884C34.99 2.31884 29.4475 3.50372 24.9449 5.87347C20.4687 8.24322 17.0721 11.9295 14.755 16.9323C12.4642 21.9088 11.3188 28.4256 11.3188 36.4828C11.3188 44.4346 13.241 50.6223 17.0852 55.0459C20.9295 59.4694 26.2614 61.6812 33.0811 61.6812C39.5057 61.6812 44.5085 59.8512 48.0895 56.1912C51.6705 52.505 53.461 47.489 53.461 41.1433C53.461 35.2452 52.0391 30.6506 49.1954 27.3592C46.378 24.0416 42.4021 22.3828 37.2676 22.3828C33.4127 22.3828 30.3344 23.5942 28.0329 26.017ZM34.9697 45.9819L34.9728 45.9782C35.513 45.3299 36.0152 43.9877 36.0152 41.4593C36.0152 39.3512 35.5956 38.1965 35.1388 37.6073C34.7689 37.1302 34.1629 36.7478 32.8836 36.7478C31.6836 36.7478 30.8573 37.1239 30.2027 37.8195C29.5177 38.5743 29.1596 39.4777 29.1596 40.6693C29.1596 42.8689 29.6274 44.4672 30.3894 45.6233C31.086 46.6563 31.8201 47.0001 32.7256 47.0001C33.7197 47.0001 34.3991 46.6695 34.9697 45.9819ZM28.4996 36.2458C29.6318 35.0346 31.0931 34.429 32.8836 34.429C36.5172 34.429 38.334 36.7724 38.334 41.4593C38.334 44.1976 37.8074 46.1988 36.7542 47.4626C35.7273 48.7002 34.3844 49.3189 32.7256 49.3189C30.9615 49.3189 29.5396 48.5159 28.4601 46.9097C27.3805 45.2772 26.8407 43.1971 26.8407 40.6693C26.8407 38.9315 27.3937 37.457 28.4996 36.2458Z" fill="url(#paint0_linear)" fill-opacity="0.6"/>
<defs>
<linearGradient id="paint0_linear" x1="55.7798" y1="5.44614e-06" x2="1.69444" y2="6.9226" gradientUnits="userSpaceOnUse">
<stop stop-color="#5CD384"/>
<stop offset="1" stop-color="#326BD2"/>
</linearGradient>
</defs>
</svg>
