<svg width="222" height="56" viewBox="0 0 222 56" fill="none" xmlns="http://www.w3.org/2000/svg">
<path d="M0 6C0 2.68629 2.68629 0 6 0H215C218.314 0 221 2.68629 221 6V50C221 53.3137 218.314 56 215 56H6C2.68629 56 0 53.3137 0 50V6Z" fill="white" fill-opacity="0.2"/>
<path fill-rule="evenodd" clip-rule="evenodd" d="M215 2H6C3.79086 2 2 3.79086 2 6V50C2 52.2091 3.79086 54 6 54H215C217.209 54 219 52.2091 219 50V6C219 3.79086 217.209 2 215 2ZM6 0C2.68629 0 0 2.68629 0 6V50C0 53.3137 2.68629 56 6 56H215C218.314 56 221 53.3137 221 50V6C221 2.68629 218.314 0 215 0H6Z" fill="url(#paint1_linear)"/>
<path d="M28.8506 27.9648C28.8506 29.5352 28.4551 30.7627 27.6641 31.6475C26.873 32.5264 25.7803 32.9658 24.3857 32.9658C23.5244 32.9658 22.7598 32.7637 22.0918 32.3594C21.4238 31.9551 20.9082 31.375 20.5449 30.6191C20.1816 29.8633 20 28.9785 20 27.9648C20 26.3945 20.3926 25.1729 21.1777 24.2998C21.9629 23.4209 23.0527 22.9814 24.4473 22.9814C25.7949 22.9814 26.8643 23.4297 27.6553 24.3262C28.4521 25.2227 28.8506 26.4355 28.8506 27.9648ZM21.5117 27.9648C21.5117 29.1953 21.7578 30.1328 22.25 30.7773C22.7422 31.4219 23.4658 31.7441 24.4209 31.7441C25.376 31.7441 26.0996 31.4248 26.5918 30.7861C27.0898 30.1416 27.3389 29.2012 27.3389 27.9648C27.3389 26.7402 27.0898 25.8115 26.5918 25.1787C26.0996 24.54 25.3701 24.2207 24.4033 24.2207C23.4482 24.2207 22.7275 24.5342 22.2412 25.1611C21.7549 25.7881 21.5117 26.7227 21.5117 27.9648Z" fill="white"/>
<path d="M37.9121 24.4053H34.7832V32.79H33.3242V24.4053H30.2305V23.1572H37.9121V24.4053Z" fill="white"/>
<path d="M45.4531 32.79L50.7793 21.2852H43.7744V19.9404H52.3262V21.1094L47.0703 32.79H45.4531Z" fill="white"/>
<path d="M58.1445 24.9414C59.498 24.9414 60.5615 25.2783 61.335 25.9521C62.1143 26.6201 62.5039 27.5371 62.5039 28.7031C62.5039 30.0332 62.0791 31.0762 61.2295 31.832C60.3857 32.5879 59.2197 32.9658 57.7314 32.9658C56.2842 32.9658 55.1797 32.7344 54.418 32.2715V30.8652C54.8281 31.1289 55.3379 31.3369 55.9473 31.4893C56.5566 31.6357 57.1572 31.709 57.749 31.709C58.7803 31.709 59.5801 31.4658 60.1484 30.9795C60.7227 30.4932 61.0098 29.79 61.0098 28.8701C61.0098 27.0771 59.9111 26.1807 57.7139 26.1807C57.1572 26.1807 56.4131 26.2656 55.4814 26.4355L54.7256 25.9521L55.209 19.9404H61.5986V21.2852H56.457L56.1318 25.1436C56.8057 25.0088 57.4766 24.9414 58.1445 24.9414Z" fill="white"/>
<path d="M72.9453 26.3477C72.9453 28.5684 72.5938 30.2266 71.8906 31.3223C71.1934 32.418 70.124 32.9658 68.6826 32.9658C67.2998 32.9658 66.248 32.4062 65.5273 31.2871C64.8066 30.1621 64.4463 28.5156 64.4463 26.3477C64.4463 24.1094 64.7949 22.4482 65.4922 21.3643C66.1895 20.2803 67.2529 19.7383 68.6826 19.7383C70.0771 19.7383 71.1348 20.3037 71.8555 21.4346C72.582 22.5654 72.9453 24.2031 72.9453 26.3477ZM65.9229 26.3477C65.9229 28.2168 66.1426 29.5791 66.582 30.4346C67.0215 31.2842 67.7217 31.709 68.6826 31.709C69.6553 31.709 70.3584 31.2783 70.792 30.417C71.2314 29.5498 71.4512 28.1934 71.4512 26.3477C71.4512 24.502 71.2314 23.1514 70.792 22.2959C70.3584 21.4346 69.6553 21.0039 68.6826 21.0039C67.7217 21.0039 67.0215 21.4287 66.582 22.2783C66.1426 23.1221 65.9229 24.4785 65.9229 26.3477Z" fill="white"/>
<path d="M84.5557 32.9658C83.9287 32.9658 83.3545 32.8516 82.833 32.623C82.3174 32.3887 81.8838 32.0312 81.5322 31.5508H81.4268C81.4971 32.1133 81.5322 32.6465 81.5322 33.1504V37.1143H80.0732V23.1572H81.2598L81.4619 24.4756H81.5322C81.9072 23.9482 82.3438 23.5674 82.8418 23.333C83.3398 23.0986 83.9111 22.9814 84.5557 22.9814C85.833 22.9814 86.8174 23.418 87.5088 24.291C88.2061 25.1641 88.5547 26.3887 88.5547 27.9648C88.5547 29.5469 88.2002 30.7773 87.4912 31.6562C86.7881 32.5293 85.8096 32.9658 84.5557 32.9658ZM84.3447 24.2207C83.3604 24.2207 82.6484 24.4932 82.209 25.0381C81.7695 25.583 81.5439 26.4502 81.5322 27.6396V27.9648C81.5322 29.3184 81.7578 30.2881 82.209 30.874C82.6602 31.4541 83.3838 31.7441 84.3799 31.7441C85.2119 31.7441 85.8623 31.4072 86.3311 30.7334C86.8057 30.0596 87.043 29.1309 87.043 27.9473C87.043 26.7461 86.8057 25.8262 86.3311 25.1875C85.8623 24.543 85.2002 24.2207 84.3447 24.2207Z" fill="white"/>
<path d="M89.583 23.1572H91.1475L93.2568 28.6504C93.7197 29.9043 94.0068 30.8096 94.1182 31.3662H94.1885C94.2646 31.0674 94.4229 30.5576 94.6631 29.8369C94.9092 29.1104 95.7061 26.8838 97.0537 23.1572H98.6182L94.4785 34.126C94.0684 35.21 93.5879 35.9775 93.0371 36.4287C92.4922 36.8857 91.8213 37.1143 91.0244 37.1143C90.5791 37.1143 90.1396 37.0645 89.7061 36.9648V35.7959C90.0283 35.8662 90.3887 35.9014 90.7871 35.9014C91.7891 35.9014 92.5039 35.3389 92.9316 34.2139L93.4678 32.8428L89.583 23.1572Z" fill="white"/>
<path d="M99.6816 27.0156C99.6816 24.9062 99.9922 23.2627 100.613 22.085C101.234 20.9014 102.219 20.1631 103.566 19.8701C105.242 19.5127 106.719 19.2227 107.996 19L108.269 20.2832C106.235 20.623 104.782 20.8926 103.909 21.0918C103.06 21.2852 102.421 21.7422 101.993 22.4629C101.571 23.1836 101.34 24.165 101.299 25.4072H101.404C101.768 24.915 102.236 24.5283 102.811 24.2471C103.385 23.9658 103.985 23.8252 104.612 23.8252C105.796 23.8252 106.719 24.209 107.381 24.9766C108.043 25.7441 108.374 26.8076 108.374 28.167C108.374 29.6729 107.99 30.8506 107.223 31.7002C106.455 32.5439 105.386 32.9658 104.015 32.9658C102.661 32.9658 101.601 32.4473 100.833 31.4102C100.065 30.373 99.6816 28.9082 99.6816 27.0156ZM104.146 31.7441C105.934 31.7441 106.827 30.6045 106.827 28.3252C106.827 26.1514 106.016 25.0645 104.393 25.0645C103.947 25.0645 103.517 25.1582 103.101 25.3457C102.69 25.5273 102.312 25.7705 101.967 26.0752C101.627 26.3799 101.363 26.6934 101.176 27.0156C101.176 28.5566 101.419 29.7314 101.905 30.54C102.392 31.3428 103.139 31.7441 104.146 31.7441Z" fill="white"/>
<path d="M110.712 31.8584C110.712 31.4658 110.8 31.1699 110.976 30.9707C111.157 30.7656 111.415 30.6631 111.749 30.6631C112.089 30.6631 112.353 30.7656 112.54 30.9707C112.733 31.1699 112.83 31.4658 112.83 31.8584C112.83 32.2393 112.733 32.5322 112.54 32.7373C112.347 32.9424 112.083 33.0449 111.749 33.0449C111.45 33.0449 111.201 32.9541 111.002 32.7725C110.809 32.585 110.712 32.2803 110.712 31.8584Z" fill="white"/>
<path d="M122.234 27.1562C124.057 27.1562 124.968 26.6523 124.968 25.6445C124.968 24.6953 124.229 24.2207 122.753 24.2207C122.302 24.2207 121.892 24.2617 121.522 24.3438C121.153 24.4258 120.67 24.5898 120.072 24.8359L119.554 23.6494C120.55 23.2041 121.637 22.9814 122.814 22.9814C123.922 22.9814 124.795 23.21 125.434 23.667C126.072 24.1182 126.392 24.7363 126.392 25.5215C126.392 26.5996 125.791 27.3057 124.59 27.6396V27.71C125.328 27.9268 125.867 28.2373 126.207 28.6416C126.547 29.04 126.717 29.541 126.717 30.1445C126.717 31.0352 126.356 31.7295 125.636 32.2275C124.921 32.7197 123.931 32.9658 122.665 32.9658C121.276 32.9658 120.204 32.7578 119.448 32.3418V31.0059C120.521 31.5098 121.604 31.7617 122.7 31.7617C123.544 31.7617 124.18 31.6182 124.607 31.3311C125.041 31.0381 125.258 30.6191 125.258 30.0742C125.258 28.9551 124.347 28.3955 122.524 28.3955H121.188V27.1562H122.234Z" fill="white"/>
<path d="M135.022 32.79L134.732 31.4189H134.662C134.182 32.0225 133.701 32.4326 133.221 32.6494C132.746 32.8604 132.151 32.9658 131.437 32.9658C130.481 32.9658 129.731 32.7197 129.187 32.2275C128.647 31.7354 128.378 31.0352 128.378 30.127C128.378 28.1816 129.934 27.1621 133.045 27.0684L134.68 27.0156V26.418C134.68 25.6621 134.516 25.1055 134.188 24.748C133.865 24.3848 133.347 24.2031 132.632 24.2031C131.829 24.2031 130.921 24.4492 129.907 24.9414L129.459 23.8252C129.934 23.5674 130.452 23.3652 131.015 23.2188C131.583 23.0723 132.151 22.999 132.72 22.999C133.868 22.999 134.718 23.2539 135.269 23.7637C135.825 24.2734 136.104 25.0908 136.104 26.2158V32.79H135.022ZM131.727 31.7617C132.635 31.7617 133.347 31.5127 133.862 31.0146C134.384 30.5166 134.645 29.8193 134.645 28.9229V28.0527L133.186 28.1143C132.025 28.1553 131.188 28.3369 130.672 28.6592C130.162 28.9756 129.907 29.4707 129.907 30.1445C129.907 30.6719 130.065 31.0732 130.382 31.3486C130.704 31.624 131.152 31.7617 131.727 31.7617Z" fill="white"/>
<path d="M145.631 27.1562C147.453 27.1562 148.364 26.6523 148.364 25.6445C148.364 24.6953 147.626 24.2207 146.149 24.2207C145.698 24.2207 145.288 24.2617 144.919 24.3438C144.55 24.4258 144.066 24.5898 143.469 24.8359L142.95 23.6494C143.946 23.2041 145.033 22.9814 146.211 22.9814C147.318 22.9814 148.191 23.21 148.83 23.667C149.469 24.1182 149.788 24.7363 149.788 25.5215C149.788 26.5996 149.188 27.3057 147.986 27.6396V27.71C148.725 27.9268 149.264 28.2373 149.604 28.6416C149.943 29.04 150.113 29.541 150.113 30.1445C150.113 31.0352 149.753 31.7295 149.032 32.2275C148.317 32.7197 147.327 32.9658 146.062 32.9658C144.673 32.9658 143.601 32.7578 142.845 32.3418V31.0059C143.917 31.5098 145.001 31.7617 146.097 31.7617C146.94 31.7617 147.576 31.6182 148.004 31.3311C148.438 31.0381 148.654 30.6191 148.654 30.0742C148.654 28.9551 147.743 28.3955 145.921 28.3955H144.585V27.1562H145.631Z" fill="white"/>
<path d="M158.419 32.79L158.129 31.4189H158.059C157.578 32.0225 157.098 32.4326 156.617 32.6494C156.143 32.8604 155.548 32.9658 154.833 32.9658C153.878 32.9658 153.128 32.7197 152.583 32.2275C152.044 31.7354 151.774 31.0352 151.774 30.127C151.774 28.1816 153.33 27.1621 156.441 27.0684L158.076 27.0156V26.418C158.076 25.6621 157.912 25.1055 157.584 24.748C157.262 24.3848 156.743 24.2031 156.028 24.2031C155.226 24.2031 154.317 24.4492 153.304 24.9414L152.855 23.8252C153.33 23.5674 153.849 23.3652 154.411 23.2188C154.979 23.0723 155.548 22.999 156.116 22.999C157.265 22.999 158.114 23.2539 158.665 23.7637C159.222 24.2734 159.5 25.0908 159.5 26.2158V32.79H158.419ZM155.123 31.7617C156.031 31.7617 156.743 31.5127 157.259 31.0146C157.78 30.5166 158.041 29.8193 158.041 28.9229V28.0527L156.582 28.1143C155.422 28.1553 154.584 28.3369 154.068 28.6592C153.559 28.9756 153.304 29.4707 153.304 30.1445C153.304 30.6719 153.462 31.0732 153.778 31.3486C154.101 31.624 154.549 31.7617 155.123 31.7617Z" fill="white"/>
<path d="M170.882 36.1211H169.467V32.79H162.734V36.1211H161.328V31.5332H162.084C162.869 30.4668 163.484 29.2158 163.93 27.7803C164.375 26.3447 164.606 24.8037 164.624 23.1572H169.502V31.5332H170.882V36.1211ZM168.096 31.5332V24.3086H165.934C165.857 25.6094 165.605 26.9277 165.178 28.2637C164.756 29.5938 164.229 30.6836 163.596 31.5332H168.096Z" fill="white"/>
<path d="M178.739 32.79L178.449 31.4189H178.379C177.898 32.0225 177.418 32.4326 176.938 32.6494C176.463 32.8604 175.868 32.9658 175.153 32.9658C174.198 32.9658 173.448 32.7197 172.903 32.2275C172.364 31.7354 172.095 31.0352 172.095 30.127C172.095 28.1816 173.65 27.1621 176.762 27.0684L178.396 27.0156V26.418C178.396 25.6621 178.232 25.1055 177.904 24.748C177.582 24.3848 177.063 24.2031 176.349 24.2031C175.546 24.2031 174.638 24.4492 173.624 24.9414L173.176 23.8252C173.65 23.5674 174.169 23.3652 174.731 23.2188C175.3 23.0723 175.868 22.999 176.437 22.999C177.585 22.999 178.435 23.2539 178.985 23.7637C179.542 24.2734 179.82 25.0908 179.82 26.2158V32.79H178.739ZM175.443 31.7617C176.352 31.7617 177.063 31.5127 177.579 31.0146C178.101 30.5166 178.361 29.8193 178.361 28.9229V28.0527L176.902 28.1143C175.742 28.1553 174.904 28.3369 174.389 28.6592C173.879 28.9756 173.624 29.4707 173.624 30.1445C173.624 30.6719 173.782 31.0732 174.099 31.3486C174.421 31.624 174.869 31.7617 175.443 31.7617Z" fill="white"/>
<path d="M184.118 23.1572V26.6729C184.118 27.7979 184.76 28.3604 186.043 28.3604C186.576 28.3604 187.086 28.2783 187.572 28.1143C188.059 27.9502 188.609 27.6719 189.225 27.2793V23.1572H190.684V32.79H189.225V28.4307C188.609 28.8525 188.038 29.1514 187.511 29.3271C186.989 29.4971 186.397 29.582 185.735 29.582C184.774 29.582 184.021 29.3301 183.477 28.8262C182.932 28.3223 182.659 27.6396 182.659 26.7783V23.1572H184.118Z" fill="white"/>
<path d="M192.257 23.1572H193.821L195.931 28.6504C196.394 29.9043 196.681 30.8096 196.792 31.3662H196.862C196.938 31.0674 197.097 30.5576 197.337 29.8369C197.583 29.1104 198.38 26.8838 199.728 23.1572H201.292L197.152 34.126C196.742 35.21 196.262 35.9775 195.711 36.4287C195.166 36.8857 194.495 37.1143 193.698 37.1143C193.253 37.1143 192.813 37.0645 192.38 36.9648V35.7959C192.702 35.8662 193.062 35.9014 193.461 35.9014C194.463 35.9014 195.178 35.3389 195.605 34.2139L196.142 32.8428L192.257 23.1572Z" fill="white"/>
<defs>
<linearGradient id="paint1_linear" x1="-8.23289e-07" y1="56" x2="222.279" y2="5.648" gradientUnits="userSpaceOnUse">
<stop stop-color="white"/>
<stop offset="0.291667" stop-color="white" stop-opacity="0.16"/>
<stop offset="0.473958" stop-color="white"/>
<stop offset="0.697917" stop-color="white" stop-opacity="0.16"/>
<stop offset="1" stop-color="white"/>
</linearGradient>
</defs>
</svg>
