<svg width="56" height="51" viewBox="0 0 56 51" fill="none" xmlns="http://www.w3.org/2000/svg">
<g filter="url(#filter0_i)">
<path d="M9.02372 25.6297C10.4897 27.973 12.8577 31.5437 15.2258 34.6682C17.3684 37.5694 16.3535 38.5737 15.4514 39.3548C14.5492 40.1359 13.9854 40.5822 13.196 41.2517C11.3918 42.7024 10.4897 41.0286 10.4897 41.0286C10.4897 41.0286 2.03225 27.7498 0.791828 25.9644C0.340765 25.2949 0.115234 24.6254 0.115234 24.0674C0.115234 23.5095 0.340765 22.84 0.791828 22.1705C2.03225 20.3851 10.1514 7.55267 10.1514 7.55267C10.1514 7.55267 11.279 5.54412 13.196 6.77157C13.9854 7.3295 14.662 7.77584 15.4514 8.66854C16.2407 9.67281 17.3684 10.5655 15.2258 13.4667C12.9705 16.5912 10.4897 20.1619 9.02372 22.5052C8.79819 22.9516 8.57266 23.6211 8.57266 24.0674C8.68542 24.6254 8.79819 25.1833 9.02372 25.6297ZM55.8845 25.5181C55.8845 24.6254 55.5462 23.7327 54.8696 22.84C53.1781 20.3851 40.8866 0.85749 40.8866 0.85749C40.8866 0.85749 39.8718 -1.03948 37.3909 1.19225C36.376 2.08494 37.0526 1.52701 35.9249 2.64287C34.7973 3.87032 33.7824 6.43681 36.8271 10.5655C40.0973 15.029 43.4803 20.0503 45.6228 23.3979C45.9611 23.9559 46.1866 24.737 46.1866 25.4065V25.5181V25.6297C46.1866 26.2992 46.0739 27.0803 45.6228 27.6382C43.593 30.9858 40.0973 36.1188 36.8271 40.4706C33.7824 44.5993 34.6845 47.1658 35.9249 48.3933C37.0526 49.6207 36.376 48.9512 37.3909 49.8439C39.8718 52.0756 40.8866 50.0671 40.8866 50.0671C40.8866 50.0671 53.1781 30.651 54.9823 28.0846C55.6589 27.3035 55.8845 26.4108 55.8845 25.5181C55.8845 25.6297 55.8845 25.6297 55.8845 25.5181Z" fill="#C29D49"/>
</g>
<defs>
<filter id="filter0_i" x="0.115234" y="0.105469" width="55.7692" height="51.7917" filterUnits="userSpaceOnUse" color-interpolation-filters="sRGB">
<feFlood flood-opacity="0" result="BackgroundImageFix"/>
<feBlend mode="normal" in="SourceGraphic" in2="BackgroundImageFix" result="shape"/>
<feColorMatrix in="SourceAlpha" type="matrix" values="0 0 0 0 0 0 0 0 0 0 0 0 0 0 0 0 0 0 127 0" result="hardAlpha"/>
<feOffset dy="1"/>
<feGaussianBlur stdDeviation="0.5"/>
<feComposite in2="hardAlpha" operator="arithmetic" k2="-1" k3="1"/>
<feColorMatrix type="matrix" values="0 0 0 0 0 0 0 0 0 0 0 0 0 0 0 0 0 0 0.25 0"/>
<feBlend mode="normal" in2="shape" result="effect1_innerShadow"/>
</filter>
</defs>
</svg>
