<svg width="55" height="70" viewBox="0 0 55 70" fill="none" xmlns="http://www.w3.org/2000/svg">
<g clip-path="url(#clip0)">
<path d="M47.5336 69.2906H7.33092C5.44932 69.2906 3.64478 68.5431 2.31429 67.2126C0.983792 65.8821 0.236328 64.0776 0.236328 62.196V7.80407C0.236328 5.92246 0.983792 4.11793 2.31429 2.78743C3.64478 1.45694 5.44932 0.709473 7.33092 0.709473H40.439L54.6282 14.8987V62.196C54.6282 64.0776 53.8807 65.8821 52.5503 67.2126C51.2198 68.5431 49.4152 69.2906 47.5336 69.2906Z" fill="#CFD2FC"/>
<path d="M0.236328 50.3716H54.6282V62.1959C54.6282 64.0775 53.8807 65.8821 52.5503 67.2125C51.2198 68.543 49.4152 69.2905 47.5336 69.2905H7.33092C5.44932 69.2905 3.64478 68.543 2.31429 67.2125C0.983792 65.8821 0.236328 64.0775 0.236328 62.1959V50.3716Z" fill="#5153FF"/>
<path d="M54.6282 14.8987H47.5336C45.652 14.8987 43.8474 14.1512 42.5169 12.8207C41.1864 11.4902 40.439 9.68567 40.439 7.80407V0.709473L54.6282 14.8987Z" fill="#8690FA"/>
<path d="M17.9729 37.3649C17.8176 37.3651 17.6637 37.3346 17.5202 37.2752C17.3768 37.2157 17.2464 37.1285 17.1367 37.0186L10.0421 29.924C9.93234 29.8142 9.84524 29.6838 9.78581 29.5404C9.72639 29.3969 9.6958 29.2431 9.6958 29.0878C9.6958 28.9326 9.72639 28.7788 9.78581 28.6353C9.84524 28.4919 9.93234 28.3615 10.0421 28.2517L17.1367 21.1571C17.3585 20.9354 17.6593 20.8108 17.9729 20.8108C18.2865 20.8108 18.5872 20.9354 18.809 21.1571C19.0308 21.3789 19.1553 21.6796 19.1553 21.9933C19.1553 22.3069 19.0308 22.6076 18.809 22.8294L12.5504 29.0878L18.809 35.3463C18.9744 35.5117 19.087 35.7224 19.1326 35.9517C19.1783 36.1811 19.1548 36.4189 19.0653 36.6349C18.9758 36.851 18.8243 37.0357 18.6298 37.1656C18.4354 37.2955 18.2067 37.3649 17.9729 37.3649Z" fill="#8690FA"/>
<path d="M36.8919 37.3649C36.6581 37.3649 36.4295 37.2955 36.235 37.1656C36.0405 37.0357 35.889 36.851 35.7995 36.635C35.71 36.4189 35.6866 36.1811 35.7322 35.9518C35.7778 35.7224 35.8904 35.5117 36.0558 35.3463L42.3144 29.0879L36.0558 22.8294C35.8341 22.6076 35.7095 22.3069 35.7095 21.9933C35.7095 21.6796 35.8341 21.3789 36.0558 21.1571C36.2776 20.9354 36.5783 20.8108 36.8919 20.8108C37.2056 20.8108 37.5063 20.9354 37.7281 21.1571L44.8227 28.2517C44.9325 28.3615 45.0196 28.4919 45.079 28.6353C45.1384 28.7788 45.169 28.9326 45.169 29.0879C45.169 29.2431 45.1384 29.3969 45.079 29.5404C45.0196 29.6838 44.9325 29.8142 44.8227 29.924L37.7281 37.0186C37.6184 37.1285 37.4881 37.2158 37.3446 37.2752C37.2011 37.3346 37.0473 37.3651 36.8919 37.3649Z" fill="#8690FA"/>
<path d="M27.4324 30.2704C28.0855 30.2704 28.6149 29.741 28.6149 29.088C28.6149 28.4349 28.0855 27.9055 27.4324 27.9055C26.7794 27.9055 26.25 28.4349 26.25 29.088C26.25 29.741 26.7794 30.2704 27.4324 30.2704Z" fill="#8690FA"/>
<path d="M32.1619 30.2704C32.815 30.2704 33.3444 29.741 33.3444 29.088C33.3444 28.4349 32.815 27.9055 32.1619 27.9055C31.5089 27.9055 30.9795 28.4349 30.9795 29.088C30.9795 29.741 31.5089 30.2704 32.1619 30.2704Z" fill="#8690FA"/>
<path d="M22.7025 30.2704C23.3555 30.2704 23.8849 29.741 23.8849 29.088C23.8849 28.4349 23.3555 27.9055 22.7025 27.9055C22.0494 27.9055 21.52 28.4349 21.52 29.088C21.52 29.741 22.0494 30.2704 22.7025 30.2704Z" fill="#8690FA"/>
<path d="M40.439 63.3784H36.8917V55.1014C36.8917 54.7878 36.7671 54.487 36.5454 54.2653C36.3236 54.0435 36.0229 53.9189 35.7093 53.9189C35.3957 53.9189 35.0949 54.0435 34.8732 54.2653C34.6514 54.487 34.5269 54.7878 34.5269 55.1014V64.5608C34.5269 64.8744 34.6514 65.1752 34.8732 65.3969C35.0949 65.6187 35.3957 65.7433 35.7093 65.7433H40.439C40.7526 65.7433 41.0534 65.6187 41.2751 65.3969C41.4969 65.1752 41.6214 64.8744 41.6214 64.5608C41.6214 64.2472 41.4969 63.9465 41.2751 63.7247C41.0534 63.503 40.7526 63.3784 40.439 63.3784Z" fill="white"/>
<path d="M19.6844 54.0438C19.4039 53.9035 19.0792 53.8805 18.7817 53.9796C18.4842 54.0788 18.2383 54.292 18.098 54.5725L16.7907 57.1871L15.4834 54.5725C15.3416 54.2945 15.0958 54.0838 14.7994 53.9864C14.503 53.8889 14.1801 53.9125 13.9011 54.052C13.622 54.1916 13.4094 54.4357 13.3096 54.7314C13.2098 55.027 13.2309 55.35 13.3683 55.6302L15.4687 59.8311L13.3683 64.0319C13.2974 64.171 13.2547 64.3227 13.2427 64.4782C13.2308 64.6338 13.2497 64.7903 13.2985 64.9385C13.3472 65.0867 13.4249 65.2239 13.5269 65.342C13.6289 65.4601 13.7533 65.5568 13.8928 65.6266C14.0324 65.6964 14.1844 65.7379 14.3401 65.7486C14.4958 65.7594 14.6521 65.7393 14.7999 65.6893C14.9478 65.6394 15.0843 65.5607 15.2016 65.4578C15.3189 65.3549 15.4146 65.2297 15.4834 65.0896L16.7907 62.475L18.098 65.0896C18.1667 65.2297 18.2625 65.3549 18.3798 65.4578C18.4971 65.5607 18.6336 65.6394 18.7814 65.6893C18.9293 65.7393 19.0856 65.7594 19.2413 65.7486C19.3969 65.7379 19.5489 65.6964 19.6885 65.6266C19.8281 65.5568 19.9525 65.4601 20.0545 65.342C20.1565 65.2239 20.2341 65.0867 20.2829 64.9385C20.3317 64.7903 20.3506 64.6338 20.3386 64.4782C20.3266 64.3227 20.284 64.171 20.2131 64.0319L18.1126 59.8311L20.2131 55.6302C20.3533 55.3497 20.3764 55.025 20.2773 54.7275C20.1781 54.43 19.9649 54.1841 19.6844 54.0438Z" fill="white"/>
<path d="M31.2173 53.9432C30.9506 53.8882 30.673 53.9271 30.4316 54.0533C30.1902 54.1795 29.9998 54.3852 29.8927 54.6356L27.4324 60.3767L24.972 54.6356C24.8648 54.3853 24.6744 54.1796 24.4331 54.0534C24.1917 53.9271 23.9142 53.8881 23.6474 53.9428C23.3805 53.9976 23.1408 54.1428 22.9687 54.3539C22.7966 54.565 22.7026 54.829 22.7026 55.1014V64.5608C22.7026 64.8744 22.8272 65.1752 23.049 65.397C23.2707 65.6187 23.5715 65.7433 23.8851 65.7433C24.1987 65.7433 24.4994 65.6187 24.7212 65.397C24.9429 65.1752 25.0675 64.8744 25.0675 64.5608V60.8622L26.3454 63.8441C26.4365 64.0569 26.5881 64.2383 26.7813 64.3657C26.9745 64.4931 27.2009 64.5611 27.4324 64.5611C27.6638 64.5611 27.8902 64.4931 28.0834 64.3657C28.2766 64.2383 28.4282 64.0569 28.5193 63.8441L29.7972 60.8622V64.5608C29.7972 64.8744 29.9218 65.1752 30.1436 65.397C30.3653 65.6187 30.6661 65.7433 30.9797 65.7433C31.2933 65.7433 31.594 65.6187 31.8158 65.397C32.0375 65.1752 32.1621 64.8744 32.1621 64.5608V55.1014C32.1621 54.8291 32.068 54.5651 31.8959 54.3541C31.7238 54.1431 31.4841 53.9979 31.2173 53.9432Z" fill="white"/>
</g>
<defs>
<clipPath id="clip0">
<rect width="54.8649" height="70" fill="white"/>
</clipPath>
</defs>
</svg>
