<svg width="139" height="40" viewBox="0 0 139 40" fill="none" xmlns="http://www.w3.org/2000/svg">
<g clip-path="url(#clip0)">
<path d="M134.527 39.5H134.526H4.47908H4.47855C3.55872 39.501 2.67515 39.1329 2.02243 38.4752C1.36962 37.8174 1.00129 36.9236 1 35.99V4.0152C1.00129 3.08107 1.36954 2.18662 2.02234 1.52795C2.67503 0.869393 3.5587 0.500276 4.47908 0.5C4.47912 0.5 4.47916 0.5 4.47921 0.5L134.525 0.5C134.981 0.5 135.432 0.590643 135.853 0.766878C136.274 0.943121 136.657 1.20157 136.98 1.52772C137.303 1.85389 137.559 2.24136 137.734 2.66815C137.909 3.09494 137.999 3.55253 137.999 4.01474L138 35.9904C138 36.4523 137.91 36.9095 137.735 37.3359C137.56 37.7623 137.304 38.1494 136.981 38.4751C136.658 38.8008 136.275 39.0588 135.854 39.2346C135.433 39.4103 134.982 39.5005 134.527 39.5Z" stroke="black" stroke-opacity="0.5"/>
<path d="M73.1622 12.7749C72.2412 12.7749 71.4647 12.4527 70.8506 11.8183C70.2417 11.2017 69.9016 10.3517 69.9169 9.48386C69.9169 8.55768 70.2315 7.77361 70.8506 7.15193C71.4622 6.51757 72.2386 6.19531 73.1597 6.19531C74.0706 6.19531 74.8471 6.51757 75.4713 7.15193C76.0904 7.79391 76.4051 8.57798 76.4051 9.48386C76.3949 10.4126 76.0803 11.1966 75.4713 11.8158C74.8598 12.4552 74.0833 12.7749 73.1622 12.7749ZM45.7554 12.7749C44.8546 12.7749 44.0731 12.4578 43.4337 11.831C42.7993 11.2068 42.4771 10.4176 42.4771 9.48639C42.4771 8.55515 42.7993 7.766 43.4337 7.14178C44.0604 6.51503 44.8419 6.19785 45.7554 6.19785C46.202 6.19785 46.6359 6.28666 47.052 6.46682C47.4606 6.64191 47.793 6.88043 48.0391 7.17223L48.1 7.24582L47.4124 7.92078L47.3413 7.83705C46.9531 7.37523 46.4329 7.1494 45.7453 7.1494C45.1312 7.1494 44.5958 7.36762 44.1543 7.79899C43.7102 8.23289 43.4844 8.80128 43.4844 9.48893C43.4844 10.1766 43.7102 10.745 44.1543 11.1789C44.5958 11.6102 45.1312 11.8285 45.7453 11.8285C46.3999 11.8285 46.9505 11.6102 47.3794 11.1789C47.6331 10.9251 47.7904 10.5699 47.8463 10.1208H45.6412V9.17175H48.7927L48.8054 9.25802C48.8282 9.41788 48.8511 9.58282 48.8511 9.73506C48.8511 10.6105 48.5872 11.3184 48.0645 11.8412C47.4707 12.4603 46.6943 12.7749 45.7554 12.7749ZM82.1955 12.6405H81.2237L78.2473 7.87765L78.2726 8.73531V12.6379H77.3008V6.33234H78.4097L78.4401 6.38055L81.2389 10.8668L81.2135 10.0116V6.33234H82.1955V12.6405ZM65.8595 12.6405H64.875V7.28134H63.1673V6.33234H67.5647V7.28134H65.857V12.6405H65.8595ZM62.3655 12.6405H61.3835V6.33234H62.3655V12.6405ZM56.8465 12.6405H55.8646V7.28134H54.1569V6.33234H58.5542V7.28134H56.8465V12.6405ZM53.5352 12.6303H49.7696V6.33234H53.5352V7.28134H50.7542V9.01189H53.2637V9.95075H50.7542V11.6813H53.5352V12.6303ZM71.5713 11.1662C72.0102 11.6052 72.5431 11.8259 73.1622 11.8259C73.7991 11.8259 74.3193 11.6102 74.7532 11.1662C75.1846 10.7348 75.4028 10.169 75.4028 9.48639C75.4028 8.80382 75.1846 8.23543 74.7557 7.8066C74.3168 7.36762 73.7814 7.14686 73.1648 7.14686C72.5279 7.14686 72.0077 7.36254 71.5763 7.8066C71.145 8.23796 70.9268 8.80382 70.9268 9.48639C70.9268 10.169 71.1424 10.7374 71.5713 11.1662Z" fill="#333333"/>
<path fill-rule="evenodd" clip-rule="evenodd" d="M69.8258 21.4466C67.4279 21.4466 65.4842 23.2659 65.4842 25.7755C65.4842 28.2622 67.4406 30.1044 69.8258 30.1044C72.2237 30.1044 74.1674 28.2723 74.1674 25.7755C74.1674 23.2659 72.2237 21.4466 69.8258 21.4466ZM69.8258 28.389C68.5139 28.389 67.3847 27.303 67.3847 25.7653C67.3847 24.2048 68.5165 23.1416 69.8258 23.1416C71.1377 23.1416 72.2668 24.2048 72.2668 25.7653C72.2694 27.3132 71.1377 28.389 69.8258 28.389ZM60.3534 21.4466C57.9555 21.4466 56.0118 23.2659 56.0118 25.7755C56.0118 28.2622 57.9682 30.1044 60.3534 30.1044C62.7513 30.1044 64.695 28.2723 64.695 25.7755C64.695 23.2659 62.7488 21.4466 60.3534 21.4466ZM60.3534 28.389C59.0416 28.389 57.9124 27.303 57.9124 25.7653C57.9124 24.2048 59.0441 23.1416 60.3534 23.1416C61.6653 23.1416 62.7945 24.2048 62.7945 25.7653C62.7945 27.3132 61.6653 28.389 60.3534 28.389ZM49.082 22.7686V24.6006H53.4795C53.345 25.6283 53.005 26.387 52.4848 26.9072C51.8403 27.5517 50.8456 28.252 49.0922 28.252C46.3898 28.252 44.2761 26.0698 44.2761 23.3674C44.2761 20.665 46.3898 18.4828 49.0922 18.4828C50.5512 18.4828 51.6144 19.0588 52.4036 19.7947L53.7028 18.4955C52.6066 17.445 51.1475 16.6406 49.1023 16.6406C45.3951 16.6406 42.2842 19.6602 42.2842 23.3573C42.2842 27.0645 45.3926 30.0739 49.1023 30.0739C51.1044 30.0739 52.6066 29.4193 53.7941 28.1861C55.0045 26.9757 55.3876 25.268 55.3876 23.8901C55.3876 23.4613 55.3546 23.0756 55.2861 22.7483H49.0795C49.082 22.7457 49.082 22.7686 49.082 22.7686ZM95.1852 24.1946C94.8223 23.2228 93.7261 21.4364 91.4779 21.4364C89.25 21.4364 87.3977 23.1898 87.3977 25.7653C87.3977 28.1962 89.2297 30.0942 91.6936 30.0942C93.6728 30.0942 94.8249 28.8839 95.2994 28.1734L93.8302 27.1888C93.343 27.912 92.6655 28.3865 91.7038 28.3865C90.7319 28.3865 90.0519 27.945 89.6002 27.0746L95.3882 24.6767C95.3882 24.6793 95.1852 24.1946 95.1852 24.1946ZM89.283 25.641C89.2374 23.9688 90.5822 23.1188 91.5439 23.1188C92.3026 23.1188 92.9344 23.4918 93.1501 24.0348L89.283 25.641ZM84.5811 29.8354H86.4817V17.1177H84.5811V29.8354ZM81.46 22.4083H81.3915C80.9627 21.8982 80.1482 21.4364 79.1078 21.4364C76.9484 21.4364 74.9591 23.337 74.9591 25.778C74.9591 28.2089 76.9383 30.0866 79.1078 30.0866C80.1355 30.0866 80.9627 29.6222 81.3915 29.1021H81.46V29.7237C81.46 31.3756 80.577 32.2663 79.1535 32.2663C77.9888 32.2663 77.2656 31.4289 76.9713 30.7286L75.3194 31.4188C75.7939 32.5606 77.0601 33.974 79.151 33.974C81.3788 33.974 83.2667 32.6621 83.2667 29.4624V21.6952H81.4702V22.4083C81.4727 22.4083 81.46 22.4083 81.46 22.4083ZM79.2778 28.389C77.966 28.389 76.8698 27.2929 76.8698 25.778C76.8698 24.2505 77.966 23.1441 79.2778 23.1441C80.577 23.1441 81.5844 24.2631 81.5844 25.778C81.5971 27.2929 80.5795 28.389 79.2778 28.389ZM104.084 17.1177H99.5395V29.8354H101.44V25.0193H104.087C106.19 25.0193 108.258 23.4943 108.258 21.0736C108.258 18.6528 106.198 17.1177 104.084 17.1177ZM104.14 23.2431H101.437V18.8787H104.14C105.563 18.8787 106.368 20.0535 106.368 21.0609C106.368 22.0581 105.553 23.2431 104.14 23.2431ZM115.876 21.4237C114.495 21.4237 113.072 22.0353 112.483 23.3674L114.168 24.0678C114.531 23.3674 115.196 23.1289 115.898 23.1289C116.883 23.1289 117.878 23.7176 117.901 24.7681V24.9026C117.561 24.7097 116.814 24.4154 115.921 24.4154C114.102 24.4154 112.257 25.4101 112.257 27.2751C112.257 28.9828 113.749 30.079 115.411 30.079C116.688 30.079 117.39 29.503 117.829 28.8356H117.898V29.8202H119.73V24.9483C119.73 22.6798 118.045 21.4237 115.876 21.4237ZM115.637 28.389C115.015 28.389 114.145 28.0846 114.145 27.303C114.145 26.3185 115.231 25.9455 116.157 25.9455C116.995 25.9455 117.391 26.1256 117.888 26.3743C117.751 27.5162 116.787 28.3789 115.637 28.389ZM126.414 21.6952L124.231 27.2117H124.163L121.902 21.6952H119.857L123.249 29.4066L121.316 33.6923H123.295L128.515 21.6952H126.414ZM109.306 29.8354H111.207V17.1177H109.306V29.8354Z" fill="#333333"/>
<path fill-rule="evenodd" clip-rule="evenodd" d="M11.1167 6.97671C10.8224 7.2939 10.6523 7.77855 10.6523 8.41292V30.9125C10.6523 31.5469 10.8224 32.0316 11.1268 32.3361L11.2055 32.4046L23.8116 19.7985V19.5168L11.1954 6.9082L11.1167 6.97671Z" fill="url(#paint0_linear)"/>
<path fill-rule="evenodd" clip-rule="evenodd" d="M28.0059 24.0121L23.8013 19.8075V19.5132L28.0059 15.3086L28.0972 15.3644L33.0707 18.1911C34.4942 18.993 34.4942 20.3175 33.0707 21.1295L28.0972 23.9562L28.0059 24.0121Z" fill="url(#paint1_linear)"/>
<path fill-rule="evenodd" clip-rule="evenodd" d="M28.0974 23.9561L23.8014 19.6602L11.1167 32.3449C11.5811 32.8422 12.3601 32.8981 13.2304 32.4134L28.0974 23.9561Z" fill="url(#paint2_linear)"/>
<path fill-rule="evenodd" clip-rule="evenodd" d="M28.0974 15.3652L13.2304 6.92059C12.3601 6.42325 11.5785 6.49176 11.1167 6.9891L23.8014 19.6612L28.0974 15.3652Z" fill="url(#paint3_linear)"/>
<path opacity="0.2" fill-rule="evenodd" clip-rule="evenodd" d="M28.0062 23.8652L13.2407 32.2541C12.416 32.7286 11.6801 32.6956 11.2056 32.2643L11.127 32.3429L11.2056 32.4114C11.6801 32.8403 12.416 32.8758 13.2407 32.4013L28.1077 23.9566L28.0062 23.8652Z" fill="black"/>
<path opacity="0.12" fill-rule="evenodd" clip-rule="evenodd" d="M33.0706 20.9822L27.9932 23.8647L28.0845 23.9561L33.0579 21.1293C33.771 20.7234 34.1211 20.1905 34.1211 19.6602C34.078 20.1473 33.7151 20.6092 33.0706 20.9822Z" fill="black"/>
<path opacity="0.25" fill-rule="evenodd" clip-rule="evenodd" d="M13.2304 7.06634L33.0708 18.3377C33.7153 18.7006 34.0781 19.1751 34.134 19.6597C34.134 19.1294 33.7838 18.5965 33.0708 18.1905L13.2304 6.91917C11.8069 6.10464 10.6523 6.78468 10.6523 8.41119V8.55836C10.6523 6.92932 11.8069 6.26196 13.2304 7.06634Z" fill="#333333"/>
</g>
<defs>
<linearGradient id="paint0_linear" x1="22.6808" y1="8.17017" x2="2.48808" y2="13.5506" gradientUnits="userSpaceOnUse">
<stop stop-color="#00A0FF"/>
<stop offset="0.00657" stop-color="#00A1FF"/>
<stop offset="0.2601" stop-color="#00BEFF"/>
<stop offset="0.5122" stop-color="#00D2FF"/>
<stop offset="0.7604" stop-color="#00DFFF"/>
<stop offset="1" stop-color="#00E3FF"/>
</linearGradient>
<linearGradient id="paint1_linear" x1="34.9271" y1="19.6604" x2="10.3061" y2="19.6604" gradientUnits="userSpaceOnUse">
<stop stop-color="#FFE000"/>
<stop offset="0.4087" stop-color="#FFBD00"/>
<stop offset="0.7754" stop-color="#FFA500"/>
<stop offset="1" stop-color="#FF9C00"/>
</linearGradient>
<linearGradient id="paint2_linear" x1="25.7614" y1="21.9977" x2="9.55076" y2="49.2816" gradientUnits="userSpaceOnUse">
<stop stop-color="#FF3A44"/>
<stop offset="1" stop-color="#C31162"/>
</linearGradient>
<linearGradient id="paint3_linear" x1="7.92254" y1="-0.507315" x2="15.1548" y2="11.6781" gradientUnits="userSpaceOnUse">
<stop stop-color="#32A071"/>
<stop offset="0.0685" stop-color="#2DA771"/>
<stop offset="0.4762" stop-color="#15CF74"/>
<stop offset="0.8009" stop-color="#06E775"/>
<stop offset="1" stop-color="#00F076"/>
</linearGradient>
<clipPath id="clip0">
<rect width="138" height="40" fill="white" transform="translate(0.5)"/>
</clipPath>
</defs>
</svg>
