<svg width="100" height="100" viewBox="0 0 100 100" fill="none" xmlns="http://www.w3.org/2000/svg">
<path fill-rule="evenodd" clip-rule="evenodd" d="M85 93.332C85.9204 93.332 86.6667 92.5858 86.6667 91.6654V81.6654H90V91.6654C90 94.4266 87.7612 96.6654 85 96.6654H5C2.23877 96.6654 0 94.4266 0 91.6654V8.33203C0 5.5708 2.23877 3.33203 5 3.33203H85C87.7612 3.33203 90 5.5708 90 8.33203V34.9987H86.6667V19.9987H3.33333V91.6654C3.33333 92.5858 4.07959 93.332 5 93.332H85ZM85 6.66536H5C4.07959 6.66536 3.33333 7.41162 3.33333 8.33203V16.6654H86.6667V8.33203C86.6667 7.41162 85.9204 6.66536 85 6.66536ZM13.3333 10H10V13.3333H13.3333V10ZM16.667 10H20.0003V13.3333H16.667V10ZM26.6668 10H23.3335V13.3333H26.6668V10ZM33.333 26.6641H36.6663V29.9974H33.333V26.6641ZM43.3333 26.6641H40V29.9974H43.3333V26.6641ZM46.6665 26.6641H49.9998V29.9974H46.6665V26.6641ZM56.6668 26.6641H53.3335V29.9974H56.6668V26.6641ZM36.6665 10H73.3332V13.3333H36.6665V10ZM16.9467 45.7404L23.6134 35.7404C23.9406 35.3034 24.4541 35.0463 25.0001 35.0463C25.5462 35.0463 26.0597 35.3034 26.3868 35.7404L33.0535 45.7404C33.2358 46.0147 33.3326 46.337 33.3335 46.6657V79.9991C33.3335 84.6011 29.6022 88.3324 25.0001 88.3324C20.3981 88.3324 16.6668 84.6011 16.6668 79.9991V46.6657C16.6676 46.337 16.7644 46.0147 16.9467 45.7404ZM28.5532 44.9991L25.0001 39.6654L21.4471 44.9991H28.5532ZM20.0001 48.3324V69.9991H30.0001V48.3324H26.6668V66.6657H23.3335V48.3324H20.0001ZM30.0001 74.9991V73.3324H20.0001V74.9991H30.0001ZM20.0001 79.9991C20.0001 82.7603 22.2389 84.9991 25.0001 84.9991C27.7614 84.9991 30.0001 82.7603 30.0001 79.9991V78.3324H20.0001V79.9991Z" fill="#B3E2F7"/>
<path fill-rule="evenodd" clip-rule="evenodd" d="M51.6665 38.332H94.9998C97.7611 38.332 99.9998 40.5708 99.9998 43.332V73.332C99.9998 76.0933 97.7611 78.332 94.9998 78.332H72.3566L62.8449 87.8438C62.368 88.3198 61.651 88.4631 61.0285 88.2051C60.4059 87.9471 59.9998 87.3392 59.9998 86.6654V78.332H51.6665C48.9053 78.332 46.6665 76.0933 46.6665 73.332V43.332C46.6665 40.5708 48.9053 38.332 51.6665 38.332ZM94.9998 74.9987C95.9202 74.9987 96.6665 74.2524 96.6665 73.332V43.332C96.6665 42.4116 95.9202 41.6654 94.9998 41.6654H51.6665C50.7461 41.6654 49.9998 42.4116 49.9998 43.332V73.332C49.9998 74.2524 50.7461 74.9987 51.6665 74.9987H61.6665C62.5869 74.9987 63.3332 75.745 63.3332 76.6654V82.6419L70.4881 75.487C70.8006 75.1745 71.2246 74.9987 71.6665 74.9987H94.9998ZM89.9999 48.3317H56.6666V51.665H89.9999V48.3317ZM56.6665 56.6641H89.9998V59.9974H56.6665V56.6641ZM89.9998 65H56.6665V68.3333H89.9998V65Z" fill="url(#paint0_linear)" fill-opacity="0.6"/>
<defs>
<linearGradient id="paint0_linear" x1="99.9998" y1="38.332" x2="39.4401" y2="49.6437" gradientUnits="userSpaceOnUse">
<stop stop-color="#5CD384"/>
<stop offset="1" stop-color="#326BD2"/>
</linearGradient>
</defs>
</svg>
