<svg width="70" height="70" viewBox="0 0 70 70" fill="none" xmlns="http://www.w3.org/2000/svg">
<g clip-path="url(#clip0)">
<path d="M60.2772 8.83318L35.4859 0.0832609C35.1725 -0.0277536 34.8278 -0.0277536 34.5146 0.0832609L9.72323 8.83318C9.14082 9.03962 8.75049 9.59086 8.75049 10.209V27.7088C8.75049 50.3555 12.1087 58.6326 34.3437 69.8435C34.5502 69.9474 34.7752 70.0001 35.0002 70.0001C35.2253 70.0001 35.4503 69.9475 35.6568 69.8435C57.8918 58.6326 61.25 50.3555 61.25 27.7088V10.209C61.25 9.59086 60.8597 9.03976 60.2772 8.83318Z" fill="#303C42"/>
<path d="M35.0001 3.00562L11.667 11.2415V27.7088C11.667 30.3479 11.7105 32.7622 11.8194 34.9997H35.0001V3.00562Z" fill="#1E88E5"/>
<path d="M58.1807 34.9997C58.2897 32.7622 58.3331 30.3479 58.3331 27.7088V11.2415L35 3.00562V34.9997H58.1807Z" fill="#1E88E5"/>
<path d="M35 34.9998V66.9069C53.065 57.6968 57.394 51.1522 58.1807 34.9998H35Z" fill="#1E88E5"/>
<path d="M11.8193 34.9998C12.606 51.1522 16.935 57.6968 35 66.9069V34.9998H11.8193Z" fill="#1E88E5"/>
<path d="M43.7499 40.8336H49.5832C50.3893 40.8336 51.0416 40.1813 51.0416 39.3753C51.0416 38.5692 50.3893 37.9169 49.5832 37.9169H45.2082V27.7086C45.2082 26.9025 44.556 26.2502 43.7499 26.2502C42.9438 26.2502 42.2915 26.9025 42.2915 27.7086V39.3751C42.2915 40.1813 42.9438 40.8336 43.7499 40.8336Z" fill="#FAFAFA"/>
<path d="M23.3335 29.1679H26.25C27.0561 29.1679 27.7084 28.5157 27.7084 27.7096C27.7084 26.9035 27.0561 26.2512 26.25 26.2512H23.3335C20.9209 26.2512 18.9585 28.2137 18.9585 30.6262C18.9585 33.0387 20.9209 35.0011 23.3335 35.0011C24.138 35.0011 24.7918 35.6548 24.7918 36.4595C24.7918 37.2641 24.1382 37.9179 23.3335 37.9179H20.4169C19.6108 37.9179 18.9585 38.5701 18.9585 39.3762C18.9585 40.1823 19.6108 40.8346 20.4169 40.8346H23.3335C25.746 40.8346 27.7084 38.8721 27.7084 36.4596C27.7084 34.0471 25.746 32.0847 23.3335 32.0847C22.5289 32.0847 21.8751 31.431 21.8751 30.6263C21.8752 29.8216 22.5289 29.1679 23.3335 29.1679Z" fill="#FAFAFA"/>
<path d="M30.625 30.6254C30.625 33.038 32.5874 35.0004 35 35.0004C35.8045 35.0004 36.4583 35.654 36.4583 36.4588C36.4583 37.2633 35.8047 37.9171 35 37.9171H32.0834C31.2773 37.9171 30.625 38.5694 30.625 39.3755C30.625 40.1816 31.2773 40.8339 32.0834 40.8339H35C37.4125 40.8339 39.3749 38.8714 39.3749 36.4589C39.3749 34.0464 37.4125 32.0839 35 32.0839C34.1954 32.0839 33.5416 31.4303 33.5416 30.6256C33.5416 29.821 34.1952 29.1672 35 29.1672H37.9166C38.7226 29.1672 39.3749 28.5149 39.3749 27.7089C39.3749 26.9028 38.7226 26.2505 37.9166 26.2505H35C32.5874 26.2505 30.625 28.2129 30.625 30.6254Z" fill="#FAFAFA"/>
<path d="M60.2772 8.83318L35.4859 0.0832609C35.1725 -0.0277536 34.8278 -0.0277536 34.5146 0.0832609L9.72323 8.83318C9.14082 9.03962 8.75049 9.59086 8.75049 10.209V27.7088C8.75049 50.3555 12.1087 58.6326 34.3437 69.8435C34.5502 69.9474 34.7752 70.0001 35.0002 70.0001C35.2253 70.0001 35.4503 69.9475 35.6567 69.8435C57.8918 58.6326 61.25 50.3555 61.25 27.7088V10.209C61.25 9.59086 60.8596 9.03976 60.2772 8.83318Z" fill="url(#paint0_linear)"/>
</g>
<defs>
<linearGradient id="paint0_linear" x1="4.35795" y1="19.3091" x2="60.4404" y2="45.4602" gradientUnits="userSpaceOnUse">
<stop stop-color="white" stop-opacity="0.2"/>
<stop offset="1" stop-color="white" stop-opacity="0"/>
</linearGradient>
<clipPath id="clip0">
<rect width="70" height="70" fill="white"/>
</clipPath>
</defs>
</svg>
