<svg width="70" height="70" viewBox="0 0 70 70" fill="none" xmlns="http://www.w3.org/2000/svg">
<g clip-path="url(#clip0)">
<path d="M34.011 0.226099L2.66566 15.3584C2.2726 15.5482 2.02295 15.946 2.02295 16.3824V53.6175C2.02295 54.0539 2.27273 54.4518 2.66566 54.6415L34.011 69.7738C34.6357 70.0755 35.3639 70.0755 35.9885 69.7738L67.3339 54.6415C67.727 54.4518 67.9766 54.0539 67.9766 53.6175V16.3824C67.9766 15.946 67.7268 15.5482 67.3339 15.3584L35.9885 0.226099C35.3639 -0.0753662 34.6357 -0.0753662 34.011 0.226099Z" fill="#FFE17D"/>
<path d="M2.21203 15.76C2.09254 15.942 2.02295 16.1562 2.02295 16.3825V53.6176C2.02295 54.054 2.27273 54.4518 2.66566 54.6416L34.011 69.7737C34.3233 69.9245 34.6615 69.9999 34.9998 69.9999V31.5886L2.21203 15.76Z" fill="#FFC350"/>
<path d="M67.7878 15.76C67.9072 15.942 67.9768 16.1562 67.9768 16.3825V53.6176C67.9768 54.054 67.7271 54.4518 67.3341 54.6416L35.9887 69.7738C35.6765 69.9246 35.3382 70 35 70V31.5886L67.7878 15.76Z" fill="#FFD164"/>
<path d="M11.4034 51.6328C11.2379 51.6328 11.0691 51.5962 10.9103 51.5196L6.07092 49.1832C5.50463 48.9101 5.2681 48.2304 5.54127 47.6652C5.81334 47.1 6.49516 46.8646 7.05926 47.1356L11.8987 49.4721C12.465 49.7453 12.7015 50.4249 12.4283 50.9901C12.233 51.3963 11.8265 51.6328 11.4034 51.6328Z" fill="#FFE17D"/>
<path d="M15.8576 48.7334C15.6922 48.7334 15.5233 48.6967 15.3646 48.6202L6.07757 44.1371C5.51237 43.864 5.27475 43.1843 5.54792 42.6192C5.81999 42.055 6.5029 41.8185 7.06591 42.0895L16.3528 46.5725C16.918 46.8457 17.1556 47.5253 16.8824 48.0905C16.6872 48.4967 16.2807 48.7334 15.8576 48.7334Z" fill="#FFF6D8"/>
</g>
<defs>
<clipPath id="clip0">
<rect width="70" height="70" fill="white"/>
</clipPath>
</defs>
</svg>
