<svg width="139" height="40" viewBox="0 0 139 40" fill="none" xmlns="http://www.w3.org/2000/svg">
<g clip-path="url(#clip0)">
<path d="M134.527 39.5H134.526H4.47908H4.47855C3.55872 39.501 2.67515 39.1329 2.02243 38.4752C1.36962 37.8174 1.00129 36.9236 1 35.99V4.0152C1.00129 3.08107 1.36954 2.18662 2.02234 1.52795C2.67503 0.869393 3.5587 0.500276 4.47908 0.5C4.47912 0.5 4.47916 0.5 4.47921 0.5L134.525 0.5C134.981 0.5 135.432 0.590643 135.853 0.766878C136.274 0.943121 136.657 1.20157 136.98 1.52772C137.303 1.85389 137.559 2.24136 137.734 2.66815C137.909 3.09494 137.999 3.55253 137.999 4.01474L138 35.9904C138 36.4523 137.91 36.9095 137.735 37.3359C137.56 37.7623 137.304 38.1494 136.981 38.4751C136.658 38.8008 136.275 39.0588 135.854 39.2346C135.433 39.4103 134.982 39.5005 134.527 39.5Z" stroke="black" stroke-opacity="0.5"/>
<path d="M29.238 19.537C29.2083 16.2423 31.9365 14.6394 32.0612 14.5647C30.5162 12.3127 28.1214 12.005 27.2798 11.9804C25.2685 11.7688 23.3175 13.1837 22.2929 13.1837C21.2479 13.1837 19.6701 12.0009 17.9697 12.0357C15.7814 12.0694 13.7343 13.336 12.6116 15.3028C10.2945 19.3132 12.0226 25.2065 14.2425 28.4481C15.353 30.0367 16.6506 31.8083 18.349 31.7459C20.0106 31.6785 20.6313 30.6879 22.6365 30.6879C24.6233 30.6879 25.2061 31.7459 26.9383 31.7061C28.7216 31.6785 29.8443 30.1113 30.916 28.5094C32.1992 26.6908 32.7146 24.8978 32.7351 24.8058C32.6942 24.7915 29.2728 23.485 29.238 19.537ZM25.9659 9.84801C26.8596 8.73067 27.471 7.21057 27.3013 5.66797C26.0078 5.72522 24.3902 6.56245 23.4586 7.65525C22.6345 8.61822 21.8982 10.1966 22.0884 11.6809C23.5414 11.7893 25.0333 10.948 25.9659 9.84801Z" fill="#333333"/>
<path d="M53.995 31.5166H51.6728L50.4008 27.5206H45.9794L44.7677 31.5166H42.5068L46.8884 17.9123H49.594L53.995 31.5166ZM50.0174 25.8441L48.867 22.2917C48.7453 21.9288 48.5163 21.0742 48.1809 19.7289H48.14C48.005 20.3075 47.7892 21.1621 47.4937 22.2917L46.3628 25.8441H50.0174ZM65.2408 26.4912C65.2408 28.1595 64.7879 29.4782 63.8809 30.4463C63.069 31.3081 62.0597 31.7384 60.8562 31.7384C59.5566 31.7384 58.622 31.2754 58.0545 30.3471V35.4942H55.8744V24.9312C55.8744 23.8834 55.8468 22.809 55.7936 21.707H57.7109L57.8326 23.2618H57.8735C58.6005 22.0903 59.7038 21.5046 61.1844 21.5046C62.342 21.5046 63.3082 21.9615 64.0813 22.8764C64.8533 23.7934 65.2408 24.9976 65.2408 26.4912ZM63.0199 26.5709C63.0199 25.6161 62.8052 24.829 62.3737 24.2084C61.9023 23.5634 61.2693 23.2404 60.4758 23.2404C59.938 23.2404 59.4492 23.4203 59.0126 23.775C58.5749 24.1328 58.2886 24.6 58.1547 25.1786C58.0949 25.395 58.0609 25.6177 58.0534 25.842V27.4787C58.0534 28.1912 58.2723 28.7933 58.7099 29.286C59.1476 29.7767 59.7161 30.0231 60.4155 30.0231C61.2366 30.0231 61.8757 29.7052 62.3328 29.0744C62.7908 28.4416 63.0199 27.6075 63.0199 26.5709ZM76.5265 26.4912C76.5265 28.1595 76.0736 29.4782 75.1666 30.4463C74.3537 31.3081 73.3454 31.7384 72.1409 31.7384C70.8413 31.7384 69.9067 31.2754 69.3392 30.3471V35.4942H67.1591V24.9312C67.1591 23.8834 67.1315 22.809 67.0783 21.707H68.9956L69.1173 23.2618H69.1582C69.8842 22.0903 70.9875 21.5046 72.4691 21.5046C73.6256 21.5046 74.5919 21.9615 75.367 22.8764C76.138 23.7934 76.5265 24.9976 76.5265 26.4912ZM74.3046 26.5709C74.3046 25.6161 74.0888 24.829 73.6573 24.2084C73.1859 23.5634 72.555 23.2404 71.7615 23.2404C71.2237 23.2404 70.7349 23.4203 70.2963 23.775C69.8586 24.1328 69.5733 24.6 69.4394 25.1786C69.3729 25.4485 69.3371 25.6682 69.3371 25.842V27.4787C69.3371 28.1912 69.557 28.7933 69.9926 29.286C70.4302 29.7757 70.9987 30.0231 71.7002 30.0231C72.5223 30.0231 73.1614 29.7052 73.6174 29.0744C74.0755 28.4416 74.3046 27.6075 74.3046 26.5709ZM89.1446 27.7005C89.1446 28.8587 88.7397 29.8002 87.935 30.5271C87.0495 31.3203 85.8132 31.718 84.2283 31.718C82.764 31.718 81.5901 31.4358 80.7046 30.8705L81.2087 29.054C82.1648 29.6203 83.2149 29.9025 84.3581 29.9025C85.1803 29.9025 85.8193 29.7164 86.2754 29.3474C86.7325 28.9773 86.9636 28.4825 86.9636 27.8651C86.9636 27.312 86.7723 26.849 86.3971 26.4717C86.0198 26.0955 85.396 25.7449 84.5197 25.4229C82.1372 24.5345 80.9449 23.2352 80.9449 21.526C80.9449 20.4097 81.3662 19.4958 82.2067 18.7812C83.0472 18.0677 84.1618 17.7109 85.5484 17.7109C86.7867 17.7109 87.8184 17.9266 88.6374 18.357L88.0904 20.1337C87.3194 19.7166 86.4492 19.5081 85.4758 19.5081C84.7068 19.5081 84.1035 19.6972 83.672 20.0734C83.309 20.4097 83.125 20.8196 83.125 21.3062C83.125 21.8429 83.3346 22.2886 83.7518 22.6382C84.1138 22.9603 84.7743 23.3109 85.7294 23.6871C86.9012 24.1594 87.7622 24.7094 88.3133 25.3411C88.8685 25.9729 89.1446 26.761 89.1446 27.7005ZM96.3709 23.3426H93.9679V28.1053C93.9679 29.3167 94.3912 29.9209 95.2399 29.9209C95.6295 29.9209 95.9527 29.8881 96.2083 29.8196L96.2686 31.4747C95.8392 31.6352 95.2737 31.7159 94.5733 31.7159C93.7123 31.7159 93.0395 31.4532 92.5538 30.9278C92.0701 30.4023 91.8267 29.5222 91.8267 28.2832V23.3385H90.3952V21.7029H91.8267V19.9068L93.9679 19.2607V21.7029H96.3709V23.3426ZM107.191 26.531C107.191 28.0389 106.76 29.2768 105.899 30.2449C104.998 31.2416 103.8 31.7384 102.306 31.7384C100.864 31.7384 99.7176 31.261 98.8628 30.3073C98.0079 29.3515 97.5805 28.1472 97.5805 26.6946C97.5805 25.1745 98.0223 23.9294 98.9027 22.9613C99.7851 21.9922 100.973 21.5076 102.467 21.5076C103.907 21.5076 105.063 21.986 105.939 22.9408C106.775 23.867 107.191 25.0631 107.191 26.531ZM104.932 26.5811C104.932 25.6825 104.737 24.9118 104.348 24.2667C103.891 23.4877 103.236 23.0983 102.388 23.0983C101.515 23.0983 100.845 23.4877 100.389 24.2667C99.9988 24.9118 99.8045 25.6958 99.8045 26.622C99.8045 27.5216 99.9988 28.2944 100.389 28.9374C100.861 29.7164 101.518 30.1059 102.37 30.1059C103.203 30.1059 103.857 29.7082 104.329 28.918C104.73 28.2576 104.932 27.4817 104.932 26.5811ZM114.281 23.6237C114.054 23.5828 113.824 23.5626 113.593 23.5634C112.827 23.5634 112.233 23.8517 111.816 24.4323C111.454 24.9435 111.272 25.5895 111.272 26.3695V31.5166H109.092V24.7962C109.094 23.7665 109.073 22.7368 109.029 21.708H110.928L111.007 23.5849H111.068C111.299 22.9398 111.661 22.4195 112.158 22.03C112.613 21.6897 113.165 21.5054 113.734 21.5046C113.935 21.5046 114.117 21.5189 114.279 21.5444L114.281 23.6237ZM124.03 26.1477C124.036 26.479 124.009 26.8101 123.951 27.1362H117.411C117.435 28.1053 117.752 28.8475 118.359 29.3586C118.911 29.8145 119.623 30.0435 120.499 30.0435C121.467 30.0435 122.35 29.8902 123.145 29.5804L123.486 31.0924C122.558 31.4972 121.462 31.6986 120.197 31.6986C118.675 31.6986 117.481 31.2508 116.612 30.3574C115.745 29.4629 115.31 28.2607 115.31 26.7549C115.31 25.2767 115.714 24.0449 116.523 23.0625C117.37 22.0136 118.514 21.4892 119.954 21.4892C121.368 21.4892 122.438 22.0136 123.165 23.0625C123.741 23.8936 124.03 24.924 124.03 26.1477ZM121.952 25.5824C121.967 24.9353 121.824 24.3781 121.528 23.9069C121.151 23.2997 120.57 22.9971 119.792 22.9971C119.079 22.9971 118.499 23.2925 118.057 23.8854C117.694 24.3567 117.478 24.923 117.412 25.5803L121.952 25.5824Z" fill="#333333"/>
<path d="M45.3503 13.1042C44.7439 13.1042 44.2193 13.0745 43.7827 13.0244V6.4472C44.3934 6.35289 45.0105 6.30641 45.6284 6.30818C48.1285 6.30818 49.2799 7.53796 49.2799 9.54262C49.2799 11.855 47.9199 13.1042 45.3503 13.1042ZM45.7163 7.15154C45.3789 7.15154 45.0916 7.17199 44.8533 7.22106V12.2209C44.9821 12.2414 45.2296 12.2506 45.5773 12.2506C47.2154 12.2506 48.1479 11.3183 48.1479 9.57226C48.1479 8.01536 47.3043 7.15154 45.7163 7.15154ZM52.8679 13.1543C51.4589 13.1543 50.5457 12.1024 50.5457 10.6743C50.5457 9.18585 51.4783 8.12474 52.9477 8.12474C54.3363 8.12474 55.2698 9.12655 55.2698 10.5955C55.2698 12.1024 54.3076 13.1543 52.8679 13.1543ZM52.9088 8.90779C52.1348 8.90779 51.6388 9.63155 51.6388 10.6436C51.6388 11.6362 52.145 12.36 52.8986 12.36C53.6522 12.36 54.1584 11.5861 54.1584 10.6231C54.1584 9.64178 53.6624 8.90779 52.9088 8.90779ZM63.3049 8.2239L61.7967 13.0449H60.814L60.1893 10.9513C60.0339 10.4392 59.9046 9.91956 59.8017 9.39439H59.7813C59.7025 9.91983 59.5532 10.4463 59.3947 10.9513L58.7301 13.0449H57.7372L56.3179 8.2239H57.4192L57.9652 10.5158C58.0941 11.0617 58.2025 11.5769 58.2925 12.0635H58.3129C58.3916 11.6577 58.5205 11.1506 58.7096 10.526L59.3947 8.22492H60.268L60.9234 10.477C61.0819 11.0229 61.2108 11.5585 61.311 12.0645H61.3396C61.4091 11.5687 61.5185 11.0423 61.6668 10.477L62.2527 8.22492L63.3049 8.2239ZM68.8573 13.0449H67.7856V10.2766C67.7856 9.42403 67.4584 8.99673 66.8132 8.99673C66.1782 8.99673 65.7416 9.54262 65.7416 10.1774V13.0449H64.67V9.60191C64.67 9.17562 64.6598 8.71867 64.6301 8.22287H65.5729L65.623 8.96708H65.6526C65.941 8.45186 66.5259 8.12474 67.1813 8.12474C68.1936 8.12474 68.8583 8.89859 68.8583 10.158L68.8573 13.0449ZM71.8124 13.0449H70.7397V6.01172H71.8124V13.0449ZM75.7195 13.1543C74.3115 13.1543 73.3973 12.1024 73.3973 10.6743C73.3973 9.18585 74.3299 8.12474 75.7982 8.12474C77.1878 8.12474 78.1204 9.12655 78.1204 10.5955C78.1214 12.1024 77.1582 13.1543 75.7195 13.1543ZM75.7594 8.90779C74.9853 8.90779 74.4894 9.63155 74.4894 10.6436C74.4894 11.6362 74.9966 12.36 75.7481 12.36C76.5027 12.36 77.0079 11.5861 77.0079 10.6231C77.0089 9.64178 76.514 8.90779 75.7594 8.90779ZM82.3455 13.0449L82.2678 12.4898H82.2392C81.9119 12.9365 81.4344 13.1543 80.8291 13.1543C79.965 13.1543 79.3515 12.5491 79.3515 11.7354C79.3515 10.5455 80.3833 9.93005 82.1696 9.93005V9.84112C82.1696 9.20629 81.8332 8.88837 81.1686 8.88837C80.6931 8.88837 80.2759 9.00797 79.9088 9.24616L79.691 8.54182C80.1368 8.26376 80.6931 8.12474 81.3465 8.12474C82.6062 8.12474 83.2423 8.78921 83.2423 10.1192V11.8948C83.2423 12.3814 83.2637 12.7587 83.3118 13.0459L82.3455 13.0449ZM82.1982 10.6436C81.008 10.6436 80.4109 10.9319 80.4109 11.6158C80.4109 12.1218 80.7186 12.3692 81.1461 12.3692C81.6911 12.3692 82.1982 11.9531 82.1982 11.3878V10.6436ZM88.4459 13.0449L88.3958 12.271H88.3662C88.0584 12.8558 87.541 13.1543 86.8181 13.1543C85.6554 13.1543 84.7945 12.132 84.7945 10.6937C84.7945 9.18585 85.6871 8.12372 86.906 8.12372C87.5512 8.12372 88.0083 8.34146 88.266 8.77899H88.2874V6.01172H89.3601V11.7456C89.3601 12.2117 89.3713 12.6483 89.3999 13.0449H88.4459ZM88.2874 10.2081C88.2874 9.53342 87.8406 8.95788 87.1586 8.95788C86.364 8.95788 85.8783 9.66222 85.8783 10.6538C85.8783 11.626 86.3825 12.2915 87.1371 12.2915C87.8109 12.2915 88.2874 11.7057 88.2874 11.0116V10.2081ZM96.1609 13.1543C94.7529 13.1543 93.8398 12.1024 93.8398 10.6743C93.8398 9.18585 94.7723 8.12474 96.2407 8.12474C97.6303 8.12474 98.5629 9.12655 98.5629 10.5955C98.5639 12.1024 97.6017 13.1543 96.1609 13.1543ZM96.2008 8.90779C95.4278 8.90779 94.9318 9.63155 94.9318 10.6436C94.9318 11.6362 95.438 12.36 96.1906 12.36C96.9452 12.36 97.4504 11.5861 97.4504 10.6231C97.4524 9.64178 96.9565 8.90779 96.2008 8.90779ZM104.326 13.0449H103.253V10.2766C103.253 9.42403 102.926 8.99673 102.281 8.99673C101.646 8.99673 101.21 9.54262 101.21 10.1774V13.0449H100.138V9.60191C100.138 9.17562 100.127 8.71867 100.098 8.22287H101.04L101.091 8.96708H101.12C101.408 8.45186 101.993 8.12372 102.648 8.12372C103.66 8.12372 104.326 8.89757 104.326 10.157V13.0449ZM111.536 9.0274H110.357V11.3684C110.357 11.9644 110.563 12.2618 110.98 12.2618C111.17 12.2618 111.328 12.2414 111.456 12.2117L111.486 13.0255C111.278 13.1052 111 13.1451 110.654 13.1451C109.81 13.1451 109.305 12.6789 109.305 11.4583V9.0274H108.601V8.2239H109.305V7.34066L110.357 7.02274V8.22287H111.536V9.0274ZM117.209 13.0449H116.138V10.297C116.138 9.43426 115.812 8.99775 115.166 8.99775C114.61 8.99775 114.093 9.37497 114.093 10.1386V13.0449H113.022V6.01172H114.093V8.90779H114.115C114.452 8.38235 114.941 8.12372 115.565 8.12372C116.585 8.12372 117.209 8.91699 117.209 10.1774V13.0449ZM123.021 10.892H119.805C119.825 11.8049 120.43 12.3201 121.324 12.3201C121.8 12.3201 122.238 12.2404 122.624 12.0921L122.791 12.8363C122.335 13.0347 121.798 13.1338 121.173 13.1338C119.665 13.1338 118.772 12.1811 118.772 10.7039C118.772 9.22571 119.686 8.11451 121.052 8.11451C122.285 8.11451 123.058 9.0274 123.058 10.4064C123.065 10.5692 123.052 10.7322 123.021 10.892ZM122.038 10.1284C122.038 9.38417 121.663 8.85872 120.978 8.85872C120.362 8.85872 119.876 9.39439 119.806 10.1284H122.038Z" fill="#333333"/>
</g>
<defs>
<clipPath id="clip0">
<rect width="138" height="40.0001" fill="white" transform="translate(0.5)"/>
</clipPath>
</defs>
</svg>
